{
.appVersion = "3343";
.formatVersion = 3;
axes = (
{
name = Weight;
tag = wght;
}
);
classes = (
{
code = "A AE AEacute Aacute Abreve Acaron Acircumflex Adieresis Agrave Amacron Aogonek Aring Atilde B C Cacute Ccaron Ccedilla Ccircumflex Cdotaccent D Dcaron Dcroat E Eacute Ebreve Ecaron Ecircumflex Edieresis Edotaccent Egrave Emacron Eng Eogonek Eth F G Gbreve Gcircumflex Gcommaaccent Gdotaccent H Hbar Hcircumflex I IJ Iacute Ibreve Icircumflex Idieresis Idotaccent Igrave Imacron Iogonek Itilde J Jcircumflex K Kcommaaccent L Lacute Lcaron Lcommaaccent Ldot Lslash M N Nacute Ncaron Ncommaaccent Ntilde O OE Oacute Obreve Ocircumflex Odieresis Ograve Ohungarumlaut Omacron Oslash Oslashacute Otilde P Q R Racute Rcaron Rcommaaccent S Sacute Scaron Scedilla Scircumflex Scommaaccent T Tbar Tcaron Tcommaaccent Thorn U Uacute Ubreve Ucircumflex Udieresis Ugrave Uhungarumlaut Umacron Uogonek Uring Utilde V W Wacute Wcircumflex Wdieresis Wgrave X Y Yacute Ycircumflex Ydieresis Ygrave Z Zacute Zcaron Zdotaccent acute.case breve.case caron.case caron.alt.case cedilla.case circumflex.case commaaccent.case dieresis.case dotaccent.case Germandbls grave.case hungarumlaut.case macron.case ogonek.case ring.case tilde.case F_B F_F F_F_B F_F_H F_F_I F_F_J F_F_K F_F_L F_F_T F_H F_I F_J F_K F_L F_T T_T
";
name = c2pc_c2sc;
},
{
code = "zero.osf one.osf two.osf three.osf four.osf five.osf six.osf seven.osf eight.osf nine.osf zero.tosf one.tosf two.tosf three.tosf four.tosf five.tosf six.tosf seven.tosf eight.tosf nine.tosf zero one two three four five six seven eight nine zero.fit one.fit two.fit three.fit four.fit five.fit six.fit seven.fit eight.fit nine.fit zero.numr one.numr two.numr three.numr four.numr five.numr six.numr seven.numr eight.numr nine.numr";
name = dnom_frac;
},
{

glyphs = (
{
color = 4;
glyphname = A;
kernLeft = KO_A;
kernRight = KO_A;
lastChange = "2023-12-16 20:48:22 +0000";
layers = (
{
anchors = (
{
name = ogonek;
pos = (602,0);
},
{
name = top;
pos = (297,633);
}
);
layerId = m001;
shapes = (
{
closed = 1;
nodes = (
(170,0,l),
(201,106,l),
(393,106,l),
(422,0,l),
(626,0,l),
(450,612,l),
(180,612,l),
(-14,0,l)
);
},
{
closed = 1;
nodes = (
(299,443,l),
(356,239,l),
(240,239,l)
);
}
);
userData = {
com.hugojourdan.ColorFlow = {
"0" = 0;
"1" = 0;
"10" = 0;
"11" = 0;
"2" = 0;
"3" = 0;
"4" = 0;
"5" = 0;
"6" = 0;
"7" = 0;
"8" = 0;
"9" = 0;
};
};
width = 612;
},
{
anchors = (
{
name = ogonek;
pos = (536,0);
},
{
name = top;
pos = (275,669);
}
);
layerId = "44B34E6E-EF7D-473C-A718-23DCC9FE612C";
shapes = (
{
closed = 1;
nodes = (
(76,0,l),
(154,219,l),
(388,219,l),
(469,0,l),
(528,0,l),
(293,612,l),
(249,612,l),
(18,0,l)
);
},
{
closed = 1;
nodes = (
(268,542,l),
(371,265,l),
(170,265,l)
);
}
);
userData = {
com.hugojourdan.ColorFlow = {
"0" = 0;
"1" = 0;
"10" = 0;
"11" = 0;
"2" = 0;
"3" = 0;
"4" = 0;
"5" = 0;
"6" = 0;
"7" = 0;
"8" = 0;
"9" = 0;
};
};
width = 546;
}
);
unicode = 65;
userData = {
KernOnName = A;
};
},
{
color = 4;
glyphname = AE;
kernRight = KO_E;
lastChange = "2023-11-03 12:13:38 +0000";
layers = (
{
anchors = (
{
name = bottom;
pos = (554,0);
},
{
name = ogonek;
pos = (793,0);
},
{
name = top;
pos = (403,612);
}
);
layerId = m001;
shapes = (
{
closed = 1;
nodes = (
(148,0,l),
(192,106,l),
(353,106,l),
(353,0,l),
(764,0,l),
(782,149,l),
(553,148,l),
(553,241,l),
(722,240,l),
(740,377,l),
(553,377,l),
(553,467,l),
(747,466,l),
(766,612,l),
(254,612,l),
(-49,0,l)
);
},
{
closed = 1;
nodes = (
(338,454,l),
(353,454,l),
(353,239,l),
(248,239,l)
);
}
);
userData = {
com.hugojourdan.ColorFlow = {
"0" = 0;
"1" = 0;
"10" = 0;
"11" = 0;
"2" = 0;
"3" = 0;
"4" = 0;
"5" = 0;
"6" = 0;
"7" = 0;
"8" = 0;
"9" = 0;
};
};
width = 800;
},
{
anchors = (
{
name = bottom;
pos = (546,0);
},
{
name = ogonek;
pos = (731,0);
},
{
name = top;
pos = (396,612);
}
);
layerId = "44B34E6E-EF7D-473C-A718-23DCC9FE612C";
shapes = (
{
closed = 1;
nodes = (
(79,0,l),
(204,219,l),
(400,219,l),
(400,0,l),
(742,0,l),
(748,51,l),
(454,45,l),
(454,299,l),
(696,295,l),
(702,341,l),
(454,341,l),
(454,569,l),
(726,564,l),
(732,612,l),
(371,612,l),
(24,0,l)
);
},
{
closed = 1;
nodes = (
(393,552,l),
(400,552,l),
(400,265,l),
(230,265,l)
);
}
);
userData = {
com.hugojourdan.ColorFlow = {
"0" = 0;
"1" = 0;
"10" = 0;
"11" = 0;
"2" = 0;
"3" = 0;
"4" = 0;
"5" = 0;
"6" = 0;
"7" = 0;
"8" = 0;
"9" = 0;
};
};
width = 796;
},
{
anchors = (
{
name = bottom;
pos = (554,0);
},
{
name = ogonek;
pos = (793,0);
},
{
name = top;
pos = (403,612);
}
);
associatedMasterId = m001;
layerId = "C634863D-706C-4179-9CD7-71CC904E59AF";
name = "12 de oct. de 23, 0:08";
shapes = (
{
closed = 1;
nodes = (
(148,0,l),
(192,106,l),
(353,106,l),
(353,0,l),
(766,0,l),
(782,149,l),
(553,148,l),
(553,241,l),
(725,240,l),
(740,377,l),
(553,377,l),
(553,467,l),
(748,466,l),
(768,612,l),
(254,612,l),
(-49,0,l)
);
},
{
closed = 1;
nodes = (
(338,454,l),
(353,454,l),
(353,239,l),
(248,239,l)
);
}
);
userData = {
com.hugojourdan.ColorFlow = {
"0" = 0;
"1" = 0;
"10" = 0;
"11" = 0;
"2" = 0;
"3" = 0;
"4" = 0;
"5" = 0;
"6" = 0;
"7" = 0;
"8" = 0;
"9" = 0;
};
};
width = 798;
},
{
anchors = (
{
name = bottom;
pos = (546,0);
},
{
name = ogonek;
pos = (731,0);
},
{
name = top;
pos = (396,612);
}
);
associatedMasterId = "44B34E6E-EF7D-473C-A718-23DCC9FE612C";
layerId = "95DF387A-A681-47F7-B088-CDD254628327";
name = "12 de oct. de 23, 0:09";
shapes = (
{
closed = 1;
nodes = (
(79,0,l),
(204,219,l),
(400,219,l),
(400,0,l),
(740,0,l),
(747,51,l),
(454,45,l),
(454,299,l),
(697,295,l),
(702,341,l),
(454,341,l),
(454,569,l),
(726,564,l),
(732,612,l),
(371,612,l),
(24,0,l)
);
},
{
closed = 1;
nodes = (
(393,552,l),
(400,552,l),
(400,265,l),
(230,265,l)
);
}
);
userData = {
com.hugojourdan.ColorFlow = {
"0" = 0;
"1" = 0;
"10" = 0;
"11" = 0;
"2" = 0;
"3" = 0;
"4" = 0;
"5" = 0;
"6" = 0;
"7" = 0;
"8" = 0;
"9" = 0;
};
};
width = 794;
}
);
metricRight = E;
unicode = 198;
},
{
color = 4;
glyphname = B;
kernLeft = KO_H;
kernRight = KO_B;
lastChange = "2023-12-16 20:48:22 +0000";
layers = (
{
layerId = m001;
shapes = (
{
closed = 1;
nodes = (
(258,0,ls),
(448,0,o),
(562,71,o),
(562,184,cs),
(562,261,o),
(510,303,o),
(444,324,c),
(499,352,o),
(526,394,o),
(526,447,cs),
(526,552,o),
(440,612,o),
(276,612,cs),
(41,612,l),
(41,0,l)
);
},
{
closed = 1;
nodes = (
(268,127,o),
(254,128,o),
(241,129,c),
(241,258,l),
(257,258,o),
(271,257,o),
(284,255,cs),
(337,246,o),
(362,219,o),
(362,182,cs),
(362,145,o),
(330,127,o),
(285,127,cs)
);
},
{
closed = 1;
nodes = (
(241,369,l),
(241,490,l),
(250,490,o),
(259,490,o),
(268,490,cs),
(314,490,o),
(334,460,o),
(334,422,cs),
(334,393,o),
(307,371,o),
(274,370,cs)
);
}
);
userData = {
com.hugojourdan.ColorFlow = {
"0" = 0;
"1" = 0;
"10" = 0;
"11" = 0;
"2" = 0;
"3" = 0;
"4" = 0;
"5" = 0;
"6" = 0;
"7" = 0;
"8" = 0;
"9" = 0;
};
};
width = 562;
},
{
layerId = "44B34E6E-EF7D-473C-A718-23DCC9FE612C";
shapes = (
{
closed = 1;
nodes = (
(251,0,ls),
(397,0,o),
(482,71,o),
(482,177,cs),
(482,275,o),
(399,314,o),
(340,323,c),
(404,348,o),
(438,399,o),
(438,467,cs),
(438,546,o),
(371,612,o),
(269,612,cs),
(107,612,l),
(107,0,l)
);
},
{
closed = 1;
nodes = (
(236,43,o),
(200,44,o),
(161,46,c),
(161,289,l),
(193,291,o),
(229,292,o),
(266,292,cs),
(367,292,o),
(428,243,o),
(428,160,cs),
(428,81,o),
(373,43,o),
(278,43,cs)
);
},
{
closed = 1;
nodes = (
(161,335,l),
(161,570,l),
(194,570,o),
(226,570,o),
(259,570,cs),
(337,570,o),
(385,518,o),
(385,444,cs),
(385,377,o),
(336,330,o),
(264,332,cs)
);
}
);
userData = {
com.hugojourdan.ColorFlow = {
"0" = 0;
"1" = 0;
"10" = 0;
"11" = 0;
"2" = 0;
"3" = 0;
"4" = 0;
"5" = 0;
"6" = 0;
"7" = 0;
"8" = 0;
"9" = 0;
};
};
width = 537;
}
);
unicode = 66;
userData = {
KernOnName = B;
};
},
{
color = 4;
glyphname = C;
kernLeft = KO_O;
kernRight = KO_C;
lastChange = "2023-12-16 20:48:22 +0000";
layers = (
{
anchors = (
{
name = bottom;
pos = (307,0);
},
{
name = top;
pos = (344,633);
}
);
layerId = m001;
shapes = (
{
closed = 1;
nodes = (
(415,-20,o),
(501,-2,o),
(538,21,c),
(512,163,l),
(481,152,o),
(445,142,o),
(385,142,cs),
(333,142,o),
(226,173,o),
(226,316,cs),
(226,440,o),
(275,475,o),
(360,475,cs),
(431,475,o),
(474,461,o),
(514,450,c),
(534,610,l),
(488,622,o),
(448,632,o),
(371,632,cs),
(151,632,o),
(21,486,o),
(21,295,cs),
(21,83,o),
(162,-20,o),
(326,-20,cs)
);
}
);
userData = {
com.hugojourdan.ColorFlow = {
"0" = 0;
"1" = 0;
"10" = 0;
"11" = 0;
"2" = 0;
"3" = 0;
"4" = 0;
"5" = 0;
"6" = 0;
"7" = 0;
"8" = 0;
"9" = 0;
};
};
width = 562;
},
{
anchors = (
{
name = bottom;
pos = (337,0);
},
{
name = top;
pos = (314,669);
}
);
layerId = "44B34E6E-EF7D-473C-A718-23DCC9FE612C";
shapes = (
{
closed = 1;
nodes = (
(408,-10,o),
(476,12,o),
(510,31,c),
(502,74,l),
(451,49,o),
(394,36,o),
(345,36,cs),
(213,36,o),
(109,115,o),
(109,316,cs),
(109,489,o),
(194,571,o),
(309,577,cs),
(370,580,o),
(442,563,o),
(488,542,c),
(494,594,l),
(460,607,o),
(390,621,o),
(339,621,cs),
(162,621,o),
(53,486,o),
(53,295,cs),
(53,98,o),
(169,-10,o),
(341,-10,cs)
);
}
);
userData = {
com.hugojourdan.ColorFlow = {
"0" = 0;
"1" = 0;
"10" = 0;
"11" = 0;
"2" = 0;
"3" = 0;
"4" = 0;
"5" = 0;
"6" = 0;
"7" = 0;
"8" = 0;
"9" = 0;
};
};
width = 540;
},
{
anchors = (
{
name = bottom;
pos = (337,0);
},
{
name = top;
pos = (314,669);
}
);
associatedMasterId = "44B34E6E-EF7D-473C-A718-23DCC9FE612C";
layerId = "BC2D8934-4FBB-4FBD-9941-4531E3798DAC";
name = "5 de oct. de 23, 9:39";
shapes = (
{
closed = 1;
nodes = (
(408,-10,o),
(478,12,o),
(512,31,c),
(501,74,l),
(450,49,o),
(394,36,o),
(345,36,cs),
(213,36,o),
(109,115,o),
(109,316,cs),
(109,489,o),
(194,577,o),
(309,577,cs),
(370,577,o),
(443,563,o),
(479,544,c),
(502,591,l),
(473,607,o),
(390,621,o),
(339,621,cs),
(162,621,o),
(53,486,o),
(53,295,cs),
(53,98,o),
(169,-10,o),
(341,-10,cs)
);
}
);
userData = {
com.hugojourdan.ColorFlow = {
"0" = 0;
"1" = 0;
"10" = 0;
"11" = 0;
"2" = 0;
"3" = 0;
"4" = 0;
"5" = 0;
"6" = 0;
"7" = 0;
"8" = 0;
"9" = 0;
};
};
visible = 1;
width = 540;
},
{
anchors = (
{
name = bottom;
pos = (307,0);
},
{
name = top;
pos = (344,633);
}
);
associatedMasterId = m001;
layerId = "501EED5B-F37E-430F-9585-8B8EBB398EF5";
name = "5 de oct. de 23, 11:58";
shapes = (
{
closed = 1;
nodes = (
(415,-20,o),
(497,-2,o),
(534,21,c),
(516,163,l),
(485,152,o),
(445,142,o),
(385,142,cs),
(333,142,o),
(226,173,o),
(226,316,cs),
(226,440,o),
(275,475,o),
(360,475,cs),
(431,475,o),
(469,461,o),
(509,450,c),
(538,610,l),
(492,622,o),
(448,632,o),
(371,632,cs),
(151,632,o),
(21,486,o),
(21,295,cs),
(21,83,o),
(162,-20,o),
(326,-20,cs)
);
}
);
userData = {
com.hugojourdan.ColorFlow = {
"0" = 0;
"1" = 0;
"10" = 0;
"11" = 0;
"2" = 0;
"3" = 0;
"4" = 0;
"5" = 0;
"6" = 0;
"7" = 0;
"8" = 0;
"9" = 0;
};
};
visible = 1;
width = 562;
}
);
metricLeft = O;
unicode = 67;
userData = {
KernOnName = C;
};
},
{
color = 4;
glyphname = D;
kernLeft = KO_H;
lastChange = "2023-12-16 20:48:22 +0000";
layers = (
{
anchors = (
{
name = center;
pos = (303,306);
},
{
name = top;
pos = (238,633);
}
);
layerId = m001;
shapes = (
{
closed = 1;
nodes = (
(467,-12,o),
(628,96,o),
(628,314,cs),
(628,526,o),
(495,612,o),
(320,612,cs),
(41,612,l),
(41,2,l),
(112,-7,o),
(170,-12,o),
(253,-12,cs)
);
},
{
closed = 1;
nodes = (
(241,472,l),
(268,472,ls),
(333,472,o),
(425,437,o),
(425,288,cs),
(425,180,o),
(376,136,o),
(272,136,cs),
(259,136,o),
(251,137,o),
(241,139,c)
);
}
);
userData = {
com.hugojourdan.ColorFlow = {
"0" = 0;
"1" = 0;
"10" = 0;
"11" = 0;
"2" = 0;
"3" = 0;
"4" = 0;
"5" = 0;
"6" = 0;
"7" = 0;
"8" = 0;
"9" = 0;
};
};
width = 649;
},
{
anchors = (
{
name = center;
pos = (310,306);
},
{
name = top;
pos = (366,669);
}
);
layerId = "44B34E6E-EF7D-473C-A718-23DCC9FE612C";
shapes = (
{
closed = 1;
nodes = (
(448,-3,o),
(585,119,o),
(585,316,cs),
(585,491,o),
(473,612,o),
(294,612,cs),
(107,612,l),
(107,13,l),
(150,4,o),
(206,-3,o),
(257,-3,cs)
);
},
{
closed = 1;
nodes = (
(161,570,l),
(272,570,ls),
(427,570,o),
(527,468,o),
(527,300,cs),
(527,105,o),
(396,40,o),
(288,40,cs),
(236,40,o),
(196,45,o),
(161,51,c)
);
}
);
userData = {
com.hugojourdan.ColorFlow = {
"0" = 0;
"1" = 0;
"10" = 0;
"11" = 0;
"2" = 0;
"3" = 0;
"4" = 0;
"5" = 0;
"6" = 0;
"7" = 0;
"8" = 0;
"9" = 0;
};
};
width = 639;
}
);
metricLeft = H;
metricRight = O;
unicode = 68;
userData = {
KernOnName = D;
};
},
{
color = 4;
glyphname = Dcroat;
lastChange = "2023-11-03 12:08:53 +0000";
layers = (
{
anchors = (
{
name = center;
pos = (308,306);
},
{
name = top;
pos = (243,633);
}
);
layerId = m001;
shapes = (
{
closed = 1;
nodes = (
(472,-12,o),
(633,96,o),
(633,314,cs),
(633,526,o),
(500,612,o),
(325,612,cs),
(46,612,l),
(46,367,l),
(-8,367,l),
(-8,239,l),
(46,239,l),
(46,2,l),
(117,-7,o),
(175,-12,o),
(258,-12,cs)
);
},
{
closed = 1;
nodes = (
(264,136,o),
(256,137,o),
(246,139,c),
(246,239,l),
(353,239,l),
(363,367,l),
(246,367,l),
(246,472,l),
(273,472,ls),
(338,472,o),
(430,437,o),
(430,288,cs),
(430,180,o),
(381,136,o),
(277,136,cs)
);
}
);
userData = {
com.hugojourdan.ColorFlow = {
"0" = 0;
"1" = 0;
"10" = 0;
"11" = 0;
"2" = 0;
"3" = 0;
"4" = 0;
"5" = 0;
"6" = 0;
"7" = 0;
"8" = 0;
"9" = 0;
};
};
width = 654;
},
{
anchors = (
{
name = center;
pos = (315,306);
},
{
name = top;
pos = (371,669);
}
);
layerId = "44B34E6E-EF7D-473C-A718-23DCC9FE612C";
shapes = (
{
closed = 1;
nodes = (
(453,-3,o),
(590,119,o),
(590,316,cs),
(590,491,o),
(478,612,o),
(299,612,cs),
(112,612,l),
(112,341,l),
(43,341,l),
(43,297,l),
(112,297,l),
(112,13,l),
(155,4,o),
(211,-3,o),
(262,-3,cs)
);
},
{
closed = 1;
nodes = (
(241,40,o),
(201,45,o),
(166,51,c),
(166,297,l),
(346,297,l),
(356,341,l),
(166,341,l),
(166,570,l),
(277,570,ls),
(432,570,o),
(532,468,o),
(532,300,cs),
(532,105,o),
(401,40,o),
(293,40,cs)
);
}
);
userData = {
com.hugojourdan.ColorFlow = {
"0" = 0;
"1" = 0;
"10" = 0;
"11" = 0;
"2" = 0;
"3" = 0;
"4" = 0;
"5" = 0;
"6" = 0;
"7" = 0;
"8" = 0;
"9" = 0;
};
};
width = 644;
}
);
metricRight = D;
unicode = 272;
},
{
color = 4;
glyphname = Eth;
lastChange = "2023-11-03 12:09:25 +0000";
layers = (
{
layerId = m001;
shapes = (
{
closed = 1;
nodes = (
(353,239,l),
(363,367,l),
(-8,367,l),
(-8,239,l)
);
},
{
pos = (5,0);
ref = D;
}
);
userData = {
com.hugojourdan.ColorFlow = {
"0" = 0;
"1" = 0;
"10" = 0;
"11" = 0;
"2" = 0;
"3" = 0;
"4" = 0;
"5" = 0;
"6" = 0;
"7" = 0;
"8" = 0;
"9" = 0;
};
};
width = 654;
},
{
layerId = "44B34E6E-EF7D-473C-A718-23DCC9FE612C";
shapes = (
{
closed = 1;
nodes = (
(346,297,l),
(356,341,l),
(43,341,l),
(43,297,l)
);
},
{
pos = (5,0);
ref = D;
}
);
userData = {
com.hugojourdan.ColorFlow = {
"0" = 0;
"1" = 0;
"10" = 0;
"11" = 0;
"2" = 0;
"3" = 0;
"4" = 0;
"5" = 0;
"6" = 0;
"7" = 0;
"8" = 0;
"9" = 0;
};
};
width = 644;
}
);
metricRight = D;
unicode = 208;
},
{
color = 4;
glyphname = E;
kernLeft = KO_H;
kernRight = KO_E;
lastChange = "2023-12-16 20:48:22 +0000";
layers = (
{
anchors = (
{
name = bottom;
pos = (242,0);
},
{
name = ogonek;
pos = (481,0);
},
{
name = top;
pos = (244,633);
}
);
layerId = m001;
shapes = (
{
closed = 1;
nodes = (
(452,0,l),
(470,149,l),
(241,148,l),
(241,241,l),
(410,240,l),
(428,377,l),
(241,377,l),
(241,467,l),
(435,466,l),
(454,612,l),
(41,612,l),
(41,0,l)
);
}
);
userData = {
com.hugojourdan.ColorFlow = {
"0" = 0;
"1" = 0;
"10" = 0;
"11" = 0;
"2" = 0;
"3" = 0;
"4" = 0;
"5" = 0;
"6" = 0;
"7" = 0;
"8" = 0;
"9" = 0;
};
};
width = 488;
},
{
anchors = (
{
name = bottom;
pos = (253,0);
},
{
name = ogonek;
pos = (438,0);
},
{
name = top;
pos = (284,669);
}
);
annotations = (
{
angle = 91.65905;
pos = (60,664);
type = Arrow;
}
);
layerId = "44B34E6E-EF7D-473C-A718-23DCC9FE612C";
shapes = (
{
closed = 1;
nodes = (
(449,1,l),
(455,52,l),
(161,46,l),
(161,300,l),
(403,296,l),
(409,342,l),
(161,342,l),
(161,570,l),
(433,565,l),
(439,613,l),
(107,613,l),
(107,1,l)
);
}
);
userData = {
com.hugojourdan.ColorFlow = {
"0" = 0;
"1" = 0;
"10" = 0;
"11" = 0;
"2" = 0;
"3" = 0;
"4" = 0;
"5" = 0;
"6" = 0;
"7" = 0;
"8" = 0;
"9" = 0;
};
};
width = 503;
},
{
anchors = (
{
name = bottom;
pos = (242,0);
},
{
name = ogonek;
pos = (481,0);
},
{
name = top;
pos = (244,633);
}
);
associatedMasterId = m001;
layerId = "F32D2406-B0E4-4E8D-8C1A-880281FD0136";
name = "2 de oct. de 23, 11:38";
shapes = (
{
closed = 1;
nodes = (
(454,0,l),
(470,149,l),
(241,148,l),
(241,241,l),
(418,240,l),
(428,377,l),
(241,377,l),
(241,467,l),
(438,466,l),
(454,612,l),
(41,612,l),
(41,0,l)
);
}
);
userData = {
com.hugojourdan.ColorFlow = {
"0" = 0;
"1" = 0;
"10" = 0;
"11" = 0;
"2" = 0;
"3" = 0;
"4" = 0;
"5" = 0;
"6" = 0;
"7" = 0;
"8" = 0;
"9" = 0;
};
};
visible = 1;
width = 488;
},
{
anchors = (
{
name = bottom;
pos = (253,0);
},
{
name = ogonek;
pos = (438,0);
},
{
name = top;
pos = (284,669);
}
);
associatedMasterId = "44B34E6E-EF7D-473C-A718-23DCC9FE612C";
layerId = "A3D233CE-6E99-47A4-80AC-54D6E29DDE0C";
name = "2 de oct. de 23, 11:38";
shapes = (
{
closed = 1;
nodes = (
(447,1,l),
(455,52,l),
(161,46,l),
(161,300,l),
(399,296,l),
(409,342,l),
(161,342,l),
(161,570,l),
(431,565,l),
(439,613,l),
(107,613,l),
(107,1,l)
);
}
);
userData = {
com.hugojourdan.ColorFlow = {
"0" = 0;
"1" = 0;
"10" = 0;
"11" = 0;
"2" = 0;
"3" = 0;
"4" = 0;
"5" = 0;
"6" = 0;
"7" = 0;
"8" = 0;
"9" = 0;
};
};
visible = 1;
width = 503;
}
);
metricLeft = H;
unicode = 69;
userData = {
KernOnName = E;
};
},
{
color = 4;
glyphname = F;
kernLeft = KO_H;
kernRight = KO_F;
lastChange = "2023-12-16 20:48:22 +0000";
layers = (
{
layerId = m001;
shapes = (
{
closed = 1;
nodes = (
(241,0,l),
(241,231,l),
(410,228,l),
(428,364,l),
(241,364,l),
(241,469,l),
(434,466,l),
(453,612,l),
(41,612,l),
(41,0,l)
);
}
);
userData = {
com.hugojourdan.ColorFlow = {
"0" = 0;
"1" = 0;
"10" = 0;
"11" = 0;
"2" = 0;
"3" = 0;
"4" = 0;
"5" = 0;
"6" = 0;
"7" = 0;
"8" = 0;
"9" = 0;
};
};
width = 480;
},
{
layerId = "44B34E6E-EF7D-473C-A718-23DCC9FE612C";
shapes = (
{
closed = 1;
nodes = (
(161,0,l),
(164,285,l),
(400,281,l),
(406,329,l),
(161,329,l),
(161,568,l),
(433,564,l),
(439,612,l),
(107,612,l),
(107,0,l)
);
}
);
userData = {
com.hugojourdan.ColorFlow = {
"0" = 0;
"1" = 0;
"10" = 0;
"11" = 0;
"2" = 0;
"3" = 0;
"4" = 0;
"5" = 0;
"6" = 0;
"7" = 0;
"8" = 0;
"9" = 0;
};
};
width = 484;
},
{
associatedMasterId = m001;
layerId = "7FBC6B1B-1B5D-4621-8D93-2BB081122718";
name = "12 de oct. de 23, 0:25";
shapes = (
{
closed = 1;
nodes = (
(241,0,l),
(241,231,l),
(411,228,l),
(426,364,l),
(241,364,l),
(241,469,l),
(434,466,l),
(454,612,l),
(41,612,l),
(41,0,l)
);
}
);
userData = {
com.hugojourdan.ColorFlow = {
"0" = 0;
"1" = 0;
"10" = 0;
"11" = 0;
"2" = 0;
"3" = 0;
"4" = 0;
"5" = 0;
"6" = 0;
"7" = 0;
"8" = 0;
"9" = 0;
};
};
visible = 1;
width = 480;
},
{
associatedMasterId = "44B34E6E-EF7D-473C-A718-23DCC9FE612C";
layerId = "B9E647D5-BD4C-4A8B-AFE7-861851AD085B";
name = "12 de oct. de 23, 0:25";
shapes = (
{
closed = 1;
nodes = (
(161,0,l),
(164,285,l),
(400,281,l),
(406,329,l),
(161,329,l),
(161,568,l),
(433,564,l),
(439,612,l),
(107,612,l),
(107,0,l)
);
}
);
userData = {
com.hugojourdan.ColorFlow = {
"0" = 0;
"1" = 0;
"10" = 0;
"11" = 0;
"2" = 0;
"3" = 0;
"4" = 0;
"5" = 0;
"6" = 0;
"7" = 0;
"8" = 0;
"9" = 0;
};
};
visible = 1;
width = 484;
}
);
metricLeft = H;
unicode = 70;
userData = {
KernOnName = F;
};
},
{
color = 4;
glyphname = G;
kernLeft = KO_O;
kernRight = KO_M;
lastChange = "2023-12-16 20:48:22 +0000";
layers = (
{
anchors = (
{
name = bottom;
pos = (368,0);
},
{
name = top;
pos = (401,633);
}
);
layerId = m001;
shapes = (
{
closed = 1;
nodes = (
(407,-18,o),
(451,-12,o),
(559,20,c),
(559,306,l),
(387,306,l),
(389,139,l),
(291,131,o),
(226,196,o),
(226,316,cs),
(226,419,o),
(250,481,o),
(383,481,cs),
(428,481,o),
(511,454,o),
(537,441,c),
(557,601,l),
(533,610,o),
(467,632,o),
(386,632,cs),
(198,632,o),
(21,532,o),
(21,287,cs),
(21,80,o),
(155,-18,o),
(333,-18,cs)
);
}
);
userData = {
com.hugojourdan.ColorFlow = {
"0" = 0;
"1" = 0;
"10" = 0;
"11" = 0;
"2" = 0;
"3" = 0;
"4" = 0;
"5" = 0;
"6" = 0;
"7" = 0;
"8" = 0;
"9" = 0;
};
};
width = 606;
},
{
anchors = (
{
name = bottom;
pos = (274,0);
},
{
name = top;
pos = (255,669);
}
);
layerId = "44B34E6E-EF7D-473C-A718-23DCC9FE612C";
shapes = (
{
closed = 1;
nodes = (
(411,-10,o),
(498,15,o),
(523,36,c),
(523,303,l),
(470,303,l),
(472,54,l),
(375,11,o),
(109,9,o),
(109,316,cs),
(109,504,o),
(226,572,o),
(314,575,cs),
(385,577,o),
(449,563,o),
(509,537,c),
(515,588,l),
(472,609,o),
(401,621,o),
(346,621,cs),
(188,621,o),
(53,506,o),
(53,298,cs),
(53,80,o),
(185,-10,o),
(355,-10,cs)
);
}
);
userData = {
com.hugojourdan.ColorFlow = {
"0" = 0;
"1" = 0;
"10" = 0;
"11" = 0;
"2" = 0;
"3" = 0;
"4" = 0;
"5" = 0;
"6" = 0;
"7" = 0;
"8" = 0;
"9" = 0;
};
};
width = 587;
},
{
anchors = (
{
name = bottom;
pos = (368,0);
},
{
name = top;
pos = (401,633);
}
);
associatedMasterId = m001;
layerId = "7271FAEF-B350-4225-B99A-182C3C23E0D5";
name = "2 de oct. de 23, 11:27";
shapes = (
{
closed = 1;
nodes = (
(407,-18,o),
(451,-12,o),
(559,20,c),
(559,306,l),
(387,306,l),
(389,139,l),
(291,131,o),
(226,196,o),
(226,316,cs),
(226,419,o),
(250,481,o),
(383,481,cs),
(428,481,o),
(505,459,o),
(531,446,c),
(566,601,l),
(542,610,o),
(467,632,o),
(386,632,cs),
(198,632,o),
(21,532,o),
(21,287,cs),
(21,80,o),
(155,-18,o),
(333,-18,cs)
);
}
);
userData = {
com.hugojourdan.ColorFlow = {
"0" = 0;
"1" = 0;
"10" = 0;
"11" = 0;
"2" = 0;
"3" = 0;
"4" = 0;
"5" = 0;
"6" = 0;
"7" = 0;
"8" = 0;
"9" = 0;
};
};
visible = 1;
width = 606;
},
{
anchors = (
{
name = bottom;
pos = (274,0);
},
{
name = top;
pos = (255,669);
}
);
associatedMasterId = "44B34E6E-EF7D-473C-A718-23DCC9FE612C";
layerId = "567B861B-B786-4344-85E0-48BCDDB85AD3";
name = "6 de oct. de 23, 23:28";
shapes = (
{
closed = 1;
nodes = (
(411,-10,o),
(498,15,o),
(523,36,c),
(523,303,l),
(470,303,l),
(472,54,l),
(375,11,o),
(109,9,o),
(109,316,cs),
(109,504,o),
(226,575,o),
(314,575,cs),
(385,575,o),
(439,564,o),
(499,538,c),
(523,586,l),
(480,610,o),
(401,621,o),
(346,621,cs),
(188,621,o),
(53,504,o),
(53,298,cs),
(53,80,o),
(185,-10,o),
(355,-10,cs)
);
}
);
userData = {
com.hugojourdan.ColorFlow = {
"0" = 0;
"1" = 0;
"10" = 0;
"11" = 0;
"2" = 0;
"3" = 0;
"4" = 0;
"5" = 0;
"6" = 0;
"7" = 0;
"8" = 0;
"9" = 0;
};
};
visible = 1;
width = 587;
}
);
metricLeft = O;
unicode = 71;
userData = {
KernOnName = G;
};
},
{
color = 4;
glyphname = H;
kernLeft = KO_H;
kernRight = KO_H;
lastChange = "2024-02-13 15:20:18 +0000";
layers = (
{
anchors = (
{
name = center;
pos = (329,306);
},
{
name = top;
pos = (324,633);
}
);
layerId = m001;
shapes = (
{
closed = 1;
nodes = (
(241,0,l),
(241,231,l),
(417,231,l),
(417,0,l),
(617,0,l),
(617,612,l),
(417,612,l),
(417,389,l),
(241,389,l),
(241,612,l),
(41,612,l),
(41,0,l)
);
}
);
userData = {
com.hugojourdan.ColorFlow = {
"0" = 0;
"1" = 0;
"10" = 0;
"11" = 0;
"2" = 0;
"3" = 0;
"4" = 0;
"5" = 0;
"6" = 0;
"7" = 0;
"8" = 0;
"9" = 0;
};
};
width = 658;
},
{
anchors = (
{
name = center;
pos = (322,306);
},
{
name = top;
pos = (324,669);
}
);
layerId = "44B34E6E-EF7D-473C-A718-23DCC9FE612C";
shapes = (
{
closed = 1;
nodes = (
(161,0,l),
(161,297,l),
(483,297,l),
(483,0,l),
(537,0,l),
(537,612,l),
(483,612,l),
(483,342,l),
(161,342,l),
(161,612,l),
(107,612,l),
(107,0,l)
);
}
);
userData = {
com.hugojourdan.ColorFlow = {
"0" = 0;
"1" = 0;
"10" = 0;
"11" = 0;
"2" = 0;
"3" = 0;
"4" = 0;
"5" = 0;
"6" = 0;
"7" = 0;
"8" = 0;
"9" = 0;
};
};
width = 644;
}
);
unicode = 72;
userData = {
KernOnName = H;
};
},
{
color = 4;
glyphname = Hbar;
lastChange = "2023-10-12 05:37:05 +0000";
layers = (
{
layerId = m001;
shapes = (
{
closed = 1;
nodes = (
(10,570,l),
(-17,467,l),
(-17,441,l),
(649,441,l),
(675,544,l),
(675,570,l)
);
},
{
ref = H;
}
);
userData = {
com.hugojourdan.ColorFlow = {
"0" = 0;
"1" = 0;
"10" = 0;
"11" = 0;
"2" = 0;
"3" = 0;
"4" = 0;
"5" = 0;
"6" = 0;
"7" = 0;
"8" = 0;
"9" = 0;
};
};
width = 659;
},
{
layerId = "44B34E6E-EF7D-473C-A718-23DCC9FE612C";
shapes = (
{
closed = 1;
nodes = (
(53,482,l),
(38,456,l),
(38,445,l),
(591,445,l),
(606,471,l),
(606,482,l)
);
},
{
ref = H;
}
);
userData = {
com.hugojourdan.ColorFlow = {
"0" = 0;
"1" = 0;
"10" = 0;
"11" = 0;
"2" = 0;
"3" = 0;
"4" = 0;
"5" = 0;
"6" = 0;
"7" = 0;
"8" = 0;
"9" = 0;
};
};
width = 644;
}
);
unicode = 294;
},
{
color = 4;
glyphname = I;
kernLeft = KO_H;
kernRight = KO_H;
lastChange = "2023-10-12 05:37:05 +0000";
layers = (
{
anchors = (
{
name = ogonek;
pos = (241,0);
},
{
name = top;
pos = (141,633);
}
);
layerId = m001;
shapes = (
{
closed = 1;
nodes = (
(241,0,l),
(241,612,l),
(41,612,l),
(41,0,l)
);
}
);
userData = {
com.hugojourdan.ColorFlow = {
"0" = 0;
"1" = 0;
"10" = 0;
"11" = 0;
"2" = 0;
"3" = 0;
"4" = 0;
"5" = 0;
"6" = 0;
"7" = 0;
"8" = 0;
"9" = 0;
};
};
width = 282;
},
{
anchors = (
{
name = ogonek;
pos = (161,0);
},
{
name = top;
pos = (134,669);
}
);
layerId = "44B34E6E-EF7D-473C-A718-23DCC9FE612C";
shapes = (
{
closed = 1;
nodes = (
(161,0,l),
(161,612,l),
(107,612,l),
(107,0,l)
);
}
);
userData = {
com.hugojourdan.ColorFlow = {
"0" = 0;
"1" = 0;
"10" = 0;
"11" = 0;
"2" = 0;
"3" = 0;
"4" = 0;
"5" = 0;
"6" = 0;
"7" = 0;
"8" = 0;
"9" = 0;
};
};
width = 268;
}
);
metricLeft = H;
metricRight = H;
unicode = 73;
},
{
color = 4;
glyphname = Ibreve;
lastChange = "2023-10-12 05:37:25 +0000";
layers = (
{
layerId = m001;
shapes = (
{
closed = 1;
nodes = (
(-30,717,o),
(37,652,o),
(143,652,cs),
(236,652,o),
(327,717,o),
(327,842,c),
(210,842,l),
(211,778,o),
(183,766,o),
(150,766,cs),
(114,766,o),
(84,778,o),
(87,842,c),
(-30,842,l)
);
},
{
ref = I;
}
);
userData = {
com.hugojourdan.ColorFlow = {
"0" = 0;
"1" = 0;
"10" = 0;
"11" = 0;
"2" = 0;
"3" = 0;
"4" = 0;
"5" = 0;
"6" = 0;
"7" = 0;
"8" = 0;
"9" = 0;
};
};
width = 283;
},
{
layerId = "44B34E6E-EF7D-473C-A718-23DCC9FE612C";
shapes = (
{
closed = 1;
nodes = (
(21,747,o),
(56,674,o),
(128,674,cs),
(193,674,o),
(243,747,o),
(243,816,c),
(221,816,l),
(211,771,o),
(187,723,o),
(131,723,cs),
(78,723,o),
(54,771,o),
(44,816,c),
(21,816,l)
);
},
{
ref = I;
}
);
userData = {
com.hugojourdan.ColorFlow = {
"0" = 0;
"1" = 0;
"10" = 0;
"11" = 0;
"2" = 0;
"3" = 0;
"4" = 0;
"5" = 0;
"6" = 0;
"7" = 0;
"8" = 0;
"9" = 0;
};
};
width = 268;
}
);
unicode = 300;
},
{
color = 4;
glyphname = Idieresis;
lastChange = "2023-10-12 05:37:25 +0000";
layers = (
{
layerId = m001;
shapes = (
{
closed = 1;
nodes = (
(-67,696,o),
(2,646,o),
(38,646,cs),
(70,646,o),
(131,710,o),
(131,743,cs),
(131,782,o),
(61,834,o),
(26,834,cs),
(-10,834,o),
(-67,768,o),
(-67,734,cs)
);
},
{
closed = 1;
nodes = (
(150,696,o),
(219,646,o),
(255,646,cs),
(287,646,o),
(348,710,o),
(348,743,cs),
(348,782,o),
(278,834,o),
(243,834,cs),
(208,834,o),
(150,768,o),
(150,734,cs)
);
},
{
ref = I;
}
);
userData = {
com.hugojourdan.ColorFlow = {
"0" = 0;
"1" = 0;
"10" = 0;
"11" = 0;
"2" = 0;
"3" = 0;
"4" = 0;
"5" = 0;
"6" = 0;
"7" = 0;
"8" = 0;
"9" = 0;
};
};
width = 283;
},
{
layerId = "44B34E6E-EF7D-473C-A718-23DCC9FE612C";
shapes = (
{
closed = 1;
nodes = (
(31,736,o),
(60,719,o),
(70,719,cs),
(81,719,o),
(105,742,o),
(105,758,cs),
(105,771,o),
(76,787,o),
(66,787,cs),
(56,787,o),
(31,764,o),
(31,749,cs)
);
},
{
closed = 1;
nodes = (
(165,736,o),
(193,719,o),
(204,719,cs),
(214,719,o),
(239,742,o),
(239,758,cs),
(239,771,o),
(209,787,o),
(200,787,cs),
(189,787,o),
(165,764,o),
(165,749,cs)
);
},
{
ref = I;
}
);
userData = {
com.hugojourdan.ColorFlow = {
"0" = 0;
"1" = 0;
"10" = 0;
"11" = 0;
"2" = 0;
"3" = 0;
"4" = 0;
"5" = 0;
"6" = 0;
"7" = 0;
"8" = 0;
"9" = 0;
};
};
width = 268;
}
);
unicode = 207;
},
{
color = 4;
glyphname = Imacron;
lastChange = "2023-10-12 05:37:25 +0000";
layers = (
{
layerId = m001;
shapes = (
{
closed = 1;
nodes = (
(38,803,l),
(7,716,l),
(7,701,l),
(264,701,l),
(296,788,l),
(296,803,l)
);
},
{
ref = I;
}
);
userData = {
com.hugojourdan.ColorFlow = {
"0" = 0;
"1" = 0;
"10" = 0;
"11" = 0;
"2" = 0;
"3" = 0;
"4" = 0;
"5" = 0;
"6" = 0;
"7" = 0;
"8" = 0;
"9" = 0;
};
};
width = 283;
},
{
layerId = "44B34E6E-EF7D-473C-A718-23DCC9FE612C";
shapes = (
{
closed = 1;
nodes = (
(31,752,l),
(18,720,l),
(18,705,l),
(232,705,l),
(245,737,l),
(245,752,l)
);
},
{
ref = I;
}
);
userData = {
com.hugojourdan.ColorFlow = {
"0" = 0;
"1" = 0;
"10" = 0;
"11" = 0;
"2" = 0;
"3" = 0;
"4" = 0;
"5" = 0;
"6" = 0;
"7" = 0;
"8" = 0;
"9" = 0;
};
};
width = 268;
}
);
unicode = 298;
},
{
color = 4;
glyphname = Itilde;
lastChange = "2023-10-12 05:37:25 +0000";
layers = (
{
layerId = m001;
shapes = (
{
closed = 1;
nodes = (
(247,817,o),
(232,812,o),
(201,812,cs),
(178,812,o),
(119,840,o),
(86,840,cs),
(36,840,o),
(-30,747,o),
(-35,742,c),
(20,687,l),
(22,691,o),
(55,725,o),
(84,725,cs),
(104,725,o),
(174,695,o),
(199,695,cs),
(256,695,o),
(293,739,o),
(318,768,c),
(267,826,l)
);
},
{
ref = I;
}
);
userData = {
com.hugojourdan.ColorFlow = {
"0" = 0;
"1" = 0;
"10" = 0;
"11" = 0;
"2" = 0;
"3" = 0;
"4" = 0;
"5" = 0;
"6" = 0;
"7" = 0;
"8" = 0;
"9" = 0;
};
};
width = 283;
},
{
layerId = "44B34E6E-EF7D-473C-A718-23DCC9FE612C";
shapes = (
{
closed = 1;
nodes = (
(228,755,o),
(210,744,o),
(190,744,cs),
(163,744,o),
(126,774,o),
(90,774,cs),
(58,774,o),
(25,754,o),
(5,735,c),
(24,702,l),
(48,721,o),
(60,727,o),
(80,727,cs),
(104,727,o),
(152,694,o),
(188,694,cs),
(213,694,o),
(246,720,o),
(263,738,c),
(245,771,l)
);
},
{
ref = I;
}
);
userData = {
com.hugojourdan.ColorFlow = {
"0" = 0;
"1" = 0;
"10" = 0;
"11" = 0;
"2" = 0;
"3" = 0;
"4" = 0;
"5" = 0;
"6" = 0;
"7" = 0;
"8" = 0;
"9" = 0;
};
};
width = 268;
}
);
unicode = 296;
},
{
color = 4;
glyphname = J;
kernLeft = KO_J;
lastChange = "2023-10-23 17:02:39 +0000";
layers = (
{
anchors = (
{
name = top;
pos = (236,633);
}
);
layerId = m001;
shapes = (
{
closed = 1;
nodes = (
(249,-20,o),
(349,45,o),
(349,190,cs),
(349,612,l),
(149,612,l),
(149,189,ls),
(149,152,o),
(131,135,o),
(98,135,cs),
(77,135,o),
(51,140,o),
(32,150,c),
(-7,4,l),
(26,-11,o),
(70,-20,o),
(123,-20,cs)
);
}
);
userData = {
com.hugojourdan.ColorFlow = {
"0" = 0;
"1" = 0;
"10" = 0;
"11" = 0;
"2" = 0;
"3" = 0;
"4" = 0;
"5" = 0;
"6" = 0;
"7" = 0;
"8" = 0;
"9" = 0;
};
};
width = 390;
},
{
anchors = (
{
name = top;
pos = (224,669);
}
);
layerId = "44B34E6E-EF7D-473C-A718-23DCC9FE612C";
shapes = (
{
closed = 1;
nodes = (
(175,-11,o),
(246,48,o),
(246,170,cs),
(246,612,l),
(192,612,l),
(192,137,ls),
(192,73,o),
(159,32,o),
(108,32,cs),
(77,32,o),
(38,40,o),
(26,46,c),
(13,-1,l),
(33,-6,o),
(57,-11,o),
(79,-11,cs)
);
}
);
userData = {
com.hugojourdan.ColorFlow = {
"0" = 0;
"1" = 0;
"10" = 0;
"11" = 0;
"2" = 0;
"3" = 0;
"4" = 0;
"5" = 0;
"6" = 0;
"7" = 0;
"8" = 0;
"9" = 0;
};
};
width = 333;
},
{
anchors = (
{
name = top;
pos = (236,633);
}
);
associatedMasterId = m001;
layerId = "257FE289-5E10-48F0-9A17-784E82A734B3";
name = "2 de oct. de 23, 11:29";
shapes = (
{
closed = 1;
nodes = (
(249,-20,o),
(349,45,o),
(349,190,cs),
(349,612,l),
(149,612,l),
(149,189,ls),
(149,152,o),
(131,135,o),
(98,135,cs),
(77,135,o),
(53,140,o),
(26,152,c),
(0,1,l),
(28,-12,o),
(70,-20,o),
(123,-20,cs)
);
},
{
closed = 1;
nodes = (
(249,-20,o),
(349,45,o),
(349,190,cs),
(349,612,l),
(149,612,l),
(149,189,ls),
(149,152,o),
(131,135,o),
(98,135,cs),
(77,135,o),
(53,140,o),
(26,152,c),
(0,1,l),
(28,-12,o),
(70,-20,o),
(123,-20,cs)
);
}
);
userData = {
com.hugojourdan.ColorFlow = {
"0" = 0;
"1" = 0;
"10" = 0;
"11" = 0;
"2" = 0;
"3" = 0;
"4" = 0;
"5" = 0;
"6" = 0;
"7" = 0;
"8" = 0;
"9" = 0;
};
};
visible = 1;
width = 390;
},
{
anchors = (
{
name = top;
pos = (224,669);
}
);
associatedMasterId = "44B34E6E-EF7D-473C-A718-23DCC9FE612C";
layerId = "0E57F73D-8DDC-4CB2-BE43-420C6CE342F5";
name = "2 de oct. de 23, 11:55";
shapes = (
{
closed = 1;
nodes = (
(175,-11,o),
(246,48,o),
(246,170,cs),
(246,612,l),
(192,612,l),
(192,137,ls),
(192,73,o),
(159,32,o),
(108,32,cs),
(77,32,o),
(48,38,o),
(25,46,c),
(14,-1,l),
(34,-6,o),
(57,-11,o),
(79,-11,cs)
);
}
);
userData = {
com.hugojourdan.ColorFlow = {
"0" = 0;
"1" = 0;
"10" = 0;
"11" = 0;
"2" = 0;
"3" = 0;
"4" = 0;
"5" = 0;
"6" = 0;
"7" = 0;
"8" = 0;
"9" = 0;
};
};
visible = 1;
width = 333;
}
);
unicode = 74;
},
{
color = 4;
glyphname = K;
kernLeft = KO_H;
kernRight = KO_K;
lastChange = "2023-12-16 20:48:22 +0000";
layers = (
{
anchors = (
{
name = bottom;
pos = (353,0);
},
{
name = top;
pos = (339,612);
}
);
layerId = m001;
shapes = (
{
closed = 1;
nodes = (
(646,0,l),
(438,339,l),
(635,612,l),
(415,612,l),
(241,320,l),
(410,0,l)
);
},
{
closed = 1;
nodes = (
(241,0,l),
(241,612,l),
(41,612,l),
(41,0,l)
);
}
);
userData = {
com.hugojourdan.ColorFlow = {
"0" = 0;
"1" = 0;
"10" = 0;
"11" = 0;
"2" = 0;
"3" = 0;
"4" = 0;
"5" = 0;
"6" = 0;
"7" = 0;
"8" = 0;
"9" = 0;
};
};
width = 638;
},
{
anchors = (
{
name = bottom;
pos = (291,0);
},
{
name = top;
pos = (259,612);
}
);
layerId = "44B34E6E-EF7D-473C-A718-23DCC9FE612C";
shapes = (
{
closed = 1;
nodes = (
(541,0,l),
(226,318,l),
(515,612,l),
(447,612,l),
(161,313,l),
(461,0,l)
);
},
{
closed = 1;
nodes = (
(161,0,l),
(161,612,l),
(107,612,l),
(107,0,l)
);
}
);
userData = {
com.hugojourdan.ColorFlow = {
"0" = 0;
"1" = 0;
"10" = 0;
"11" = 0;
"2" = 0;
"3" = 0;
"4" = 0;
"5" = 0;
"6" = 0;
"7" = 0;
"8" = 0;
"9" = 0;
};
};
width = 550;
}
);
metricLeft = H;
unicode = 75;
userData = {
KernOnName = K;
};
},
{
color = 4;
glyphname = L;
kernLeft = KO_H;
kernRight = KO_L;
lastChange = "2023-12-16 20:48:22 +0000";
layers = (
{
anchors = (
{
name = bottom;
pos = (259,0);
},
{
name = top;
pos = (-73,633);
}
);
layerId = m001;
shapes = (
{
closed = 1;
nodes = (
(459,0,l),
(476,149,l),
(241,148,l),
(241,612,l),
(41,612,l),
(41,0,l)
);
}
);
userData = {
com.hugojourdan.ColorFlow = {
"0" = 0;
"1" = 0;
"10" = 0;
"11" = 0;
"2" = 0;
"3" = 0;
"4" = 0;
"5" = 0;
"6" = 0;
"7" = 0;
"8" = 0;
"9" = 0;
};
};
width = 492;
},
{
anchors = (
{
name = bottom;
pos = (263,0);
},
{
name = top;
pos = (379,669);
}
);
layerId = "44B34E6E-EF7D-473C-A718-23DCC9FE612C";
shapes = (
{
closed = 1;
nodes = (
(413,0,l),
(419,51,l),
(161,46,l),
(161,612,l),
(107,612,l),
(107,0,l)
);
}
);
userData = {
com.hugojourdan.ColorFlow = {
"0" = 0;
"1" = 0;
"10" = 0;
"11" = 0;
"2" = 0;
"3" = 0;
"4" = 0;
"5" = 0;
"6" = 0;
"7" = 0;
"8" = 0;
"9" = 0;
};
};
width = 430;
}
);
metricLeft = H;
unicode = 76;
userData = {
KernOnName = L;
};
},
{
color = 4;
glyphname = Lslash;
lastChange = "2023-10-12 05:38:06 +0000";
layers = (
{
layerId = m001;
shapes = (
{
closed = 1;
nodes = (
(24,324,l),
(24,193,l),
(402,343,l),
(402,474,l)
);
},
{
pos = (38,0);
ref = L;
}
);
userData = {
com.hugojourdan.ColorFlow = {
"0" = 0;
"1" = 0;
"10" = 0;
"11" = 0;
"2" = 0;
"3" = 0;
"4" = 0;
"5" = 0;
"6" = 0;
"7" = 0;
"8" = 0;
"9" = 0;
};
};
width = 507;
},
{
layerId = "44B34E6E-EF7D-473C-A718-23DCC9FE612C";
shapes = (
{
closed = 1;
nodes = (
(9,288,l),
(9,240,l),
(282,358,l),
(282,405,l)
);
},
{
pos = (-13,0);
ref = L;
}
);
userData = {
com.hugojourdan.ColorFlow = {
"0" = 0;
"1" = 0;
"10" = 0;
"11" = 0;
"2" = 0;
"3" = 0;
"4" = 0;
"5" = 0;
"6" = 0;
"7" = 0;
"8" = 0;
"9" = 0;
};
};
width = 430;
}
);
unicode = 321;
},
{
color = 4;
glyphname = M;
kernLeft = KO_M;
kernRight = KO_M;
lastChange = "2023-12-16 20:48:22 +0000";
layers = (
{
anchors = (
{
name = top;
pos = (452,633);
}
);
layerId = m001;
shapes = (
{
closed = 1;
nodes = (
(221,0,l),
(247,335,l),
(354,0,l),
(530,0,l),
(651,341,l),
(676,0,l),
(872,0,l),
(802,612,l),
(586,612,l),
(457,261,l),
(340,612,l),
(109,612,l),
(35,0,l)
);
}
);
userData = {
com.hugojourdan.ColorFlow = {
"0" = 0;
"1" = 0;
"10" = 0;
"11" = 0;
"2" = 0;
"3" = 0;
"4" = 0;
"5" = 0;
"6" = 0;
"7" = 0;
"8" = 0;
"9" = 0;
};
};
width = 907;
},
{
anchors = (
{
name = top;
pos = (383,669);
}
);
layerId = "44B34E6E-EF7D-473C-A718-23DCC9FE612C";
shapes = (
{
closed = 1;
nodes = (
(108,0,l),
(161,545,l),
(365,0,l),
(406,0,l),
(602,553,l),
(657,0,l),
(712,0,l),
(645,612,l),
(575,612,l),
(388,78,l),
(186,612,l),
(124,612,l),
(57,0,l)
);
}
);
userData = {
com.hugojourdan.ColorFlow = {
"0" = 0;
"1" = 0;
"10" = 0;
"11" = 0;
"2" = 0;
"3" = 0;
"4" = 0;
"5" = 0;
"6" = 0;
"7" = 0;
"8" = 0;
"9" = 0;
};
com.typemytype.robofont.guideline.magnetic.fvRuilQBtd = 5;
};
width = 768;
}
);
unicode = 77;
userData = {
KernOnName = M;
};
},
{
color = 4;
glyphname = N;
kernLeft = KO_H;
kernRight = KO_H;
lastChange = "2023-12-16 20:48:22 +0000";
layers = (
{
anchors = (
{
name = bottom;
pos = (326,0);
},
{
name = top;
pos = (343,633);
}
);
layerId = m001;
shapes = (
{
closed = 1;
nodes = (
(221,0,l),
(221,303,l),
(430,0,l),
(611,0,l),
(611,612,l),
(431,612,l),
(431,321,l),
(240,612,l),
(41,612,l),
(41,0,l)
);
}
);
userData = {
com.hugojourdan.ColorFlow = {
"0" = 0;
"1" = 0;
"10" = 0;
"11" = 0;
"2" = 0;
"3" = 0;
"4" = 0;
"5" = 0;
"6" = 0;
"7" = 0;
"8" = 0;
"9" = 0;
};
};
width = 652;
},
{
anchors = (
{
name = bottom;
pos = (330,0);
},
{
name = top;
pos = (324,669);
}
);
layerId = "44B34E6E-EF7D-473C-A718-23DCC9FE612C";
shapes = (
{
closed = 1;
nodes = (
(152,0,l),
(152,536,l),
(503,0,l),
(553,0,l),
(553,612,l),
(508,612,l),
(508,80,l),
(160,612,l),
(107,612,l),
(107,0,l)
);
}
);
userData = {
com.hugojourdan.ColorFlow = {
"0" = 0;
"1" = 0;
"10" = 0;
"11" = 0;
"2" = 0;
"3" = 0;
"4" = 0;
"5" = 0;
"6" = 0;
"7" = 0;
"8" = 0;
"9" = 0;
};
};
width = 660;
}
);
metricLeft = H;
metricRight = H;
unicode = 78;
userData = {
KernOnName = N;
};
},
{
color = 4;
glyphname = Eng;
kernLeft = KO_H;
lastChange = "2023-11-03 12:14:14 +0000";
layers = (
{
layerId = m001;
shapes = (
{
closed = 1;
nodes = (
(421,74,l),
(426,15,ls),
(429,-21,o),
(404,-34,o),
(381,-39,cs),
(346,-46,o),
(314,-32,o),
(301,-23,c),
(265,-172,l),
(291,-183,o),
(341,-191,o),
(396,-190,cs),
(512,-188,o),
(611,-123,o),
(611,-10,cs),
(611,74,l)
);
},
{
ref = N;
}
);
userData = {
com.hugojourdan.ColorFlow = {
"0" = 0;
"1" = 0;
"10" = 0;
"11" = 0;
"2" = 0;
"3" = 0;
"4" = 0;
"5" = 0;
"6" = 0;
"7" = 0;
"8" = 0;
"9" = 0;
};
};
width = 652;
},
{
layerId = "44B34E6E-EF7D-473C-A718-23DCC9FE612C";
shapes = (
{
closed = 1;
nodes = (
(503,59,l),
(503,-43,ls),
(503,-109,o),
(476,-133,o),
(432,-135,cs),
(404,-137,o),
(375,-130,o),
(344,-117,c),
(333,-161,l),
(351,-169,o),
(376,-175,o),
(416,-175,cs),
(485,-175,o),
(553,-132,o),
(553,-18,cs),
(553,59,l)
);
},
{
ref = N;
}
);
userData = {
com.hugojourdan.ColorFlow = {
"0" = 0;
"1" = 0;
"10" = 0;
"11" = 0;
"2" = 0;
"3" = 0;
"4" = 0;
"5" = 0;
"6" = 0;
"7" = 0;
"8" = 0;
"9" = 0;
};
};
width = 660;
},
{
associatedMasterId = "44B34E6E-EF7D-473C-A718-23DCC9FE612C";
layerId = "793150D4-A7AB-4505-A2BF-C8911BCCB652";
name = "12 de oct. de 23, 0:21";
shapes = (
{
closed = 1;
nodes = (
(509,59,l),
(509,-43,ls),
(509,-109,o),
(476,-136,o),
(423,-136,cs),
(404,-136,o),
(373,-128,o),
(346,-117,c),
(331,-161,l),
(349,-167,o),
(384,-175,o),
(396,-175,cs),
(485,-175,o),
(553,-132,o),
(553,-18,cs),
(553,59,l)
);
},
{
ref = N;
}
);
userData = {
com.hugojourdan.ColorFlow = {
"0" = 0;
"1" = 0;
"10" = 0;
"11" = 0;
"2" = 0;
"3" = 0;
"4" = 0;
"5" = 0;
"6" = 0;
"7" = 0;
"8" = 0;
"9" = 0;
};
};
visible = 1;
width = 660;
},
{
associatedMasterId = m001;
layerId = "78DF6A16-60C3-4CC5-A6A1-F83C1695E2ED";
name = "12 de oct. de 23, 0:21";
shapes = (
{
closed = 1;
nodes = (
(421,74,l),
(421,15,ls),
(421,-25,o),
(404,-42,o),
(381,-42,cs),
(347,-42,o),
(316,-31,o),
(295,-19,c),
(273,-172,l),
(299,-183,o),
(341,-191,o),
(396,-190,cs),
(512,-188,o),
(611,-123,o),
(611,-10,cs),
(611,74,l)
);
},
{
ref = N;
}
);
userData = {
com.hugojourdan.ColorFlow = {
"0" = 0;
"1" = 0;
"10" = 0;
"11" = 0;
"2" = 0;
"3" = 0;
"4" = 0;
"5" = 0;
"6" = 0;
"7" = 0;
"8" = 0;
"9" = 0;
};
};
visible = 1;
width = 653;
}
);
metricLeft = N;
metricRight = N;
unicode = 330;
},
{
color = 4;
glyphname = O;
kernLeft = KO_O;
lastChange = "2023-12-16 20:48:22 +0000";
layers = (
{
anchors = (
{
name = top;
pos = (347,633);
}
);
layerId = m001;
shapes = (
{
closed = 1;
nodes = (
(532,-20,o),
(673,110,o),
(673,318,cs),
(673,512,o),
(560,632,o),
(375,632,cs),
(163,632,o),
(21,502,o),
(21,294,cs),
(21,99,o),
(135,-20,o),
(321,-20,cs)
);
},
{
closed = 1;
nodes = (
(278,123,o),
(227,179,o),
(227,322,cs),
(227,453,o),
(265,489,o),
(328,489,cs),
(416,489,o),
(467,432,o),
(467,290,cs),
(467,157,o),
(430,123,o),
(368,123,cs)
);
}
);
userData = {
com.hugojourdan.ColorFlow = {
"0" = 0;
"1" = 0;
"10" = 0;
"11" = 0;
"2" = 0;
"3" = 0;
"4" = 0;
"5" = 0;
"6" = 0;
"7" = 0;
"8" = 0;
"9" = 0;
};
};
width = 694;
},
{
anchors = (
{
name = top;
pos = (325,669);
}
);
layerId = "44B34E6E-EF7D-473C-A718-23DCC9FE612C";
shapes = (
{
closed = 1;
nodes = (
(474,-10,o),
(600,109,o),
(600,317,cs),
(600,512,o),
(487,621,o),
(345,621,cs),
(178,621,o),
(53,502,o),
(53,293,cs),
(53,98,o),
(165,-10,o),
(306,-10,cs)
);
},
{
closed = 1;
nodes = (
(209,34,o),
(107,109,o),
(107,321,cs),
(107,493,o),
(207,577,o),
(313,577,cs),
(442,577,o),
(547,501,o),
(547,289,cs),
(547,116,o),
(445,34,o),
(338,34,cs)
);
}
);
userData = {
com.hugojourdan.ColorFlow = {
"0" = 0;
"1" = 0;
"10" = 0;
"11" = 0;
"2" = 0;
"3" = 0;
"4" = 0;
"5" = 0;
"6" = 0;
"7" = 0;
"8" = 0;
"9" = 0;
};
};
width = 654;
}
);
unicode = 79;
userData = {
KernOnName = O;
};
},
{
color = 4;
glyphname = Oslash;
lastChange = "2023-10-12 05:38:06 +0000";
layers = (
{
anchors = (
{
name = top;
pos = (378,633);
}
);
layerId = m001;
shapes = (
{
closed = 1;
nodes = (
(225,-83,l),
(604,693,l),
(471,693,l),
(92,-83,l)
);
},
{
ref = O;
}
);
userData = {
com.hugojourdan.ColorFlow = {
"0" = 0;
"1" = 0;
"10" = 0;
"11" = 0;
"2" = 0;
"3" = 0;
"4" = 0;
"5" = 0;
"6" = 0;
"7" = 0;
"8" = 0;
"9" = 0;
};
};
width = 694;
},
{
anchors = (
{
name = top;
pos = (301,669);
}
);
layerId = "44B34E6E-EF7D-473C-A718-23DCC9FE612C";
shapes = (
{
closed = 1;
nodes = (
(163,-83,l),
(512,693,l),
(471,693,l),
(122,-83,l)
);
},
{
ref = O;
}
);
userData = {
com.hugojourdan.ColorFlow = {
"0" = 0;
"1" = 0;
"10" = 0;
"11" = 0;
"2" = 0;
"3" = 0;
"4" = 0;
"5" = 0;
"6" = 0;
"7" = 0;
"8" = 0;
"9" = 0;
};
};
width = 654;
}
);
metricLeft = O;
metricRight = O;
unicode = 216;
},
{
color = 4;
glyphname = OE;
lastChange = "2023-11-03 12:14:21 +0000";
layers = (
{
anchors = (
{
name = top;
pos = (439,612);
}
);
layerId = m001;
shapes = (
{
closed = 1;
nodes = (
(286,123,o),
(227,166,o),
(227,322,cs),
(227,448,o),
(267,489,o),
(330,489,cs),
(377,489,o),
(421,469,o),
(440,433,c),
(513,608,l),
(482,618,o),
(431,632,o),
(377,632,cs),
(161,632,o),
(21,502,o),
(21,294,cs),
(21,99,o),
(135,-20,o),
(320,-20,cs),
(381,-20,o),
(454,-8,o),
(514,20,c),
(452,169,l),
(420,123,o),
(383,123,o),
(369,123,cs)
);
},
{
pos = (395,0);
ref = E;
}
);
userData = {
com.hugojourdan.ColorFlow = {
"0" = 0;
"1" = 0;
"10" = 0;
"11" = 0;
"2" = 0;
"3" = 0;
"4" = 0;
"5" = 0;
"6" = 0;
"7" = 0;
"8" = 0;
"9" = 0;
};
};
width = 883;
},
{
anchors = (
{
name = top;
pos = (417,612);
}
);
layerId = "44B34E6E-EF7D-473C-A718-23DCC9FE612C";
shapes = (
{
closed = 1;
nodes = (
(206,35,o),
(107,115,o),
(107,322,cs),
(107,499,o),
(205,577,o),
(311,577,cs),
(377,577,o),
(413,563,o),
(452,536,c),
(468,584,l),
(433,607,o),
(380,621,o),
(337,621,cs),
(183,621,o),
(53,502,o),
(53,294,cs),
(53,99,o),
(165,-9,o),
(305,-9,cs),
(374,-9,o),
(419,12,o),
(456,43,c),
(456,73,l),
(434,56,o),
(398,35,o),
(337,35,cs)
);
},
{
pos = (322,0);
ref = E;
}
);
userData = {
com.hugojourdan.ColorFlow = {
"0" = 0;
"1" = 0;
"10" = 0;
"11" = 0;
"2" = 0;
"3" = 0;
"4" = 0;
"5" = 0;
"6" = 0;
"7" = 0;
"8" = 0;
"9" = 0;
};
};
width = 825;
}
);
metricLeft = O;
metricRight = E;
unicode = 338;
},
{
color = 4;
glyphname = P;
kernLeft = KO_H;
kernRight = KO_P;
lastChange = "2023-10-12 05:38:06 +0000";
layers = (
{
layerId = m001;
shapes = (
{
closed = 1;
nodes = (
(241,0,l),
(241,195,l),
(247,194,o),
(252,194,o),
(256,194,cs),
(415,194,o),
(544,275,o),
(544,419,cs),
(544,543,o),
(452,612,o),
(303,612,cs),
(41,612,l),
(41,0,l)
);
},
{
closed = 1;
nodes = (
(241,485,l),
(254,484,o),
(266,483,o),
(277,480,cs),
(322,470,o),
(341,441,o),
(341,403,cs),
(341,357,o),
(318,328,o),
(254,328,cs),
(246,328,o),
(243,328,o),
(241,328,c)
);
}
);
userData = {
com.hugojourdan.ColorFlow = {
"0" = 0;
"1" = 0;
"10" = 0;
"11" = 0;
"2" = 0;
"3" = 0;
"4" = 0;
"5" = 0;
"6" = 0;
"7" = 0;
"8" = 0;
"9" = 0;
};
};
width = 550;
},
{
layerId = "44B34E6E-EF7D-473C-A718-23DCC9FE612C";
shapes = (
{
closed = 1;
nodes = (
(161,0,l),
(161,252,l),
(180,250,o),
(200,249,o),
(224,249,cs),
(353,249,o),
(467,315,o),
(467,449,cs),
(467,550,o),
(394,612,o),
(263,612,cs),
(107,612,l),
(107,0,l)
);
},
{
closed = 1;
nodes = (
(161,569,l),
(189,569,o),
(216,569,o),
(244,569,cs),
(350,569,o),
(410,519,o),
(410,429,cs),
(410,331,o),
(348,292,o),
(259,292,cs),
(217,292,o),
(189,294,o),
(161,297,c)
);
}
);
userData = {
com.hugojourdan.ColorFlow = {
"0" = 0;
"1" = 0;
"10" = 0;
"11" = 0;
"2" = 0;
"3" = 0;
"4" = 0;
"5" = 0;
"6" = 0;
"7" = 0;
"8" = 0;
"9" = 0;
};
};
width = 492;
}
);
metricLeft = H;
unicode = 80;
},
{
color = 4;
glyphname = Thorn;
kernLeft = KO_H;
lastChange = "2023-10-12 05:40:06 +0000";
layers = (
{
layerId = m001;
shapes = (
{
closed = 1;
nodes = (
(241,0,l),
(241,109,l),
(247,108,o),
(252,108,o),
(256,108,cs),
(415,108,o),
(544,189,o),
(544,333,cs),
(544,456,o),
(452,526,o),
(303,526,cs),
(241,526,l),
(241,612,l),
(41,612,l),
(41,0,l)
);
},
{
closed = 1;
nodes = (
(241,398,l),
(259,397,o),
(274,395,o),
(287,391,cs),
(325,378,o),
(341,352,o),
(341,317,cs),
(341,271,o),
(318,242,o),
(248,242,cs),
(246,242,o),
(243,242,o),
(241,242,c)
);
}
);
userData = {
com.hugojourdan.ColorFlow = {
"0" = 0;
"1" = 0;
"10" = 0;
"11" = 0;
"2" = 0;
"3" = 0;
"4" = 0;
"5" = 0;
"6" = 0;
"7" = 0;
"8" = 0;
"9" = 0;
};
};
width = 550;
},
{
layerId = "44B34E6E-EF7D-473C-A718-23DCC9FE612C";
shapes = (
{
closed = 1;
nodes = (
(161,0,l),
(161,136,l),
(178,135,o),
(197,134,o),
(224,134,cs),
(353,134,o),
(467,200,o),
(467,333,cs),
(467,434,o),
(394,496,o),
(263,496,cs),
(161,496,l),
(161,612,l),
(107,612,l),
(107,0,l)
);
},
{
closed = 1;
nodes = (
(161,453,l),
(189,453,o),
(216,453,o),
(244,453,cs),
(350,453,o),
(410,403,o),
(410,313,cs),
(410,216,o),
(348,176,o),
(259,176,cs),
(218,176,o),
(189,178,o),
(161,181,c)
);
}
);
userData = {
com.hugojourdan.ColorFlow = {
"0" = 0;
"1" = 0;
"10" = 0;
"11" = 0;
"2" = 0;
"3" = 0;
"4" = 0;
"5" = 0;
"6" = 0;
"7" = 0;
"8" = 0;
"9" = 0;
};
};
width = 492;
}
);
metricLeft = P;
unicode = 222;
},
{
color = 4;
glyphname = Q;
lastChange = "2023-10-12 05:38:06 +0000";
layers = (
{
layerId = m001;
shapes = (
{
closed = 1;
nodes = (
(591,-225,o),
(650,-198,o),
(673,-175,c),
(673,-23,l),
(647,-49,o),
(603,-68,o),
(564,-68,cs),
(414,-68,o),
(353,-26,o),
(246,-26,cs),
(201,-26,o),
(164,-36,o),
(103,-68,c),
(146,-192,l),
(184,-165,o),
(218,-149,o),
(249,-149,cs),
(310,-149,o),
(413,-225,o),
(541,-225,cs)
);
},
{
ref = O;
}
);
userData = {
com.hugojourdan.ColorFlow = {
"0" = 0;
"1" = 0;
"10" = 0;
"11" = 0;
"2" = 0;
"3" = 0;
"4" = 0;
"5" = 0;
"6" = 0;
"7" = 0;
"8" = 0;
"9" = 0;
};
};
width = 694;
},
{
layerId = "44B34E6E-EF7D-473C-A718-23DCC9FE612C";
shapes = (
{
closed = 1;
nodes = (
(529,-159,o),
(562,-158,o),
(589,-139,c),
(589,-85,l),
(567,-100,o),
(537,-104,o),
(509,-104,cs),
(454,-104,o),
(334,-52,o),
(246,-52,cs),
(216,-52,o),
(171,-68,o),
(149,-86,c),
(165,-131,l),
(188,-110,o),
(205,-98,o),
(245,-98,cs),
(310,-98,o),
(456,-159,o),
(505,-159,cs)
);
},
{
ref = O;
}
);
userData = {
com.hugojourdan.ColorFlow = {
"0" = 0;
"1" = 0;
"10" = 0;
"11" = 0;
"2" = 0;
"3" = 0;
"4" = 0;
"5" = 0;
"6" = 0;
"7" = 0;
"8" = 0;
"9" = 0;
};
};
width = 654;
},
{
associatedMasterId = m001;
layerId = "4708CB5E-824F-4756-A604-F65DF635D3D2";
name = "7 de oct. de 23, 11:15";
shapes = (
{
closed = 1;
nodes = (
(591,-225,o),
(650,-198,o),
(673,-175,c),
(673,-23,l),
(647,-49,o),
(603,-68,o),
(564,-68,cs),
(414,-68,o),
(353,-26,o),
(246,-26,cs),
(201,-26,o),
(166,-36,o),
(105,-67,c),
(144,-193,l),
(182,-165,o),
(218,-149,o),
(249,-149,cs),
(310,-149,o),
(413,-225,o),
(541,-225,cs)
);
},
{
ref = O;
}
);
userData = {
com.hugojourdan.ColorFlow = {
"0" = 0;
"1" = 0;
"10" = 0;
"11" = 0;
"2" = 0;
"3" = 0;
"4" = 0;
"5" = 0;
"6" = 0;
"7" = 0;
"8" = 0;
"9" = 0;
};
};
visible = 1;
width = 694;
},
{
associatedMasterId = "44B34E6E-EF7D-473C-A718-23DCC9FE612C";
layerId = "0BE5A6EF-DCA7-4F78-9EB1-B02AEFED6F41";
name = "7 de oct. de 23, 11:15";
shapes = (
{
closed = 1;
nodes = (
(529,-159,o),
(562,-158,o),
(589,-139,c),
(589,-85,l),
(567,-100,o),
(537,-104,o),
(509,-104,cs),
(454,-104,o),
(334,-52,o),
(246,-52,cs),
(216,-52,o),
(170,-68,o),
(148,-86,c),
(166,-131,l),
(189,-110,o),
(205,-98,o),
(245,-98,cs),
(310,-98,o),
(456,-159,o),
(505,-159,cs)
);
},
{
ref = O;
}
);
userData = {
com.hugojourdan.ColorFlow = {
"0" = 0;
"1" = 0;
"10" = 0;
"11" = 0;
"2" = 0;
"3" = 0;
"4" = 0;
"5" = 0;
"6" = 0;
"7" = 0;
"8" = 0;
"9" = 0;
};
};
visible = 1;
width = 654;
}
);
metricLeft = O;
unicode = 81;
},
{
color = 4;
glyphname = R;
kernLeft = KO_H;
lastChange = "2023-12-16 20:48:22 +0000";
layers = (
{
anchors = (
{
name = bottom;
pos = (316,0);
},
{
name = top;
pos = (324,633);
}
);
layerId = m001;
shapes = (
{
closed = 1;
nodes = (
(241,0,l),
(241,221,l),
(244,221,o),
(247,221,o),
(250,221,cs),
(261,221,o),
(271,221,o),
(282,222,c),
(380,0,l),
(593,0,l),
(452,271,l),
(511,307,o),
(549,360,o),
(549,428,cs),
(549,550,o),
(457,612,o),
(314,612,cs),
(41,612,l),
(41,0,l)
);
},
{
closed = 1;
nodes = (
(265,342,o),
(252,343,o),
(241,344,c),
(241,485,l),
(255,484,o),
(268,482,o),
(278,480,cs),
(333,466,o),
(346,432,o),
(346,400,cs),
(346,363,o),
(320,342,o),
(278,342,cs)
);
}
);
userData = {
com.hugojourdan.ColorFlow = {
"0" = 0;
"1" = 0;
"10" = 0;
"11" = 0;
"2" = 0;
"3" = 0;
"4" = 0;
"5" = 0;
"6" = 0;
"7" = 0;
"8" = 0;
"9" = 0;
};
};
width = 587;
},
{
anchors = (
{
name = bottom;
pos = (290,0);
},
{
name = top;
pos = (262,669);
}
);
layerId = "44B34E6E-EF7D-473C-A718-23DCC9FE612C";
shapes = (
{
closed = 1;
nodes = (
(161,0,l),
(161,267,l),
(187,265,o),
(205,264,o),
(217,264,cs),
(246,264,o),
(265,266,o),
(281,269,c),
(427,0,l),
(495,0,l),
(332,284,l),
(395,312,o),
(444,370,o),
(444,456,cs),
(444,550,o),
(377,612,o),
(252,612,cs),
(107,612,l),
(107,0,l)
);
},
{
closed = 1;
nodes = (
(221,310,o),
(191,312,o),
(161,315,c),
(161,566,l),
(194,568,o),
(226,569,o),
(256,569,cs),
(330,569,o),
(389,524,o),
(389,432,cs),
(389,344,o),
(325,310,o),
(256,310,cs)
);
}
);
userData = {
com.hugojourdan.ColorFlow = {
"0" = 0;
"1" = 0;
"10" = 0;
"11" = 0;
"2" = 0;
"3" = 0;
"4" = 0;
"5" = 0;
"6" = 0;
"7" = 0;
"8" = 0;
"9" = 0;
};
};
width = 521;
}
);
metricLeft = H;
unicode = 82;
userData = {
KernOnName = R;
};
},
{
color = 4;
glyphname = S;
kernLeft = KO_S;
kernRight = KO_S;
lastChange = "2023-12-16 20:48:22 +0000";
layers = (
{
anchors = (
{
name = bottom;
pos = (256,0);
},
{
name = top;
pos = (256,633);
}
);
layerId = m001;
shapes = (
{
closed = 1;
nodes = (
(380,-20,o),
(491,65,o),
(491,206,cs),
(491,314,o),
(424,357,o),
(297,393,cs),
(220,415,o),
(218,432,o),
(218,447,cs),
(218,466,o),
(230,478,o),
(252,478,cs),
(308,478,o),
(391,455,o),
(434,436,c),
(480,600,l),
(425,622,o),
(344,632,o),
(288,632,cs),
(122,632,o),
(28,548,o),
(28,420,cs),
(28,326,o),
(78,266,o),
(220,220,cs),
(276,202,o),
(291,195,o),
(291,173,cs),
(291,156,o),
(284,137,o),
(257,137,cs),
(187,137,o),
(99,169,o),
(58,187,c),
(14,17,l),
(68,-5,o),
(148,-20,o),
(237,-20,cs)
);
}
);
userData = {
com.hugojourdan.ColorFlow = {
"0" = 0;
"1" = 0;
"10" = 0;
"11" = 0;
"2" = 0;
"3" = 0;
"4" = 0;
"5" = 0;
"6" = 0;
"7" = 0;
"8" = 0;
"9" = 0;
};
};
width = 503;
},
{
anchors = (
{
name = bottom;
pos = (230,0);
},
{
name = top;
pos = (230,669);
}
);
layerId = "44B34E6E-EF7D-473C-A718-23DCC9FE612C";
shapes = (
{
closed = 1;
nodes = (
(329,-11,o),
(407,59,o),
(407,165,cs),
(407,225,o),
(387,276,o),
(257,337,cs),
(162,381,o),
(120,410,o),
(120,479,cs),
(120,545,o),
(161,580,o),
(237,580,cs),
(293,580,o),
(328,571,o),
(385,552,c),
(399,601,l),
(378,608,o),
(333,621,o),
(258,621,cs),
(141,621,o),
(68,552,o),
(68,467,cs),
(68,391,o),
(112,340,o),
(213,296,cs),
(335,244,o),
(357,205,o),
(357,139,cs),
(357,66,o),
(295,30,o),
(217,30,cs),
(165,30,o),
(127,39,o),
(68,63,c),
(54,12,l),
(83,0,o),
(148,-11,o),
(179,-11,cs)
);
}
);
userData = {
com.hugojourdan.ColorFlow = {
"0" = 0;
"1" = 0;
"10" = 0;
"11" = 0;
"2" = 0;
"3" = 0;
"4" = 0;
"5" = 0;
"6" = 0;
"7" = 0;
"8" = 0;
"9" = 0;
};
};
width = 471;
},
{
anchors = (
{
name = bottom;
pos = (256,0);
},
{
name = top;
pos = (256,633);
}
);
associatedMasterId = m001;
layerId = "D5FF577B-6934-4F63-A1F9-BF7A927E1070";
name = "6 de oct. de 23, 23:36";
shapes = (
{
closed = 1;
nodes = (
(380,-20,o),
(491,65,o),
(491,206,cs),
(491,314,o),
(424,357,o),
(297,393,cs),
(220,415,o),
(218,432,o),
(218,447,cs),
(218,466,o),
(230,478,o),
(252,478,cs),
(308,478,o),
(395,454,o),
(438,435,c),
(476,601,l),
(421,623,o),
(344,632,o),
(288,632,cs),
(122,632,o),
(28,548,o),
(28,420,cs),
(28,326,o),
(78,266,o),
(220,220,cs),
(276,202,o),
(291,195,o),
(291,173,cs),
(291,156,o),
(284,137,o),
(257,137,cs),
(187,137,o),
(99,170,o),
(50,192,c),
(23,14,l),
(71,-5,o),
(148,-20,o),
(237,-20,cs)
);
}
);
userData = {
com.hugojourdan.ColorFlow = {
"0" = 0;
"1" = 0;
"10" = 0;
"11" = 0;
"2" = 0;
"3" = 0;
"4" = 0;
"5" = 0;
"6" = 0;
"7" = 0;
"8" = 0;
"9" = 0;
};
};
visible = 1;
width = 503;
},
{
anchors = (
{
name = bottom;
pos = (230,0);
},
{
name = top;
pos = (230,669);
}
);
associatedMasterId = "44B34E6E-EF7D-473C-A718-23DCC9FE612C";
layerId = "37FAA845-7116-4D42-B82F-E964D6B40233";
name = "6 de oct. de 23, 23:36";
shapes = (
{
closed = 1;
nodes = (
(329,-11,o),
(407,59,o),
(407,165,cs),
(407,225,o),
(387,276,o),
(257,337,cs),
(162,381,o),
(120,410,o),
(120,479,cs),
(120,545,o),
(161,580,o),
(237,580,cs),
(293,580,o),
(329,571,o),
(383,552,c),
(399,601,l),
(378,608,o),
(333,621,o),
(258,621,cs),
(141,621,o),
(68,552,o),
(68,467,cs),
(68,391,o),
(112,340,o),
(213,296,cs),
(335,244,o),
(357,205,o),
(357,139,cs),
(357,66,o),
(295,30,o),
(217,30,cs),
(165,30,o),
(125,40,o),
(69,62,c),
(53,12,l),
(82,0,o),
(148,-11,o),
(179,-11,cs)
);
}
);
userData = {
com.hugojourdan.ColorFlow = {
"0" = 0;
"1" = 0;
"10" = 0;
"11" = 0;
"2" = 0;
"3" = 0;
"4" = 0;
"5" = 0;
"6" = 0;
"7" = 0;
"8" = 0;
"9" = 0;
};
};
visible = 1;
width = 471;
}
);
unicode = 83;
userData = {
KernOnName = S;
};
},
{
color = 3;
glyphname = Germandbls;
kernLeft = KO_H;
lastChange = "2024-02-13 15:28:09 +0000";
layers = (
{
layerId = "44B34E6E-EF7D-473C-A718-23DCC9FE612C";
shapes = (
{
closed = 1;
nodes = (
(107,0,l),
(159,0,l),
(159,586,l),
(140,570,l),
(451,570,l),
(393,497,o),
(343,435,o),
(283,358,c),
(295,317,l),
(386,326,o),
(509,307,o),
(509,170,cs),
(509,23,o),
(350,28,o),
(250,59,c),
(234,8,l),
(393,-21,o),
(563,31,o),
(563,177,cs),
(563,298,o),
(481,354,o),
(344,356,c),
(407,434,o),
(457,492,o),
(517,568,c),
(517,612,l),
(107,612,l)
);
}
);
userData = {
com.hugojourdan.ColorFlow = {
"0" = 0;
"1" = 0;
"10" = 0;
"11" = 0;
"2" = 0;
"3" = 0;
"4" = 0;
"5" = 0;
"6" = 0;
"7" = 0;
"8" = 0;
"9" = 0;
};
};
width = 618;
},
{
layerId = m001;
shapes = (
{
closed = 1;
nodes = (
(41,0,l),
(239,0,l),
(239,516,l),
(224,486,l),
(441,486,l),
(409,453,o),
(348,391,o),
(319,359,c),
(356,268,l),
(408,261,o),
(461,236,o),
(461,189,cs),
(461,144,o),
(403,126,o),
(313,143,c),
(295,8,l),
(425,-16,o),
(663,0,o),
(663,177,cs),
(663,268,o),
(609,329,o),
(515,364,c),
(553,402,o),
(589,443,o),
(628,483,c),
(627,612,l),
(41,612,l)
);
}
);
userData = {
com.hugojourdan.ColorFlow = {
"0" = 0;
"1" = 0;
"10" = 0;
"11" = 0;
"2" = 0;
"3" = 0;
"4" = 0;
"5" = 0;
"6" = 0;
"7" = 0;
"8" = 0;
"9" = 0;
};
};
width = 663;
}
);
metricLeft = B;
metricRight = B;
unicode = 7838;
},
{
color = 4;
glyphname = T;
kernLeft = KO_T;
kernRight = KO_T;
lastChange = "2023-12-16 20:48:22 +0000";
layers = (
{
anchors = (
{
name = bottom;
pos = (267,0);
},
{
name = center;
pos = (252,306);
},
{
name = top;
pos = (269,633);
}
);
layerId = m001;
shapes = (
{
closed = 1;
nodes = (
(367,0,l),
(367,464,l),
(521,462,l),
(541,612,l),
(10,612,l),
(-10,462,l),
(167,465,l),
(167,0,l)
);
}
);
userData = {
com.hugojourdan.ColorFlow = {
"0" = 0;
"1" = 0;
"10" = 0;
"11" = 0;
"2" = 0;
"3" = 0;
"4" = 0;
"5" = 0;
"6" = 0;
"7" = 0;
"8" = 0;
"9" = 0;
};
};
width = 527;
},
{
anchors = (
{
name = bottom;
pos = (245,0);
},
{
name = center;
pos = (248,306);
},
{
name = top;
pos = (243,669);
}
);
layerId = "44B34E6E-EF7D-473C-A718-23DCC9FE612C";
shapes = (
{
closed = 1;
nodes = (
(273,0,l),
(273,568,l),
(469,564,l),
(475,612,l),
(21,612,l),
(15,564,l),
(219,568,l),
(219,0,l)
);
}
);
userData = {
com.hugojourdan.ColorFlow = {
"0" = 0;
"1" = 0;
"10" = 0;
"11" = 0;
"2" = 0;
"3" = 0;
"4" = 0;
"5" = 0;
"6" = 0;
"7" = 0;
"8" = 0;
"9" = 0;
};
};
width = 491;
},
{
anchors = (
{
name = bottom;
pos = (267,0);
},
{
name = center;
pos = (252,306);
},
{
name = top;
pos = (269,633);
}
);
associatedMasterId = m001;
layerId = "2F6C06E3-4494-4719-B6F5-4B4D87F8264B";
name = "4 de oct. de 23, 23:04";
shapes = (
{
closed = 1;
nodes = (
(367,0,l),
(367,464,l),
(520,462,l),
(541,612,l),
(10,612,l),
(-14,462,l),
(167,465,l),
(167,0,l)
);
}
);
userData = {
com.hugojourdan.ColorFlow = {
"0" = 0;
"1" = 0;
"10" = 0;
"11" = 0;
"2" = 0;
"3" = 0;
"4" = 0;
"5" = 0;
"6" = 0;
"7" = 0;
"8" = 0;
"9" = 0;
};
};
width = 527;
},
{
anchors = (
{
name = bottom;
pos = (245,0);
},
{
name = center;
pos = (248,306);
},
{
name = top;
pos = (243,669);
}
);
associatedMasterId = "44B34E6E-EF7D-473C-A718-23DCC9FE612C";
layerId = "E6102781-B764-4ACB-AD04-5E635D33A88B";
name = "4 de oct. de 23, 23:04";
shapes = (
{
closed = 1;
nodes = (
(273,0,l),
(273,568,l),
(469,564,l),
(475,612,l),
(21,612,l),
(16,564,l),
(219,568,l),
(219,0,l)
);
}
);
userData = {
com.hugojourdan.ColorFlow = {
"0" = 0;
"1" = 0;
"10" = 0;
"11" = 0;
"2" = 0;
"3" = 0;
"4" = 0;
"5" = 0;
"6" = 0;
"7" = 0;
"8" = 0;
"9" = 0;
};
};
width = 491;
}
);
unicode = 84;
userData = {
KernOnName = T;
};
},
{
color = 4;
glyphname = Tbar;
lastChange = "2023-10-12 05:40:06 +0000";
layers = (
{
layerId = m001;
shapes = (
{
closed = 1;
nodes = (
(31,366,l),
(5,254,l),
(5,239,l),
(472,239,l),
(498,351,l),
(498,366,l)
);
},
{
ref = T;
}
);
userData = {
com.hugojourdan.ColorFlow = {
"0" = 0;
"1" = 0;
"10" = 0;
"11" = 0;
"2" = 0;
"3" = 0;
"4" = 0;
"5" = 0;
"6" = 0;
"7" = 0;
"8" = 0;
"9" = 0;
};
};
width = 527;
},
{
layerId = "44B34E6E-EF7D-473C-A718-23DCC9FE612C";
shapes = (
{
closed = 1;
nodes = (
(82,351,l),
(67,323,l),
(67,308,l),
(414,308,l),
(429,336,l),
(429,351,l)
);
},
{
ref = T;
}
);
userData = {
com.hugojourdan.ColorFlow = {
"0" = 0;
"1" = 0;
"10" = 0;
"11" = 0;
"2" = 0;
"3" = 0;
"4" = 0;
"5" = 0;
"6" = 0;
"7" = 0;
"8" = 0;
"9" = 0;
};
};
width = 491;
}
);
metricLeft = T;
metricRight = T;
unicode = 358;
},
{
color = 4;
glyphname = U;
kernRight = KO_U;
lastChange = "2023-12-16 20:48:22 +0000";
layers = (
{
anchors = (
{
name = ogonek;
pos = (-103,-58);
},
{
name = top;
pos = (316,633);
}
);
layerId = m001;
shapes = (
{
closed = 1;
nodes = (
(480,-20,o),
(597,73,o),
(597,226,cs),
(597,612,l),
(402,612,l),
(402,209,ls),
(402,172,o),
(367,150,o),
(332,150,cs),
(269,150,o),
(235,185,o),
(235,246,cs),
(235,612,l),
(35,612,l),
(35,215,ls),
(35,73,o),
(113,-20,o),
(306,-20,cs)
);
}
);
userData = {
com.hugojourdan.ColorFlow = {
"0" = 0;
"1" = 0;
"10" = 0;
"11" = 0;
"2" = 0;
"3" = 0;
"4" = 0;
"5" = 0;
"6" = 0;
"7" = 0;
"8" = 0;
"9" = 0;
};
};
width = 633;
},
{
anchors = (
{
name = ogonek;
pos = (787,34);
},
{
name = top;
pos = (320,669);
}
);
layerId = "44B34E6E-EF7D-473C-A718-23DCC9FE612C";
shapes = (
{
closed = 1;
nodes = (
(461,-10,o),
(539,73,o),
(539,226,cs),
(539,612,l),
(490,612,l),
(490,202,ls),
(490,88,o),
(429,36,o),
(332,36,cs),
(229,36,o),
(155,83,o),
(155,227,cs),
(155,612,l),
(101,612,l),
(101,193,ls),
(101,51,o),
(196,-10,o),
(310,-10,cs)
);
}
);
userData = {
com.hugojourdan.ColorFlow = {
"0" = 0;
"1" = 0;
"10" = 0;
"11" = 0;
"2" = 0;
"3" = 0;
"4" = 0;
"5" = 0;
"6" = 0;
"7" = 0;
"8" = 0;
"9" = 0;
};
};
width = 640;
}
);
unicode = 85;
userData = {
KernOnName = U;
};
},
{
color = 4;
glyphname = V;
kernRight = KO_V;
lastChange = "2023-12-16 20:48:22 +0000";
layers = (
{
layerId = m001;
shapes = (
{
closed = 1;
nodes = (
(433,0,l),
(636,612,l),
(429,612,l),
(316,203,l),
(189,612,l),
(-26,612,l),
(169,0,l)
);
}
);
userData = {
com.hugojourdan.ColorFlow = {
"0" = 0;
"1" = 0;
"10" = 0;
"11" = 0;
"2" = 0;
"3" = 0;
"4" = 0;
"5" = 0;
"6" = 0;
"7" = 0;
"8" = 0;
"9" = 0;
};
};
width = 612;
},
{
layerId = "44B34E6E-EF7D-473C-A718-23DCC9FE612C";
shapes = (
{
closed = 1;
nodes = (
(287,0,l),
(523,612,l),
(472,612,l),
(267,71,l),
(72,612,l),
(14,612,l),
(242,0,l)
);
}
);
userData = {
com.hugojourdan.ColorFlow = {
"0" = 0;
"1" = 0;
"10" = 0;
"11" = 0;
"2" = 0;
"3" = 0;
"4" = 0;
"5" = 0;
"6" = 0;
"7" = 0;
"8" = 0;
"9" = 0;
};
};
width = 539;
}
);
unicode = 86;
userData = {
KernOnName = V;
};
},
{
color = 4;
glyphname = W;
kernRight = KO_W;
lastChange = "2023-12-16 20:48:22 +0000";
layers = (
{
anchors = (
{
name = top;
pos = (458,633);
}
);
layerId = m001;
shapes = (
{
closed = 1;
nodes = (
(354,0,l),
(456,298,l),
(549,0,l),
(782,0,l),
(914,612,l),
(729,612,l),
(667,264,l),
(562,612,l),
(384,612,l),
(274,257,l),
(209,612,l),
(6,612,l),
(126,0,l)
);
}
);
userData = {
com.hugojourdan.ColorFlow = {
"0" = 0;
"1" = 0;
"10" = 0;
"11" = 0;
"2" = 0;
"3" = 0;
"4" = 0;
"5" = 0;
"6" = 0;
"7" = 0;
"8" = 0;
"9" = 0;
};
};
width = 919;
},
{
anchors = (
{
name = top;
pos = (426,669);
}
);
layerId = "44B34E6E-EF7D-473C-A718-23DCC9FE612C";
shapes = (
{
closed = 1;
nodes = (
(252,0,l),
(425,547,l),
(604,0,l),
(662,0,l),
(812,612,l),
(761,612,l),
(634,65,l),
(453,612,l),
(399,612,l),
(226,65,l),
(89,612,l),
(36,612,l),
(192,0,l)
);
}
);
userData = {
com.hugojourdan.ColorFlow = {
"0" = 0;
"1" = 0;
"10" = 0;
"11" = 0;
"2" = 0;
"3" = 0;
"4" = 0;
"5" = 0;
"6" = 0;
"7" = 0;
"8" = 0;
"9" = 0;
};
};
width = 850;
}
);
unicode = 87;
userData = {
KernOnName = W;
};
},
{
color = 4;
glyphname = X;
kernLeft = KO_X;
lastChange = "2023-12-16 20:48:22 +0000";
layers = (
{
layerId = m001;
shapes = (
{
closed = 1;
nodes = (
(215,0,l),
(294,155,l),
(395,0,l),
(626,0,l),
(429,302,l),
(622,612,l),
(396,612,l),
(321,470,l),
(228,612,l),
(-3,612,l),
(184,325,l),
(-9,0,l)
);
}
);
userData = {
com.hugojourdan.ColorFlow = {
"0" = 0;
"1" = 0;
"10" = 0;
"11" = 0;
"2" = 0;
"3" = 0;
"4" = 0;
"5" = 0;
"6" = 0;
"7" = 0;
"8" = 0;
"9" = 0;
};
};
width = 617;
},
{
layerId = "44B34E6E-EF7D-473C-A718-23DCC9FE612C";
shapes = (
{
closed = 1;
nodes = (
(73,0,l),
(260,281,l),
(450,0,l),
(513,0,l),
(294,325,l),
(494,612,l),
(436,612,l),
(269,362,l),
(100,612,l),
(37,612,l),
(235,319,l),
(17,0,l)
);
}
);
userData = {
com.hugojourdan.ColorFlow = {
"0" = 0;
"1" = 0;
"10" = 0;
"11" = 0;
"2" = 0;
"3" = 0;
"4" = 0;
"5" = 0;
"6" = 0;
"7" = 0;
"8" = 0;
"9" = 0;
};
};
width = 529;
}
);
unicode = 88;
userData = {
KernOnName = X;
};
},
{
color = 4;
glyphname = Y;
kernLeft = KO_Y;
kernRight = KO_Y;
lastChange = "2023-12-16 20:48:22 +0000";
layers = (
{
anchors = (
{
name = top;
pos = (302,633);
}
);
layerId = m001;
shapes = (
{
closed = 1;
nodes = (
(384,0,l),
(384,201,l),
(599,612,l),
(405,612,l),
(297,402,l),
(193,612,l),
(-25,612,l),
(184,201,l),
(184,0,l)
);
}
);
userData = {
com.hugojourdan.ColorFlow = {
"0" = 0;
"1" = 0;
"10" = 0;
"11" = 0;
"2" = 0;
"3" = 0;
"4" = 0;
"5" = 0;
"6" = 0;
"7" = 0;
"8" = 0;
"9" = 0;
};
};
width = 575;
},
{
anchors = (
{
name = top;
pos = (251,669);
}
);
layerId = "44B34E6E-EF7D-473C-A718-23DCC9FE612C";
shapes = (
{
closed = 1;
nodes = (
(290,0,l),
(290,256,l),
(497,612,l),
(441,612,l),
(267,304,l),
(76,612,l),
(11,612,l),
(236,256,l),
(236,0,l)
);
}
);
userData = {
com.hugojourdan.ColorFlow = {
"0" = 0;
"1" = 0;
"10" = 0;
"11" = 0;
"2" = 0;
"3" = 0;
"4" = 0;
"5" = 0;
"6" = 0;
"7" = 0;
"8" = 0;
"9" = 0;
};
};
width = 513;
}
);
unicode = 89;
userData = {
KernOnName = Y;
};
},
{
color = 4;
glyphname = Z;
kernLeft = KO_Z;
lastChange = "2023-12-16 20:48:22 +0000";
layers = (
{
anchors = (
{
name = top;
pos = (234,633);
}
);
layerId = m001;
shapes = (
{
closed = 1;
nodes = (
(506,0,l),
(526,155,l),
(259,150,l),
(504,489,l),
(504,612,l),
(43,612,l),
(22,455,l),
(267,460,l),
(22,129,l),
(22,0,l)
);
}
);
userData = {
com.hugojourdan.ColorFlow = {
"0" = 0;
"1" = 0;
"10" = 0;
"11" = 0;
"2" = 0;
"3" = 0;
"4" = 0;
"5" = 0;
"6" = 0;
"7" = 0;
"8" = 0;
"9" = 0;
};
};
width = 526;
},
{
anchors = (
{
name = top;
pos = (270,669);
}
);
layerId = "44B34E6E-EF7D-473C-A718-23DCC9FE612C";
shapes = (
{
closed = 1;
nodes = (
(477,0,l),
(483,46,l),
(100,39,l),
(467,558,l),
(467,612,l),
(59,612,l),
(53,564,l),
(413,570,l),
(40,37,l),
(40,0,l)
);
}
);
userData = {
com.hugojourdan.ColorFlow = {
"0" = 0;
"1" = 0;
"10" = 0;
"11" = 0;
"2" = 0;
"3" = 0;
"4" = 0;
"5" = 0;
"6" = 0;
"7" = 0;
"8" = 0;
"9" = 0;
};
};
width = 522;
},
{
anchors = (
{
name = top;
pos = (270,669);
}
);
associatedMasterId = "44B34E6E-EF7D-473C-A718-23DCC9FE612C";
layerId = "432A762A-42E4-4833-A857-4D321F8E4BC9";
name = "12 de oct. de 23, 0:40";
shapes = (
{
closed = 1;
nodes = (
(477,0,l),
(483,46,l),
(100,39,l),
(467,558,l),
(467,612,l),
(60,612,l),
(53,564,l),
(413,570,l),
(40,37,l),
(40,0,l)
);
}
);
userData = {
com.hugojourdan.ColorFlow = {
"0" = 0;
"1" = 0;
"10" = 0;
"11" = 0;
"2" = 0;
"3" = 0;
"4" = 0;
"5" = 0;
"6" = 0;
"7" = 0;
"8" = 0;
"9" = 0;
};
};
width = 522;
},
{
anchors = (
{
name = top;
pos = (234,633);
}
);
associatedMasterId = m001;
layerId = "25325DE5-D4E4-47A8-8F55-F5E37D0C4BE6";
name = "12 de oct. de 23, 0:40";
shapes = (
{
closed = 1;
nodes = (
(506,0,l),
(526,155,l),
(259,150,l),
(504,489,l),
(504,612,l),
(43,612,l),
(22,455,l),
(267,460,l),
(22,129,l),
(22,0,l)
);
}
);
userData = {
com.hugojourdan.ColorFlow = {
"0" = 0;
"1" = 0;
"10" = 0;
"11" = 0;
"2" = 0;
"3" = 0;
"4" = 0;
"5" = 0;
"6" = 0;
"7" = 0;
"8" = 0;
"9" = 0;
};
};
width = 526;
}
);
unicode = 90;
userData = {
KernOnName = Z;
};
},
{
color = 3;
glyphname = Gsmallhook;
lastChange = "2024-02-13 15:28:23 +0000";
layers = (
{
layerId = "44B34E6E-EF7D-473C-A718-23DCC9FE612C";
shapes = (
{
ref = G.sc;
scale = (1.03,0.9514);
},
{
closed = 1;
nodes = (
(421,434,l),
(395,484,o),
(385,525,o),
(383,545,cs),
(378,607,o),
(424,609,o),
(474,611,c),
(468,656,l),
(392,652,o),
(346,605,o),
(344,548,cs),
(344,520,o),
(356,484,o),
(386,432,c)
);
}
);
userData = {
com.hugojourdan.ColorFlow = {
"0" = 0;
"1" = 0;
"10" = 0;
"11" = 0;
"2" = 0;
"3" = 0;
"4" = 0;
"5" = 0;
"6" = 0;
"7" = 0;
"8" = 0;
"9" = 0;
};
};
width = 468;
},
{
layerId = m001;
shapes = (
{
ref = G.sc;
scale = (0.93,0.8349);
},
{
closed = 1;
nodes = (
(491,447,l),
(477,466,o),
(468,490,o),
(464,512,cs),
(457,553,o),
(490,569,o),
(533,577,c),
(501,662,l),
(426,656,o),
(346,607,o),
(347,541,cs),
(347,510,o),
(365,475,o),
(411,439,c)
);
}
);
userData = {
com.hugojourdan.ColorFlow = {
"0" = 0;
"1" = 0;
"10" = 0;
"11" = 0;
"2" = 0;
"3" = 0;
"4" = 0;
"5" = 0;
"6" = 0;
"7" = 0;
"8" = 0;
"9" = 0;
};
};
width = 544;
}
);
unicode = 667;
},
{
color = 4;
glyphname = a;
kernLeft = KO_a;
kernRight = KO_a;
lastChange = "2023-12-16 20:48:22 +0000";
layers = (
{
anchors = (
{
name = bottom;
pos = (239,0);
},
{
name = ogonek;
pos = (461,0);
},
{
name = top;
pos = (239,500);
}
);
layerId = m001;
shapes = (
{
closed = 1;
nodes = (
(205,-20,o),
(250,0,o),
(286,24,c),
(317,-20,l),
(449,0,l),
(449,306,ls),
(449,418,o),
(386,470,o),
(260,470,cs),
(181,470,o),
(96,448,o),
(25,424,c),
(66,292,l),
(108,309,o),
(155,320,o),
(203,320,cs),
(225,320,o),
(243,318,o),
(252,302,cs),
(254,299,o),
(255,296,o),
(256,292,c),
(75,278,o),
(11,219,o),
(11,124,cs),
(11,35,o),
(75,-20,o),
(160,-20,cs)
);
},
{
closed = 1;
nodes = (
(197,107,o),
(181,123,o),
(181,147,cs),
(181,170,o),
(192,182,o),
(227,182,cs),
(238,182,o),
(248,181,o),
(258,180,c),
(258,112,l),
(248,109,o),
(238,107,o),
(229,107,cs)
);
}
);
userData = {
com.hugojourdan.ColorFlow = {
"0" = 0;
"1" = 0;
"10" = 0;
"11" = 0;
"2" = 0;
"3" = 0;
"4" = 0;
"5" = 0;
"6" = 0;
"7" = 0;
"8" = 0;
"9" = 0;
};
};
width = 482;
},
{
anchors = (
{
name = bottom;
pos = (188,0);
},
{
name = ogonek;
pos = (337,0);
},
{
name = top;
pos = (188,500);
}
);
layerId = "44B34E6E-EF7D-473C-A718-23DCC9FE612C";
shapes = (
{
closed = 1;
nodes = (
(210,-11,o),
(269,24,o),
(304,45,c),
(317,-11,l),
(351,0,l),
(351,321,ls),
(351,414,o),
(298,459,o),
(224,459,cs),
(159,459,o),
(121,446,o),
(61,422,c),
(72,387,l),
(118,405,o),
(170,418,o),
(207,418,cs),
(268,418,o),
(305,375,o),
(305,305,cs),
(305,284,o),
(305,262,o),
(305,241,c),
(122,239,o),
(47,180,o),
(47,100,cs),
(47,33,o),
(101,-11,o),
(171,-11,cs)
);
},
{
closed = 1;
nodes = (
(144,32,o),
(93,54,o),
(93,115,cs),
(93,170,o),
(151,199,o),
(220,199,cs),
(251,199,o),
(278,198,o),
(305,196,c),
(305,75,l),
(255,50,o),
(215,32,o),
(178,32,cs)
);
}
);
userData = {
com.hugojourdan.ColorFlow = {
"0" = 0;
"1" = 0;
"10" = 0;
"11" = 0;
"2" = 0;
"3" = 0;
"4" = 0;
"5" = 0;
"6" = 0;
"7" = 0;
"8" = 0;
"9" = 0;
};
};
width = 427;
},
{
anchors = (
{
name = bottom;
pos = (239,0);
},
{
name = ogonek;
pos = (461,0);
},
{
name = top;
pos = (239,500);
}
);
associatedMasterId = m001;
layerId = "B1F68324-80A4-4FCB-9A78-9F77E91B9591";
name = "12 de oct. de 23, 9:12";
shapes = (
{
closed = 1;
nodes = (
(205,-20,o),
(250,0,o),
(286,24,c),
(317,-20,l),
(449,0,l),
(449,306,ls),
(449,418,o),
(386,470,o),
(260,470,cs),
(181,470,o),
(100,449,o),
(29,425,c),
(62,290,l),
(104,307,o),
(155,320,o),
(203,320,cs),
(225,320,o),
(243,318,o),
(252,302,cs),
(254,299,o),
(255,296,o),
(256,292,c),
(75,278,o),
(11,219,o),
(11,124,cs),
(11,35,o),
(75,-20,o),
(160,-20,cs)
);
},
{
closed = 1;
nodes = (
(197,107,o),
(181,123,o),
(181,147,cs),
(181,170,o),
(192,182,o),
(227,182,cs),
(238,182,o),
(248,181,o),
(258,180,c),
(258,112,l),
(248,109,o),
(238,107,o),
(229,107,cs)
);
}
);
userData = {
com.hugojourdan.ColorFlow = {
"0" = 0;
"1" = 0;
"10" = 0;
"11" = 0;
"2" = 0;
"3" = 0;
"4" = 0;
"5" = 0;
"6" = 0;
"7" = 0;
"8" = 0;
"9" = 0;
};
};
visible = 1;
width = 482;
},
{
anchors = (
{
name = bottom;
pos = (188,0);
},
{
name = ogonek;
pos = (337,0);
},
{
name = top;
pos = (188,500);
}
);
associatedMasterId = "44B34E6E-EF7D-473C-A718-23DCC9FE612C";
layerId = "2614F811-112C-40B1-9FBE-176FB0DCC6D8";
name = "12 de oct. de 23, 9:12";
shapes = (
{
closed = 1;
nodes = (
(210,-11,o),
(269,24,o),
(304,45,c),
(317,-11,l),
(351,0,l),
(351,321,ls),
(351,414,o),
(298,459,o),
(224,459,cs),
(159,459,o),
(119,445,o),
(59,421,c),
(73,388,l),
(119,406,o),
(170,418,o),
(207,418,cs),
(268,418,o),
(305,375,o),
(305,305,cs),
(305,284,o),
(305,262,o),
(305,241,c),
(122,239,o),
(47,180,o),
(47,100,cs),
(47,33,o),
(101,-11,o),
(171,-11,cs)
);
},
{
closed = 1;
nodes = (
(144,32,o),
(93,54,o),
(93,115,cs),
(93,170,o),
(151,199,o),
(220,199,cs),
(251,199,o),
(278,198,o),
(305,196,c),
(305,75,l),
(255,50,o),
(215,32,o),
(178,32,cs)
);
}
);
userData = {
com.hugojourdan.ColorFlow = {
"0" = 0;
"1" = 0;
"10" = 0;
"11" = 0;
"2" = 0;
"3" = 0;
"4" = 0;
"5" = 0;
"6" = 0;
"7" = 0;
"8" = 0;
"9" = 0;
};
};
visible = 1;
width = 427;
}
);
unicode = 97;
userData = {
KernOnName = a;
};
},
{
color = 3;
glyphname = "alpha-latin";
lastChange = "2024-02-13 15:28:32 +0000";
layers = (
{
anchors = (
{
name = top;
pos = (385,500);
}
);
layerId = "44B34E6E-EF7D-473C-A718-23DCC9FE612C";
shapes = (
{
closed = 1;
nodes = (
(248,-11,o),
(299,7,o),
(358,40,c),
(364,10,o),
(390,-9,o),
(426,-9,cs),
(451,-9,o),
(479,0,o),
(488,6,c),
(480,38,l),
(468,33,o),
(453,30,o),
(436,30,cs),
(415,30,o),
(405,45,o),
(405,64,cs),
(403,451,l),
(376,461,l),
(361,431,l),
(337,443,o),
(285,459,o),
(251,459,cs),
(152,459,o),
(44,386,o),
(44,214,cs),
(44,53,o),
(137,-11,o),
(218,-11,cs)
);
},
{
closed = 1;
nodes = (
(92,357,o),
(154,419,o),
(226,419,cs),
(275,419,o),
(318,409,o),
(357,393,c),
(357,73,l),
(317,48,o),
(272,30,o),
(231,30,cs),
(171,30,o),
(92,80,o),
(92,223,cs)
);
}
);
userData = {
com.hugojourdan.ColorFlow = {
"0" = 0;
"1" = 0;
"10" = 0;
"11" = 0;
"2" = 0;
"3" = 0;
"4" = 0;
"5" = 0;
"6" = 0;
"7" = 0;
"8" = 0;
"9" = 0;
};
};
width = 528;
},
{
anchors = (
{
name = top;
pos = (454,500);
}
);
layerId = m001;
shapes = (
{
closed = 1;
nodes = (
(274,-20,o),
(324,3,o),
(361,26,c),
(387,-7,o),
(430,-20,o),
(482,-20,cs),
(516,-20,o),
(550,-15,o),
(578,-8,c),
(578,140,l),
(573,139,o),
(569,139,o),
(563,139,cs),
(540,139,o),
(526,148,o),
(526,177,cs),
(525,464,l),
(418,476,l),
(378,442,l),
(344,459,o),
(309,470,o),
(251,470,cs),
(148,470,o),
(14,386,o),
(14,214,cs),
(14,53,o),
(111,-20,o),
(217,-20,cs)
);
},
{
closed = 1;
nodes = (
(212,306,o),
(234,331,o),
(281,331,cs),
(298,331,o),
(315,328,o),
(331,325,c),
(331,123,l),
(320,121,o),
(309,120,o),
(297,120,cs),
(255,120,o),
(212,138,o),
(212,223,cs)
);
}
);
userData = {
com.hugojourdan.ColorFlow = {
"0" = 0;
"1" = 0;
"10" = 0;
"11" = 0;
"2" = 0;
"3" = 0;
"4" = 0;
"5" = 0;
"6" = 0;
"7" = 0;
"8" = 0;
"9" = 0;
};
};
width = 590;
}
);
metricLeft = d;
metricRight = iota;
unicode = 593;
},
{
color = 4;
glyphname = ae;
kernLeft = KO_a;
lastChange = "2023-09-08 16:00:25 +0000";
layers = (
{
anchors = (
{
name = top;
pos = (356,450);
}
);
layerId = m001;
shapes = (
{
closed = 1;
nodes = (
(253,-20,o),
(313,15,o),
(344,37,c),
(390,-5,o),
(452,-20,o),
(512,-20,cs),
(608,-20,o),
(682,5,o),
(710,27,c),
(681,151,l),
(667,143,o),
(607,124,o),
(542,124,cs),
(523,124,o),
(504,129,o),
(489,140,cs),
(477,149,o),
(467,161,o),
(460,179,c),
(698,179,l),
(700,198,o),
(705,242,o),
(705,262,cs),
(705,350,o),
(687,470,o),
(512,470,cs),
(463,470,o),
(420,459,o),
(385,438,c),
(355,459,o),
(313,470,o),
(260,470,cs),
(181,470,o),
(100,449,o),
(29,425,c),
(64,288,l),
(84,297,o),
(106,304,o),
(128,309,cs),
(155,315,o),
(182,318,o),
(208,318,cs),
(224,318,o),
(236,316,o),
(244,312,cs),
(253,308,o),
(258,301,o),
(260,292,c),
(75,279,o),
(11,220,o),
(11,124,cs),
(11,35,o),
(75,-20,o),
(168,-20,cs)
);
},
{
closed = 1;
nodes = (
(251,109,o),
(238,107,o),
(229,107,cs),
(196,107,o),
(180,124,o),
(181,147,cs),
(182,170,o),
(192,182,o),
(227,182,cs),
(228,182,o),
(244,182,o),
(262,179,c),
(262,157,o),
(262,134,o),
(262,112,c)
);
},
{
closed = 1;
nodes = (
(454,341,o),
(466,353,o),
(491,353,cs),
(511,353,o),
(532,331,o),
(532,285,c),
(450,285,l)
);
}
);
userData = {
com.hugojourdan.ColorFlow = {
"0" = 0;
"1" = 0;
"10" = 0;
"11" = 0;
"2" = 0;
"3" = 0;
"4" = 0;
"5" = 0;
"6" = 0;
"7" = 0;
"8" = 0;
"9" = 0;
};
};
width = 729;
},
{
anchors = (
{
name = top;
pos = (345,450);
}
);
layerId = "44B34E6E-EF7D-473C-A718-23DCC9FE612C";
shapes = (
{
closed = 1;
nodes = (
(198,-11,o),
(277,21,o),
(333,61,c),
(363,15,o),
(413,-11,o),
(480,-11,cs),
(524,-11,o),
(573,-4,o),
(644,21,c),
(634,55,l),
(569,32,o),
(534,30,o),
(506,30,cs),
(418,30,o),
(344,68,o),
(344,212,cs),
(344,226,o),
(344,239,o),
(345,252,c),
(641,252,l),
(642,261,o),
(643,274,o),
(643,294,cs),
(643,405,o),
(578,459,o),
(490,459,cs),
(429,459,o),
(373,431,o),
(337,371,c),
(326,437,o),
(284,459,o),
(224,459,cs),
(159,459,o),
(119,445,o),
(59,421,c),
(71,390,l),
(117,406,o),
(164,420,o),
(201,420,cs),
(242,420,o),
(304,400,o),
(302,317,cs),
(302,303,o),
(301,289,o),
(301,275,cs),
(301,268,o),
(300,253,o),
(299,241,c),
(119,238,o),
(47,179,o),
(47,100,cs),
(47,33,o),
(101,-11,o),
(168,-11,cs)
);
},
{
closed = 1;
nodes = (
(271,57,o),
(220,32,o),
(178,32,cs),
(144,32,o),
(93,54,o),
(93,115,cs),
(93,170,o),
(151,200,o),
(220,200,cs),
(247,200,o),
(272,199,o),
(297,197,c),
(297,154,o),
(304,117,o),
(319,86,c)
);
},
{
closed = 1;
nodes = (
(363,386,o),
(408,422,o),
(472,422,cs),
(558,422,o),
(594,378,o),
(594,289,c),
(349,289,l)
);
}
);
userData = {
com.hugojourdan.ColorFlow = {
"0" = 0;
"1" = 0;
"10" = 0;
"11" = 0;
"2" = 0;
"3" = 0;
"4" = 0;
"5" = 0;
"6" = 0;
"7" = 0;
"8" = 0;
"9" = 0;
};
};
width = 686;
}
);
unicode = 230;
},
{
color = 4;
glyphname = b;
lastChange = "2023-11-27 16:10:49 +0000";
layers = (
{
layerId = m001;
shapes = (
{
closed = 1;
nodes = (
(127,-4,l),
(179,-13,o),
(236,-20,o),
(303,-20,cs),
(406,-20,o),
(540,64,o),
(540,236,cs),
(540,397,o),
(453,470,o),
(347,470,cs),
(300,470,o),
(259,458,o),
(223,440,c),
(223,695,l),
(29,670,l),
(29,-12,l),
(94,-24,l)
);
},
{
closed = 1;
nodes = (
(254,119,o),
(238,121,o),
(223,124,c),
(223,328,l),
(234,330,o),
(245,332,o),
(257,332,cs),
(299,332,o),
(342,312,o),
(342,227,cs),
(342,144,o),
(319,119,o),
(271,119,cs)
);
}
);
userData = {
com.hugojourdan.ColorFlow = {
"0" = 0;
"1" = 0;
"10" = 0;
"11" = 0;
"2" = 0;
"3" = 0;
"4" = 0;
"5" = 0;
"6" = 0;
"7" = 0;
"8" = 0;
"9" = 0;
};
};
width = 551;
},
{
layerId = "44B34E6E-EF7D-473C-A718-23DCC9FE612C";
shapes = (
{
closed = 1;
nodes = (
(135,19,l),
(167,4,o),
(207,-11,o),
(241,-11,cs),
(340,-11,o),
(448,64,o),
(448,236,cs),
(448,397,o),
(355,459,o),
(274,459,cs),
(240,459,o),
(193,442,o),
(135,410,c),
(135,687,l),
(87,677,l),
(87,-11,l),
(116,-23,l)
);
},
{
closed = 1;
nodes = (
(218,29,o),
(174,41,o),
(135,57,c),
(135,375,l),
(175,399,o),
(220,416,o),
(261,416,cs),
(321,416,o),
(400,370,o),
(400,227,cs),
(400,93,o),
(338,29,o),
(267,29,cs)
);
}
);
userData = {
com.hugojourdan.ColorFlow = {
"0" = 0;
"1" = 0;
"10" = 0;
"11" = 0;
"2" = 0;
"3" = 0;
"4" = 0;
"5" = 0;
"6" = 0;
"7" = 0;
"8" = 0;
"9" = 0;
};
};
width = 493;
}
);
unicode = 98;
},
{
color = 3;
glyphname = bhook;
lastChange = "2024-02-13 15:28:41 +0000";
layers = (
{
layerId = "44B34E6E-EF7D-473C-A718-23DCC9FE612C";
shapes = (
{
closed = 1;
nodes = (
(135,19,l),
(167,4,o),
(207,-9,o),
(241,-9,cs),
(340,-9,o),
(448,64,o),
(448,236,cs),
(448,397,o),
(355,459,o),
(274,459,cs),
(240,459,o),
(193,442,o),
(135,410,c),
(135,507,ls),
(135,620,o),
(170,644,o),
(278,650,c),
(265,698,l),
(134,698,o),
(87,576,o),
(87,497,cs),
(87,-11,l),
(116,-23,l)
);
},
{
closed = 1;
nodes = (
(218,31,o),
(174,41,o),
(135,57,c),
(135,375,l),
(175,399,o),
(220,416,o),
(261,416,cs),
(321,416,o),
(400,370,o),
(400,227,cs),
(400,93,o),
(338,31,o),
(267,31,cs)
);
}
);
userData = {
com.hugojourdan.ColorFlow = {
"0" = 0;
"1" = 0;
"10" = 0;
"11" = 0;
"2" = 0;
"3" = 0;
"4" = 0;
"5" = 0;
"6" = 0;
"7" = 0;
"8" = 0;
"9" = 0;
};
};
width = 493;
},
{
layerId = m001;
shapes = (
{
closed = 1;
nodes = (
(127,-4,l),
(179,-13,o),
(236,-20,o),
(303,-20,cs),
(406,-20,o),
(540,64,o),
(540,236,cs),
(540,397,o),
(453,470,o),
(347,470,cs),
(300,470,o),
(259,458,o),
(223,440,c),
(223,481,ls),
(223,530,o),
(243,561,o),
(307,573,c),
(262,717,l),
(137,705,o),
(33,605,o),
(32,514,cs),
(29,-12,l),
(94,-24,l)
);
},
{
closed = 1;
nodes = (
(254,119,o),
(238,121,o),
(223,124,c),
(223,328,l),
(234,330,o),
(245,332,o),
(257,332,cs),
(299,332,o),
(342,312,o),
(342,227,cs),
(342,144,o),
(319,119,o),
(271,119,cs)
);
}
);
userData = {
com.hugojourdan.ColorFlow = {
"0" = 0;
"1" = 0;
"10" = 0;
"11" = 0;
"2" = 0;
"3" = 0;
"4" = 0;
"5" = 0;
"6" = 0;
"7" = 0;
"8" = 0;
"9" = 0;
};
};
width = 551;
}
);
metricLeft = b;
metricRight = b;
unicode = 595;
},
{
color = 3;
glyphname = bidentalpercussive;
lastChange = "2024-02-13 15:28:41 +0000";
layers = (
{
layerId = "44B34E6E-EF7D-473C-A718-23DCC9FE612C";
shapes = (
{
closed = 1;
nodes = (
(120,287,l),
(120,410,l),
(317,410,l),
(317,288,l),
(363,288,l),
(363,451,l),
(72,450,l),
(72,287,l)
);
},
{
closed = 1;
nodes = (
(120,0,l),
(120,123,l),
(317,123,l),
(317,1,l),
(363,1,l),
(363,164,l),
(72,163,l),
(72,0,l)
);
}
);
userData = {
com.hugojourdan.ColorFlow = {
"0" = 0;
"1" = 0;
"10" = 0;
"11" = 0;
"2" = 0;
"3" = 0;
"4" = 0;
"5" = 0;
"6" = 0;
"7" = 0;
"8" = 0;
"9" = 0;
};
};
width = 435;
},
{
layerId = m001;
shapes = (
{
closed = 1;
nodes = (
(205,237,l),
(205,329,l),
(322,329,l),
(322,238,l),
(466,238,l),
(466,451,l),
(61,450,l),
(61,237,l)
);
},
{
closed = 1;
nodes = (
(204,-1,l),
(204,91,l),
(321,91,l),
(321,0,l),
(465,0,l),
(465,213,l),
(60,212,l),
(60,-1,l)
);
}
);
userData = {
com.hugojourdan.ColorFlow = {
"0" = 0;
"1" = 0;
"10" = 0;
"11" = 0;
"2" = 0;
"3" = 0;
"4" = 0;
"5" = 0;
"6" = 0;
"7" = 0;
"8" = 0;
"9" = 0;
};
};
width = 526;
}
);
unicode = 685;
},
{
color = 3;
glyphname = bilabialclick;
lastChange = "2024-02-13 15:28:41 +0000";
layers = (
{
layerId = "44B34E6E-EF7D-473C-A718-23DCC9FE612C";
shapes = (
{
ref = O;
},
{
closed = 1;
nodes = (
(341,275,o),
(368,300,o),
(368,316,cs),
(368,333,o),
(337,351,o),
(325,351,cs),
(314,351,o),
(286,325,o),
(286,309,cs),
(286,293,o),
(317,275,o),
(329,275,cs)
);
}
);
userData = {
com.hugojourdan.ColorFlow = {
"0" = 0;
"1" = 0;
"10" = 0;
"11" = 0;
"2" = 0;
"3" = 0;
"4" = 0;
"5" = 0;
"6" = 0;
"7" = 0;
"8" = 0;
"9" = 0;
};
};
width = 654;
},
{
layerId = m001;
shapes = (
{
ref = O;
},
{
closed = 1;
nodes = (
(387,210,o),
(449,276,o),
(449,312,cs),
(449,349,o),
(376,402,o),
(341,402,cs),
(304,402,o),
(245,335,o),
(245,299,cs),
(245,263,o),
(317,210,o),
(353,210,cs)
);
}
);
userData = {
com.hugojourdan.ColorFlow = {
"0" = 0;
"1" = 0;
"10" = 0;
"11" = 0;
"2" = 0;
"3" = 0;
"4" = 0;
"5" = 0;
"6" = 0;
"7" = 0;
"8" = 0;
"9" = 0;
};
};
width = 694;
}
);
unicode = 664;
},
{
color = 4;
glyphname = c;
kernLeft = KO_o;
kernRight = KO_c;
lastChange = "2023-12-16 20:48:22 +0000";
layers = (
{
anchors = (
{
name = bottom;
pos = (181,0);
},
{
name = top;
pos = (233,500);
}
);
layerId = m001;
shapes = (
{
closed = 1;
nodes = (
(317,-20,o),
(366,-10,o),
(420,12,c),
(403,147,l),
(368,132,o),
(342,129,o),
(314,129,cs),
(273,129,o),
(210,150,o),
(210,232,cs),
(210,303,o),
(233,322,o),
(292,322,cs),
(322,322,o),
(366,312,o),
(395,297,c),
(428,442,l),
(394,456,o),
(354,470,o),
(284,470,cs),
(146,470,o),
(14,391,o),
(14,203,cs),
(14,37,o),
(145,-20,o),
(262,-20,cs)
);
}
);
userData = {
com.hugojourdan.ColorFlow = {
"0" = 0;
"1" = 0;
"10" = 0;
"11" = 0;
"2" = 0;
"3" = 0;
"4" = 0;
"5" = 0;
"6" = 0;
"7" = 0;
"8" = 0;
"9" = 0;
};
};
width = 440;
},
{
anchors = (
{
name = bottom;
pos = (256,0);
},
{
name = top;
pos = (246,500);
}
);
layerId = "44B34E6E-EF7D-473C-A718-23DCC9FE612C";
shapes = (
{
closed = 1;
nodes = (
(293,-10,o),
(349,8,o),
(375,22,c),
(364,52,l),
(335,40,o),
(301,30,o),
(254,30,cs),
(163,30,o),
(95,95,o),
(95,228,cs),
(95,361,o),
(158,424,o),
(239,424,cs),
(288,424,o),
(321,413,o),
(351,402,c),
(360,442,l),
(335,451,o),
(298,459,o),
(245,459,cs),
(126,459,o),
(44,359,o),
(44,218,cs),
(44,84,o),
(114,-10,o),
(242,-10,cs)
);
}
);
userData = {
com.hugojourdan.ColorFlow = {
"0" = 0;
"1" = 0;
"10" = 0;
"11" = 0;
"2" = 0;
"3" = 0;
"4" = 0;
"5" = 0;
"6" = 0;
"7" = 0;
"8" = 0;
"9" = 0;
};
};
width = 397;
}
);
metricLeft = o;
unicode = 99;
userData = {
KernOnName = c;
};
},
{
color = 3;
glyphname = ccurl;
lastChange = "2024-02-13 15:28:44 +0000";
layers = (
{
layerId = "44B34E6E-EF7D-473C-A718-23DCC9FE612C";
shapes = (
{
closed = 1;
nodes = (
(163,30,o),
(95,95,o),
(95,228,cs),
(95,361,o),
(158,424,o),
(239,424,cs),
(288,424,o),
(321,413,o),
(351,402,c),
(360,442,l),
(335,451,o),
(298,459,o),
(245,459,cs),
(126,459,o),
(44,359,o),
(44,218,cs),
(44,84,o),
(114,-10,o),
(242,-10,cs),
(326,-10,o),
(388,26,o),
(388,89,cs),
(388,139,o),
(354,164,o),
(308,164,cs),
(242,164,o),
(191,107,o),
(92,-79,c),
(131,-101,l),
(224,68,o),
(256,121,o),
(299,123,cs),
(326,124,o),
(341,107,o),
(342,87,cs),
(344,55,o),
(312,30,o),
(254,30,cs)
);
}
);
userData = {
com.hugojourdan.ColorFlow = {
"0" = 0;
"1" = 0;
"10" = 0;
"11" = 0;
"2" = 0;
"3" = 0;
"4" = 0;
"5" = 0;
"6" = 0;
"7" = 0;
"8" = 0;
"9" = 0;
};
};
width = 397;
},
{
layerId = m001;
shapes = (
{
closed = 1;
nodes = (
(269,95,o),
(210,118,o),
(210,216,cs),
(210,300,o),
(233,322,o),
(292,322,cs),
(322,322,o),
(366,312,o),
(395,297,c),
(428,442,l),
(394,456,o),
(354,470,o),
(284,470,cs),
(146,470,o),
(14,391,o),
(14,203,cs),
(14,37,o),
(145,-20,o),
(262,-20,cs),
(400,-20,o),
(440,55,o),
(440,118,cs),
(440,177,o),
(402,223,o),
(346,223,cs),
(271,223,o),
(211,161,o),
(132,-87,c),
(221,-117,l),
(291,98,o),
(310,129,o),
(333,129,cs),
(341,129,o),
(346,124,o),
(346,115,cs),
(346,105,o),
(331,95,o),
(310,95,cs)
);
}
);
userData = {
com.hugojourdan.ColorFlow = {
"0" = 0;
"1" = 0;
"10" = 0;
"11" = 0;
"2" = 0;
"3" = 0;
"4" = 0;
"5" = 0;
"6" = 0;
"7" = 0;
"8" = 0;
"9" = 0;
};
};
width = 440;
},
{
anchors = (
{
name = bottom;
pos = (181,0);
},
{
name = top;
pos = (233,500);
}
);
associatedMasterId = m001;
layerId = "4147FBD6-DAE3-436C-94A6-9CB3B6023D61";
name = "15 de dic. de 23, 17:48";
shapes = (
{
closed = 1;
nodes = (
(317,-20,o),
(366,-10,o),
(420,12,c),
(403,147,l),
(368,132,o),
(342,129,o),
(314,129,cs),
(273,129,o),
(210,150,o),
(210,232,cs),
(210,303,o),
(233,322,o),
(292,322,cs),
(322,322,o),
(366,312,o),
(395,297,c),
(428,442,l),
(394,456,o),
(354,470,o),
(284,470,cs),
(146,470,o),
(14,391,o),
(14,203,cs),
(14,37,o),
(145,-20,o),
(262,-20,cs)
);
},
{
closed = 0;
nodes = (
(271,-20,l),
(409,-20,o),
(449,55,o),
(449,118,cs),
(449,177,o),
(411,223,o),
(355,223,cs),
(280,223,o),
(220,161,o),
(141,-87,c),
(230,-117,l),
(300,98,o),
(319,129,o),
(342,129,cs),
(350,129,o),
(355,124,o),
(355,115,cs),
(355,105,o),
(340,95,o),
(319,95,c)
);
}
);
userData = {
com.hugojourdan.ColorFlow = {
"0" = 0;
"1" = 0;
"10" = 0;
"11" = 0;
"2" = 0;
"3" = 0;
"4" = 0;
"5" = 0;
"6" = 0;
"7" = 0;
"8" = 0;
"9" = 0;
};
};
visible = 1;
width = 440;
},
{
associatedMasterId = "44B34E6E-EF7D-473C-A718-23DCC9FE612C";
layerId = "38FE27D9-8463-467B-8975-D11A2C0F9570";
name = "15 de dic. de 23, 17:49";
shapes = (
{
closed = 1;
nodes = (
(56,13,o),
(73,45,o),
(96,69,c),
(131,24,o),
(185,-10,o),
(248,-10,cs),
(330,-10,o),
(405,16,o),
(405,84,cs),
(405,166,o),
(302,170,o),
(247,166,cs),
(193,161,o),
(151,146,o),
(116,124,c),
(105,164,o),
(102,193,o),
(102,228,cs),
(102,361,o),
(165,424,o),
(246,424,cs),
(295,424,o),
(328,413,o),
(358,402,c),
(367,442,l),
(342,451,o),
(305,459,o),
(252,459,cs),
(133,459,o),
(51,359,o),
(51,218,cs),
(51,174,o),
(59,134,o),
(76,99,c),
(49,73,o),
(30,44,o),
(9,8,c),
(40,-13,l)
);
},
{
closed = 1;
nodes = (
(195,28,o),
(155,56,o),
(132,92,c),
(163,112,o),
(200,123,o),
(250,129,cs),
(330,137,o),
(367,114,o),
(367,79,cs),
(367,50,o),
(332,24,o),
(250,27,cs)
);
}
);
userData = {
com.hugojourdan.ColorFlow = {
"0" = 0;
"1" = 0;
"10" = 0;
"11" = 0;
"2" = 0;
"3" = 0;
"4" = 0;
"5" = 0;
"6" = 0;
"7" = 0;
"8" = 0;
"9" = 0;
};
};
visible = 1;
width = 408;
}
);
metricLeft = c;
unicode = 597;
},
{
color = 3;
glyphname = "chi-latin";
lastChange = "2024-02-13 15:28:48 +0000";
layers = (
{
layerId = "44B34E6E-EF7D-473C-A718-23DCC9FE612C";
shapes = (
{
ref = chi;
}
);
userData = {
com.hugojourdan.ColorFlow = {
"0" = 0;
"1" = 0;
"10" = 0;
"11" = 0;
"2" = 0;
"3" = 0;
"4" = 0;
"5" = 0;
"6" = 0;
"7" = 0;
"8" = 0;
"9" = 0;
};
};
width = 474;
},
{
layerId = m001;
shapes = (
{
ref = chi;
}
);
userData = {
com.hugojourdan.ColorFlow = {
"0" = 0;
"1" = 0;
"10" = 0;
"11" = 0;
"2" = 0;
"3" = 0;
"4" = 0;
"5" = 0;
"6" = 0;
"7" = 0;
"8" = 0;
"9" = 0;
};
};
width = 560;
},
{
associatedMasterId = m001;
layerId = "AFFAB1F2-0CD2-4356-8851-4881A7F0CB73";
name = "11 de sep. de 23, 14:39";
shapes = (
{
closed = 1;
nodes = (
(245,-64,ls),
(288,-190,o),
(322,-230,o),
(400,-230,cs),
(455,-230,o),
(486,-210,o),
(500,-199,c),
(477,-135,l),
(464,-146,o),
(441,-164,o),
(414,-164,cs),
(375,-164,o),
(352,-120,o),
(318,-21,cs),
(270,120,l),
(320,228,o),
(383,341,o),
(440,448,c),
(342,462,l),
(310,374,o),
(274,291,o),
(238,214,c),
(210,296,ls),
(167,423,o),
(134,462,o),
(56,462,cs),
(1,462,o),
(-30,442,o),
(-44,431,c),
(-21,367,l),
(-8,378,o),
(15,396,o),
(42,396,cs),
(81,396,o),
(103,352,o),
(137,253,cs),
(180,128,l),
(128,15,o),
(62,-105,o),
(2,-217,c),
(101,-231,l),
(136,-137,o),
(174,-49,o),
(212,33,c)
);
}
);
userData = {
com.hugojourdan.ColorFlow = {
"0" = 0;
"1" = 0;
"10" = 0;
"11" = 0;
"2" = 0;
"3" = 0;
"4" = 0;
"5" = 0;
"6" = 0;
"7" = 0;
"8" = 0;
"9" = 0;
};
};
visible = 1;
width = 600;
}
);
unicode = 43859;
},
{
color = 3;
glyphname = chook;
lastChange = "2024-02-13 15:28:48 +0000";
layers = (
{
layerId = "44B34E6E-EF7D-473C-A718-23DCC9FE612C";
shapes = (
{
ref = c;
},
{
closed = 1;
nodes = (
(280,513,o),
(296,479,o),
(321,442,c),
(360,442,l),
(331,487,o),
(321,513,o),
(321,543,cs),
(321,579,o),
(344,593,o),
(362,593,cs),
(384,593,o),
(398,582,o),
(404,579,c),
(415,606,l),
(397,616,o),
(380,626,o),
(350,626,cs),
(307,626,o),
(280,595,o),
(280,553,cs)
);
}
);
userData = {
com.hugojourdan.ColorFlow = {
"0" = 0;
"1" = 0;
"10" = 0;
"11" = 0;
"2" = 0;
"3" = 0;
"4" = 0;
"5" = 0;
"6" = 0;
"7" = 0;
"8" = 0;
"9" = 0;
};
};
width = 397;
},
{
layerId = m001;
shapes = (
{
ref = c;
},
{
closed = 1;
nodes = (
(280,518,o),
(303,481,o),
(338,442,c),
(428,442,l),
(399,501,o),
(394,514,o),
(394,534,cs),
(394,553,o),
(409,570,o),
(433,570,cs),
(447,570,o),
(462,567,o),
(480,560,c),
(492,644,l),
(474,654,o),
(443,665,o),
(404,665,cs),
(334,665,o),
(280,622,o),
(280,560,cs)
);
}
);
userData = {
com.hugojourdan.ColorFlow = {
"0" = 0;
"1" = 0;
"10" = 0;
"11" = 0;
"2" = 0;
"3" = 0;
"4" = 0;
"5" = 0;
"6" = 0;
"7" = 0;
"8" = 0;
"9" = 0;
};
};
width = 440;
}
);
metricLeft = c;
unicode = 392;
},
{
color = 11;
glyphname = cstretched;
lastChange = "2024-05-16 06:47:35 +0000";
layers = (
{
layerId = "44B34E6E-EF7D-473C-A718-23DCC9FE612C";
shapes = (
{
closed = 1;
nodes = (
(349,-222,o),
(384,-200,o),
(421,-175,c),
(413,-132,l),
(359,-163,o),
(335,-176,o),
(286,-176,cs),
(179,-176,o),
(109,-66,o),
(109,120,cs),
(109,312,o),
(160,405,o),
(250,410,cs),
(311,414,o),
(353,402,o),
(405,362,c),
(411,414,l),
(371,446,o),
(331,455,o),
(280,455,cs),
(133,455,o),
(53,314,o),
(53,120,cs),
(53,-78,o),
(145,-222,o),
(282,-222,cs)
);
}
);
userData = {
com.hugojourdan.ColorFlow = {
"0" = 0;
"1" = 0;
"10" = 0;
"11" = 0;
"2" = 0;
"3" = 0;
"4" = 0;
"5" = 0;
"6" = 0;
"7" = 0;
"8" = 0;
"9" = 0;
};
};
width = 451;
},
{
layerId = m001;
shapes = (
{
closed = 1;
nodes = (
(394,-240,o),
(446,-217,o),
(486,-200,c),
(460,-58,l),
(421,-70,o),
(383,-78,o),
(333,-78,cs),
(275,-78,o),
(216,-23,o),
(216,120,cs),
(216,271,o),
(286,306,o),
(337,306,cs),
(382,306,o),
(419,298,o),
(459,282,c),
(479,442,l),
(433,459,o),
(399,463,o),
(332,463,cs),
(162,463,o),
(21,355,o),
(21,99,cs),
(21,-142,o),
(173,-240,o),
(287,-240,cs)
);
}
);
userData = {
com.hugojourdan.ColorFlow = {
"0" = 0;
"1" = 0;
"10" = 0;
"11" = 0;
"2" = 0;
"3" = 0;
"4" = 0;
"5" = 0;
"6" = 0;
"7" = 0;
"8" = 0;
"9" = 0;
};
};
width = 510;
}
);
metricLeft = C;
metricRight = C;
unicode = 663;
},
{
color = 4;
glyphname = d;
kernLeft = KO_o;
kernRight = KO_i;
lastChange = "2024-02-13 15:28:59 +0000";
layers = (
{
anchors = (
{
name = center;
pos = (284,225);
}
);
layerId = m001;
shapes = (
{
closed = 1;
nodes = (
(266,-20,o),
(313,-5,o),
(350,19,c),
(384,-20,l),
(525,5,l),
(525,695,l),
(331,670,l),
(331,466,l),
(307,468,o),
(280,470,o),
(251,470,cs),
(148,470,o),
(14,386,o),
(14,214,cs),
(14,53,o),
(101,-20,o),
(207,-20,cs)
);
},
{
closed = 1;
nodes = (
(255,120,o),
(212,138,o),
(212,223,cs),
(212,306,o),
(234,331,o),
(281,331,cs),
(298,331,o),
(315,328,o),
(331,325,c),
(331,123,l),
(320,121,o),
(309,120,o),
(297,120,cs)
);
}
);
userData = {
com.hugojourdan.ColorFlow = {
"0" = 0;
"1" = 0;
"10" = 0;
"11" = 0;
"2" = 0;
"3" = 0;
"4" = 0;
"5" = 0;
"6" = 0;
"7" = 0;
"8" = 0;
"9" = 0;
};
};
width = 554;
},
{
anchors = (
{
name = center;
pos = (241,225);
}
);
layerId = "44B34E6E-EF7D-473C-A718-23DCC9FE612C";
shapes = (
{
closed = 1;
nodes = (
(248,-11,o),
(301,8,o),
(361,42,c),
(373,-11,l),
(405,0,l),
(405,687,l),
(357,677,l),
(357,433,l),
(326,447,o),
(286,459,o),
(251,459,cs),
(152,459,o),
(44,386,o),
(44,214,cs),
(44,53,o),
(137,-11,o),
(218,-11,cs)
);
},
{
closed = 1;
nodes = (
(171,30,o),
(92,80,o),
(92,223,cs),
(92,357,o),
(154,419,o),
(226,419,cs),
(275,419,o),
(318,409,o),
(357,393,c),
(357,73,l),
(317,48,o),
(272,30,o),
(231,30,cs)
);
}
);
userData = {
com.hugojourdan.ColorFlow = {
"0" = 0;
"1" = 0;
"10" = 0;
"11" = 0;
"2" = 0;
"3" = 0;
"4" = 0;
"5" = 0;
"6" = 0;
"7" = 0;
"8" = 0;
"9" = 0;
};
};
width = 492;
}
);
unicode = 100;
userData = {
KernOnName = d;
};
},
{
color = 4;
glyphname = dcroat;
lastChange = "2023-10-12 14:23:22 +0000";
layers = (
{
layerId = m001;
shapes = (
{
closed = 1;
nodes = (
(235,620,l),
(203,537,l),
(203,522,l),
(579,522,l),
(610,605,l),
(610,620,l)
);
},
{
ref = d;
}
);
userData = {
com.hugojourdan.ColorFlow = {
"0" = 0;
"1" = 0;
"10" = 0;
"11" = 0;
"2" = 0;
"3" = 0;
"4" = 0;
"5" = 0;
"6" = 0;
"7" = 0;
"8" = 0;
"9" = 0;
};
};
width = 553;
},
{
layerId = "44B34E6E-EF7D-473C-A718-23DCC9FE612C";
shapes = (
{
closed = 1;
nodes = (
(231,598,l),
(218,577,l),
(218,562,l),
(462,562,l),
(475,583,l),
(475,598,l)
);
},
{
ref = d;
}
);
userData = {
com.hugojourdan.ColorFlow = {
"0" = 0;
"1" = 0;
"10" = 0;
"11" = 0;
"2" = 0;
"3" = 0;
"4" = 0;
"5" = 0;
"6" = 0;
"7" = 0;
"8" = 0;
"9" = 0;
};
};
width = 498;
}
);
unicode = 273;
},
{
color = 3;
glyphname = dhook;
lastChange = "2024-02-13 15:29:05 +0000";
layers = (
{
anchors = (
{
name = center;
pos = (241,225);
}
);
layerId = "44B34E6E-EF7D-473C-A718-23DCC9FE612C";
shapes = (
{
closed = 1;
nodes = (
(248,-11,o),
(301,8,o),
(361,42,c),
(373,-11,l),
(405,0,l),
(405,478,ls),
(405,623,o),
(440,643,o),
(548,649,c),
(535,697,l),
(478,697,o),
(417,665,o),
(384,599,cs),
(372,575,o),
(362,546,o),
(359,510,cs),
(358,495,o),
(357,510,o),
(357,433,c),
(326,447,o),
(286,459,o),
(251,459,cs),
(152,459,o),
(44,386,o),
(44,214,cs),
(44,53,o),
(137,-11,o),
(218,-11,cs)
);
},
{
closed = 1;
nodes = (
(171,30,o),
(92,80,o),
(92,223,cs),
(92,357,o),
(154,419,o),
(226,419,cs),
(275,419,o),
(318,409,o),
(357,393,c),
(357,73,l),
(317,48,o),
(272,30,o),
(231,30,cs)
);
}
);
userData = {
com.hugojourdan.ColorFlow = {
"0" = 0;
"1" = 0;
"10" = 0;
"11" = 0;
"2" = 0;
"3" = 0;
"4" = 0;
"5" = 0;
"6" = 0;
"7" = 0;
"8" = 0;
"9" = 0;
};
};
width = 476;
},
{
anchors = (
{
name = center;
pos = (284,225);
}
);
layerId = m001;
shapes = (
{
closed = 1;
nodes = (
(266,-20,o),
(313,-5,o),
(350,19,c),
(384,-20,l),
(525,-28,l),
(525,479,ls),
(525,528,o),
(545,561,o),
(609,573,c),
(563,717,l),
(467,708,o),
(384,650,o),
(349,580,cs),
(339,558,o),
(331,531,o),
(331,505,cs),
(331,492,o),
(331,479,o),
(331,466,c),
(307,468,o),
(280,470,o),
(251,470,cs),
(148,470,o),
(14,386,o),
(14,214,cs),
(14,53,o),
(101,-20,o),
(207,-20,cs)
);
},
{
closed = 1;
nodes = (
(255,120,o),
(212,138,o),
(212,223,cs),
(212,306,o),
(234,331,o),
(281,331,cs),
(298,331,o),
(315,328,o),
(331,325,c),
(331,123,l),
(320,121,o),
(309,120,o),
(297,120,cs)
);
}
);
userData = {
com.hugojourdan.ColorFlow = {
"0" = 0;
"1" = 0;
"10" = 0;
"11" = 0;
"2" = 0;
"3" = 0;
"4" = 0;
"5" = 0;
"6" = 0;
"7" = 0;
"8" = 0;
"9" = 0;
};
};
width = 554;
}
);
metricLeft = d;
unicode = 599;
},
{
color = 3;
glyphname = dtail;
kernLeft = KO_o;
lastChange = "2024-02-13 15:29:05 +0000";
layers = (
{
anchors = (
{
name = center;
pos = (241,225);
}
);
layerId = "44B34E6E-EF7D-473C-A718-23DCC9FE612C";
shapes = (
{
closed = 1;
nodes = (
(545,-184,l),
(511,-181,o),
(458,-169,o),
(430,-133,cs),
(404,-101,o),
(405,-57,o),
(405,0,cs),
(405,691,l),
(357,681,l),
(357,433,l),
(326,447,o),
(286,459,o),
(251,459,cs),
(152,459,o),
(44,386,o),
(44,214,cs),
(44,53,o),
(137,-11,o),
(218,-11,cs),
(248,-11,o),
(301,8,o),
(361,42,c),
(361,11,ls),
(361,-76,o),
(364,-94,o),
(383,-129,cs),
(415,-186,o),
(473,-217,o),
(531,-221,c)
);
},
{
closed = 1;
nodes = (
(171,30,o),
(92,80,o),
(92,223,cs),
(92,357,o),
(154,419,o),
(226,419,cs),
(275,419,o),
(318,409,o),
(357,393,c),
(357,73,l),
(317,48,o),
(272,30,o),
(231,30,cs)
);
}
);
userData = {
com.hugojourdan.ColorFlow = {
"0" = 0;
"1" = 0;
"10" = 0;
"11" = 0;
"2" = 0;
"3" = 0;
"4" = 0;
"5" = 0;
"6" = 0;
"7" = 0;
"8" = 0;
"9" = 0;
};
};
width = 492;
},
{
anchors = (
{
name = center;
pos = (284,225);
}
);
layerId = m001;
shapes = (
{
closed = 1;
nodes = (
(612,-93,l),
(583,-88,o),
(561,-80,o),
(548,-65,cs),
(531,-47,o),
(525,-30,o),
(525,5,cs),
(525,695,l),
(331,670,l),
(331,466,l),
(307,468,o),
(280,470,o),
(251,470,cs),
(148,470,o),
(14,386,o),
(14,214,cs),
(14,53,o),
(101,-20,o),
(207,-20,cs),
(266,-20,o),
(313,-5,o),
(351,19,c),
(351,-5,l),
(351,-64,o),
(374,-128,o),
(424,-170,cs),
(471,-211,o),
(516,-232,o),
(567,-237,c)
);
},
{
closed = 1;
nodes = (
(255,120,o),
(212,138,o),
(212,223,cs),
(212,306,o),
(234,331,o),
(281,331,cs),
(298,331,o),
(315,328,o),
(331,325,c),
(331,123,l),
(320,121,o),
(309,120,o),
(297,120,cs)
);
}
);
userData = {
com.hugojourdan.ColorFlow = {
"0" = 0;
"1" = 0;
"10" = 0;
"11" = 0;
"2" = 0;
"3" = 0;
"4" = 0;
"5" = 0;
"6" = 0;
"7" = 0;
"8" = 0;
"9" = 0;
};
};
width = 554;
}
);
metricLeft = d;
unicode = 598;
},
{
color = 3;
glyphname = dzaltone;
kernLeft = KO_o;
lastChange = "2024-02-13 15:29:05 +0000";
layers = (
{
layerId = "44B34E6E-EF7D-473C-A718-23DCC9FE612C";
shapes = (
{
closed = 1;
nodes = (
(773,0,l),
(778,44,l),
(509,40,l),
(764,418,l),
(764,450,l),
(394,450,l),
(389,406,l),
(702,410,l),
(453,36,l),
(453,0,l)
);
},
{
ref = d;
}
);
userData = {
com.hugojourdan.ColorFlow = {
"0" = 0;
"1" = 0;
"10" = 0;
"11" = 0;
"2" = 0;
"3" = 0;
"4" = 0;
"5" = 0;
"6" = 0;
"7" = 0;
"8" = 0;
"9" = 0;
};
};
width = 816;
},
{
layerId = m001;
shapes = (
{
closed = 1;
nodes = (
(965,0,l),
(978,132,l),
(796,132,l),
(960,313,l),
(960,450,l),
(506,450,l),
(493,312,l),
(727,312,l),
(561,124,l),
(561,0,l)
);
},
{
ref = d;
}
);
userData = {
com.hugojourdan.ColorFlow = {
"0" = 0;
"1" = 0;
"10" = 0;
"11" = 0;
"2" = 0;
"3" = 0;
"4" = 0;
"5" = 0;
"6" = 0;
"7" = 0;
"8" = 0;
"9" = 0;
};
};
width = 986;
}
);
metricLeft = d;
metricRight = z;
unicode = 675;
},
{
color = 3;
glyphname = dzcurl;
lastChange = "2024-02-13 15:29:05 +0000";
layers = (
{
layerId = "44B34E6E-EF7D-473C-A718-23DCC9FE612C";
shapes = (
{
ref = d;
},
{
closed = 1;
nodes = (
(646,78,o),
(678,131,o),
(721,133,cs),
(748,134,o),
(763,117,o),
(764,97,cs),
(766,65,o),
(730,40,o),
(669,40,cs),
(510,40,l),
(765,418,l),
(765,450,l),
(384,450,l),
(379,406,l),
(703,410,l),
(454,36,l),
(454,0,l),
(664,0,ls),
(748,0,o),
(810,36,o),
(810,99,cs),
(810,149,o),
(776,174,o),
(730,174,cs),
(664,174,o),
(613,117,o),
(514,-69,c),
(553,-91,l)
);
}
);
userData = {
com.hugojourdan.ColorFlow = {
"0" = 0;
"1" = 0;
"10" = 0;
"11" = 0;
"2" = 0;
"3" = 0;
"4" = 0;
"5" = 0;
"6" = 0;
"7" = 0;
"8" = 0;
"9" = 0;
};
};
width = 817;
},
{
layerId = m001;
shapes = (
{
ref = d;
},
{
closed = 1;
nodes = (
(893,118,o),
(912,149,o),
(935,149,cs),
(943,149,o),
(948,144,o),
(948,135,cs),
(948,125,o),
(933,115,o),
(912,115,cs),
(771,115,l),
(950,313,l),
(950,450,l),
(436,450,l),
(423,312,l),
(719,312,l),
(553,124,l),
(553,0,l),
(864,0,ls),
(1002,0,o),
(1042,75,o),
(1042,138,cs),
(1042,197,o),
(1004,243,o),
(948,243,cs),
(873,243,o),
(813,181,o),
(734,-67,c),
(823,-97,l)
);
}
);
userData = {
com.hugojourdan.ColorFlow = {
"0" = 0;
"1" = 0;
"10" = 0;
"11" = 0;
"2" = 0;
"3" = 0;
"4" = 0;
"5" = 0;
"6" = 0;
"7" = 0;
"8" = 0;
"9" = 0;
};
};
width = 1042;
},
{
anchors = (
{
name = top;
pos = (626,500);
}
);
associatedMasterId = "44B34E6E-EF7D-473C-A718-23DCC9FE612C";
layerId = "E530C90D-0B72-4F73-BFBB-4F71DBA47402";
name = "8 de sep. de 23, 14:19";
shapes = (
{
ref = d;
},
{
closed = 1;
nodes = (
(672,-13,ls),
(774,-18,o),
(832,38,o),
(832,100,cs),
(832,148,o),
(798,192,o),
(737,192,cs),
(664,192,o),
(597,144,o),
(560,59,c),
(477,62,l),
(752,391,l),
(752,450,l),
(396,450,l),
(390,382,l),
(647,384,l),
(377,59,l),
(377,0,l),
(539,-7,l),
(532,-36,o),
(529,-67,o),
(529,-101,c),
(594,-105,l),
(594,-71,o),
(598,-39,o),
(604,-10,c)
);
},
{
closed = 1;
nodes = (
(628,57,l),
(651,104,o),
(685,132,o),
(718,132,cs),
(746,132,o),
(760,117,o),
(760,99,cs),
(760,71,o),
(741,53,o),
(649,56,cs)
);
}
);
userData = {
com.hugojourdan.ColorFlow = {
"0" = 0;
"1" = 0;
"10" = 0;
"11" = 0;
"2" = 0;
"3" = 0;
"4" = 0;
"5" = 0;
"6" = 0;
"7" = 0;
"8" = 0;
"9" = 0;
};
};
width = 898;
}
);
metricLeft = d;
metricRight = zcurl;
unicode = 677;
},
{
color = 4;
glyphname = eth;
lastChange = "2023-09-08 16:00:25 +0000";
layers = (
{
layerId = m001;
shapes = (
{
closed = 1;
nodes = (
(393,-20,o),
(530,56,o),
(530,307,cs),
(530,395,o),
(492,523,o),
(368,618,c),
(432,661,l),
(356,726,l),
(276,673,l),
(237,691,o),
(193,706,o),
(142,718,c),
(74,639,l),
(105,622,o),
(133,607,o),
(157,592,c),
(77,539,l),
(156,474,l),
(242,532,l),
(264,513,o),
(281,493,o),
(293,469,c),
(286,470,o),
(278,470,o),
(270,470,cs),
(161,470,o),
(8,403,o),
(8,206,cs),
(8,41,o),
(129,-20,o),
(247,-20,cs)
);
},
{
closed = 1;
nodes = (
(237,117,o),
(210,151,o),
(210,223,cs),
(210,318,o),
(234,335,o),
(295,335,cs),
(305,335,o),
(314,334,o),
(323,332,c),
(325,311,o),
(325,289,o),
(325,265,cs),
(325,139,o),
(310,117,o),
(270,117,cs)
);
}
);
userData = {
com.hugojourdan.ColorFlow = {
"0" = 0;
"1" = 0;
"10" = 0;
"11" = 0;
"2" = 0;
"3" = 0;
"4" = 0;
"5" = 0;
"6" = 0;
"7" = 0;
"8" = 0;
"9" = 0;
};
};
width = 539;
},
{
layerId = "44B34E6E-EF7D-473C-A718-23DCC9FE612C";
shapes = (
{
closed = 1;
nodes = (
(357,-10,o),
(438,94,o),
(438,241,cs),
(438,393,o),
(392,511,o),
(283,602,c),
(406,668,l),
(386,696,l),
(253,626,l),
(215,653,o),
(171,677,o),
(120,699,c),
(93,675,l),
(137,653,o),
(176,630,o),
(211,604,c),
(96,543,l),
(116,514,l),
(240,580,l),
(289,538,o),
(326,491,o),
(351,436,c),
(317,454,o),
(282,459,o),
(259,459,cs),
(137,459,o),
(51,360,o),
(51,206,cs),
(51,67,o),
(136,-10,o),
(230,-10,cs)
);
},
{
closed = 1;
nodes = (
(173,30,o),
(97,90,o),
(97,230,cs),
(97,351,o),
(146,415,o),
(233,415,cs),
(281,415,o),
(332,407,o),
(371,386,c),
(386,338,o),
(394,286,o),
(394,229,cs),
(394,78,o),
(324,30,o),
(252,30,cs)
);
}
);
userData = {
com.hugojourdan.ColorFlow = {
"0" = 0;
"1" = 0;
"10" = 0;
"11" = 0;
"2" = 0;
"3" = 0;
"4" = 0;
"5" = 0;
"6" = 0;
"7" = 0;
"8" = 0;
"9" = 0;
};
};
width = 481;
}
);
unicode = 240;
},
{
color = 4;
glyphname = e;
kernLeft = KO_e;
kernRight = KO_e;
lastChange = "2023-12-16 20:48:22 +0000";
layers = (
{
anchors = (
{
name = bottom;
pos = (228,0);
},
{
name = ogonek;
pos = (426,10);
},
{
name = top;
pos = (274,500);
}
);
layerId = m001;
shapes = (
{
closed = 1;
nodes = (
(332,-20,o),
(403,0,o),
(451,27,c),
(422,151,l),
(381,135,o),
(333,124,o),
(280,124,cs),
(257,124,o),
(231,130,o),
(214,156,cs),
(209,163,o),
(206,170,o),
(203,179,c),
(439,179,l),
(442,198,o),
(446,233,o),
(446,253,cs),
(446,352,o),
(432,470,o),
(255,470,cs),
(97,470,o),
(8,368,o),
(8,211,cs),
(8,38,o),
(122,-20,o),
(236,-20,cs)
);
},
{
closed = 1;
nodes = (
(199,337,o),
(208,353,o),
(228,353,cs),
(255,353,o),
(275,331,o),
(275,285,c),
(197,285,l)
);
}
);
userData = {
com.hugojourdan.ColorFlow = {
"0" = 0;
"1" = 0;
"10" = 0;
"11" = 0;
"2" = 0;
"3" = 0;
"4" = 0;
"5" = 0;
"6" = 0;
"7" = 0;
"8" = 0;
"9" = 0;
};
};
width = 471;
},
{
anchors = (
{
name = bottom;
pos = (224,0);
},
{
name = ogonek;
pos = (396,10);
},
{
name = top;
pos = (238,500);
}
);
layerId = "44B34E6E-EF7D-473C-A718-23DCC9FE612C";
shapes = (
{
closed = 1;
nodes = (
(300,-11,o),
(352,2,o),
(400,21,c),
(390,55,l),
(346,36,o),
(307,30,o),
(265,30,cs),
(180,30,o),
(98,82,o),
(98,223,cs),
(98,233,o),
(98,243,o),
(99,252,c),
(397,252,l),
(398,263,o),
(399,284,o),
(399,304,cs),
(399,403,o),
(330,459,o),
(244,459,cs),
(137,459,o),
(51,375,o),
(51,215,cs),
(51,64,o),
(137,-11,o),
(255,-11,cs)
);
},
{
closed = 1;
nodes = (
(114,389,o),
(158,422,o),
(232,422,cs),
(310,422,o),
(348,378,o),
(348,289,c),
(102,289,l)
);
}
);
userData = {
com.hugojourdan.ColorFlow = {
"0" = 0;
"1" = 0;
"10" = 0;
"11" = 0;
"2" = 0;
"3" = 0;
"4" = 0;
"5" = 0;
"6" = 0;
"7" = 0;
"8" = 0;
"9" = 0;
};
};
width = 441;
}
);
unicode = 101;
userData = {
KernOnName = e;
};
},
{
color = 11;
glyphname = eopenclosed;
lastChange = "2024-05-16 06:47:52 +0000";
layers = (
{
layerId = "44B34E6E-EF7D-473C-A718-23DCC9FE612C";
shapes = (
{
closed = 1;
nodes = (
(338,-13,o),
(440,61,o),
(441,216,cs),
(442,378,o),
(370,460,o),
(234,460,cs),
(131,460,o),
(58,413,o),
(58,338,cs),
(58,282,o),
(90,243,o),
(148,229,c),
(82,219,o),
(44,177,o),
(44,117,cs),
(44,33,o),
(116,-13,o),
(200,-13,cs)
);
},
{
closed = 1;
nodes = (
(134,27,o),
(89,66,o),
(88,115,cs),
(86,189,o),
(145,212,o),
(210,216,cs),
(228,217,o),
(245,215,o),
(258,213,c),
(266,248,l),
(140,252,o),
(98,286,o),
(98,347,cs),
(98,402,o),
(152,427,o),
(213,427,cs),
(310,427,o),
(395,364,o),
(393,239,cs),
(391,77,o),
(334,27,o),
(215,27,cs)
);
}
);
userData = {
com.hugojourdan.ColorFlow = {
"0" = 0;
"1" = 0;
"10" = 0;
"11" = 0;
"2" = 0;
"3" = 0;
"4" = 0;
"5" = 0;
"6" = 0;
"7" = 0;
"8" = 0;
"9" = 0;
};
};
width = 485;
},
{
layerId = m001;
shapes = (
{
closed = 1;
nodes = (
(408,-19,o),
(515,43,o),
(515,215,cs),
(515,391,o),
(426,470,o),
(264,470,cs),
(123,470,o),
(34,407,o),
(34,321,cs),
(34,285,o),
(55,243,o),
(105,228,c),
(44,215,o),
(14,178,o),
(14,127,cs),
(14,40,o),
(116,-19,o),
(248,-19,cs)
);
},
{
closed = 1;
nodes = (
(215,121,o),
(193,133,o),
(194,146,cs),
(195,160,o),
(208,166,o),
(227,169,cs),
(240,171,o),
(284,172,o),
(289,171,c),
(298,280,l),
(213,280,o),
(199,292,o),
(199,307,cs),
(199,321,o),
(207,332,o),
(240,332,cs),
(293,332,o),
(317,312,o),
(317,225,cs),
(317,146,o),
(302,121,o),
(239,121,cs)
);
}
);
userData = {
com.hugojourdan.ColorFlow = {
"0" = 0;
"1" = 0;
"10" = 0;
"11" = 0;
"2" = 0;
"3" = 0;
"4" = 0;
"5" = 0;
"6" = 0;
"7" = 0;
"8" = 0;
"9" = 0;
};
};
width = 529;
}
);
metricLeft = eopenreversedclosed;
metricRight = eopenreversedclosed;
unicode = 666;
},
{
color = 3;
glyphname = eopenreversed;
lastChange = "2024-02-13 15:30:31 +0000";
layers = (
{
layerId = "44B34E6E-EF7D-473C-A718-23DCC9FE612C";
shapes = (
{
pos = (373,0);
ref = eopen;
scale = (-1,1);
}
);
userData = {
com.hugojourdan.ColorFlow = {
"0" = 0;
"1" = 0;
"10" = 0;
"11" = 0;
"2" = 0;
"3" = 0;
"4" = 0;
"5" = 0;
"6" = 0;
"7" = 0;
"8" = 0;
"9" = 0;
};
};
width = 373;
},
{
layerId = m001;
shapes = (
{
pos = (409,0);
ref = eopen;
scale = (-1,1);
}
);
userData = {
com.hugojourdan.ColorFlow = {
"0" = 0;
"1" = 0;
"10" = 0;
"11" = 0;
"2" = 0;
"3" = 0;
"4" = 0;
"5" = 0;
"6" = 0;
"7" = 0;
"8" = 0;
"9" = 0;
};
};
width = 409;
},
{
associatedMasterId = m001;
layerId = "88B5B1FA-B580-4542-BFA2-FD62366913D9";
name = "14 de dic. de 23, 10:01";
shapes = (
{
closed = 1;
nodes = (
(43,-5,o),
(110,-20,o),
(224,-20,cs),
(330,-20,o),
(421,31,o),
(421,118,cs),
(421,178,o),
(391,221,o),
(331,236,c),
(378,253,o),
(408,285,o),
(408,341,cs),
(408,417,o),
(326,465,o),
(250,470,cs),
(184,474,o),
(74,452,o),
(37,438,c),
(71,304,l),
(90,313,o),
(135,329,o),
(182,329,cs),
(206,329,o),
(223,320,o),
(223,304,cs),
(223,286,o),
(156,275,o),
(97,275,c),
(102,174,l),
(113,174,o),
(168,175,o),
(184,173,cs),
(213,170,o),
(231,161,o),
(231,144,cs),
(231,126,o),
(215,118,o),
(174,118,cs),
(121,118,o),
(81,135,o),
(59,144,c),
(18,10,l)
);
}
);
userData = {
com.hugojourdan.ColorFlow = {
"0" = 0;
"1" = 0;
"10" = 0;
"11" = 0;
"2" = 0;
"3" = 0;
"4" = 0;
"5" = 0;
"6" = 0;
"7" = 0;
"8" = 0;
"9" = 0;
};
};
width = 449;
}
);
unicode = 604;
},
{
color = 1;
glyphname = eopenreversedclosed;
lastChange = "2024-04-13 17:21:59 +0000";
layers = (
{
layerId = "44B34E6E-EF7D-473C-A718-23DCC9FE612C";
shapes = (
{
closed = 1;
nodes = (
(368,-12,o),
(448,47,o),
(448,127,cs),
(448,188,o),
(403,227,o),
(337,237,c),
(395,251,o),
(434,286,o),
(434,342,cs),
(434,415,o),
(374,461,o),
(262,461,cs),
(135,461,o),
(43,379,o),
(44,217,cs),
(45,74,o),
(126,-12,o),
(264,-12,cs)
);
},
{
closed = 1;
nodes = (
(151,27,o),
(94,97,o),
(92,239,cs),
(91,364,o),
(143,424,o),
(249,424,cs),
(333,424,o),
(384,396,o),
(387,339,cs),
(389,286,o),
(345,252,o),
(219,248,c),
(227,213,l),
(240,215,o),
(257,217,o),
(275,216,cs),
(340,212,o),
(398,180,o),
(397,115,cs),
(397,62,o),
(358,27,o),
(270,27,cs)
);
}
);
userData = {
com.hugojourdan.ColorFlow = {
"0" = 0;
"1" = 0;
"10" = 0;
"11" = 0;
"2" = 0;
"3" = 0;
"4" = 0;
"5" = 0;
"6" = 0;
"7" = 0;
"8" = 0;
"9" = 0;
};
};
width = 492;
},
{
layerId = m001;
shapes = (
{
closed = 1;
nodes = (
(413,-19,o),
(515,40,o),
(515,127,cs),
(515,188,o),
(485,225,o),
(424,235,c),
(474,250,o),
(503,292,o),
(503,336,cs),
(503,417,o),
(426,470,o),
(285,470,cs),
(123,470,o),
(14,371,o),
(14,215,cs),
(14,43,o),
(121,-19,o),
(281,-19,cs)
);
},
{
closed = 1;
nodes = (
(247,121,o),
(212,146,o),
(212,225,cs),
(212,312,o),
(226,332,o),
(279,332,cs),
(312,332,o),
(330,321,o),
(330,307,cs),
(330,292,o),
(286,280,o),
(231,280,c),
(240,171,l),
(245,172,o),
(289,171,o),
(302,169,cs),
(321,166,o),
(335,160,o),
(335,146,cs),
(336,127,o),
(314,121,o),
(290,121,cs)
);
}
);
userData = {
com.hugojourdan.ColorFlow = {
"0" = 0;
"1" = 0;
"10" = 0;
"11" = 0;
"2" = 0;
"3" = 0;
"4" = 0;
"5" = 0;
"6" = 0;
"7" = 0;
"8" = 0;
"9" = 0;
};
};
width = 529;
},
{
associatedMasterId = m001;
layerId = "9E061B7B-2922-4BC5-8936-E18B26B0A431";
name = "8 de sep. de 23, 11:31";
shapes = (
{
closed = 1;
nodes = (
(143,-5,o),
(210,-20,o),
(324,-20,cs),
(430,-20,o),
(521,31,o),
(521,118,cs),
(521,178,o),
(491,221,o),
(431,236,c),
(478,253,o),
(508,285,o),
(508,341,cs),
(508,417,o),
(426,465,o),
(350,470,cs),
(284,474,o),
(174,452,o),
(137,438,c),
(171,304,l),
(190,313,o),
(235,329,o),
(282,329,cs),
(306,329,o),
(323,320,o),
(323,304,cs),
(323,286,o),
(256,275,o),
(197,275,c),
(202,174,l),
(213,174,o),
(268,175,o),
(284,173,cs),
(313,170,o),
(331,161,o),
(331,144,cs),
(331,126,o),
(315,118,o),
(274,118,cs),
(221,118,o),
(181,135,o),
(159,144,c),
(118,10,l)
);
}
);
userData = {
com.hugojourdan.ColorFlow = {
"0" = 0;
"1" = 0;
"10" = 0;
"11" = 0;
"2" = 0;
"3" = 0;
"4" = 0;
"5" = 0;
"6" = 0;
"7" = 0;
"8" = 0;
"9" = 0;
};
};
visible = 1;
width = 600;
}
);
metricLeft = o;
metricRight = eopenreversed;
unicode = 606;
},
{
color = 3;
glyphname = eopenreversedhook;
lastChange = "2024-02-13 15:30:36 +0000";
layers = (
{
layerId = "44B34E6E-EF7D-473C-A718-23DCC9FE612C";
shapes = (
{
closed = 1;
nodes = (
(416,357,l),
(402,391,l),
(295,359,l),
(306,326,l)
);
},
{
ref = eopenreversed;
},
{
closed = 1;
nodes = (
(336,204,o),
(363,173,o),
(406,173,cs),
(436,173,o),
(453,183,o),
(471,193,c),
(460,220,l),
(454,217,o),
(440,206,o),
(418,206,cs),
(400,206,o),
(377,220,o),
(377,256,cs),
(377,286,o),
(387,312,o),
(416,357,c),
(377,357,l),
(352,320,o),
(336,286,o),
(336,246,cs)
);
}
);
userData = {
com.hugojourdan.ColorFlow = {
"0" = 0;
"1" = 0;
"10" = 0;
"11" = 0;
"2" = 0;
"3" = 0;
"4" = 0;
"5" = 0;
"6" = 0;
"7" = 0;
"8" = 0;
"9" = 0;
};
};
width = 471;
},
{
layerId = m001;
shapes = (
{
closed = 1;
nodes = (
(554,346,l),
(527,452,l),
(291,390,l),
(315,285,l)
);
},
{
ref = eopenreversed;
},
{
closed = 1;
nodes = (
(406,166,o),
(460,123,o),
(530,123,cs),
(569,123,o),
(600,134,o),
(618,144,c),
(606,228,l),
(588,221,o),
(573,218,o),
(559,218,cs),
(535,218,o),
(520,235,o),
(520,254,cs),
(520,274,o),
(525,287,o),
(554,346,c),
(464,346,l),
(429,307,o),
(406,270,o),
(406,228,cs)
);
}
);
userData = {
com.hugojourdan.ColorFlow = {
"0" = 0;
"1" = 0;
"10" = 0;
"11" = 0;
"2" = 0;
"3" = 0;
"4" = 0;
"5" = 0;
"6" = 0;
"7" = 0;
"8" = 0;
"9" = 0;
};
};
width = 618;
},
{
associatedMasterId = "44B34E6E-EF7D-473C-A718-23DCC9FE612C";
layerId = "77CA8AC9-9381-4DA6-A08D-CD03461C9E23";
name = "14 de dic. de 23, 15:52";
shapes = (
{
closed = 1;
nodes = (
(361,342,l),
(337,312,o),
(339,283,o),
(346,265,cs),
(356,234,o),
(402,203,o),
(462,236,c),
(442,268,l),
(408,253,o),
(381,263,o),
(376,284,cs),
(372,301,o),
(380,330,o),
(411,357,c),
(397,391,l),
(290,359,l),
(301,326,l)
);
},
{
ref = eopenreversed;
},
{
closed = 1;
nodes = (
(518,244,o),
(545,213,o),
(588,213,cs),
(618,213,o),
(635,223,o),
(653,233,c),
(642,260,l),
(636,257,o),
(622,246,o),
(600,246,cs),
(582,246,o),
(559,260,o),
(559,296,cs),
(559,326,o),
(569,352,o),
(598,397,c),
(559,397,l),
(534,360,o),
(518,326,o),
(518,286,cs)
);
}
);
userData = {
com.hugojourdan.ColorFlow = {
"0" = 0;
"1" = 0;
"10" = 0;
"11" = 0;
"2" = 0;
"3" = 0;
"4" = 0;
"5" = 0;
"6" = 0;
"7" = 0;
"8" = 0;
"9" = 0;
};
};
visible = 1;
width = 462;
}
);
metricLeft = eopenreversed;
unicode = 605;
},
{
color = 3;
glyphname = ereversed;
lastChange = "2024-02-13 15:30:36 +0000";
layers = (
{
layerId = "44B34E6E-EF7D-473C-A718-23DCC9FE612C";
shapes = (
{
closed = 1;
nodes = (
(284,-11,o),
(390,64,o),
(390,252,cs),
(390,375,o),
(324,459,o),
(217,459,cs),
(121,459,o),
(42,392,o),
(42,293,cs),
(42,273,o),
(43,263,o),
(44,252,c),
(342,252,l),
(343,243,o),
(343,233,o),
(343,223,cs),
(343,82,o),
(276,30,o),
(180,30,cs),
(134,30,o),
(98,37,o),
(51,55,c),
(41,21,l),
(85,0,o),
(121,-11,o),
(166,-11,cs)
);
},
{
closed = 1;
nodes = (
(93,378,o),
(111,422,o),
(189,422,cs),
(263,422,o),
(327,389,o),
(339,289,c),
(93,289,l)
);
}
);
userData = {
com.hugojourdan.ColorFlow = {
"0" = 0;
"1" = 0;
"10" = 0;
"11" = 0;
"2" = 0;
"3" = 0;
"4" = 0;
"5" = 0;
"6" = 0;
"7" = 0;
"8" = 0;
"9" = 0;
};
};
width = 434;
},
{
layerId = m001;
shapes = (
{
closed = 1;
nodes = (
(314,-20,o),
(458,38,o),
(458,237,cs),
(458,368,o),
(409,470,o),
(251,470,cs),
(88,470,o),
(20,352,o),
(20,253,cs),
(20,233,o),
(24,198,o),
(27,179,c),
(263,179,l),
(260,170,o),
(257,163,o),
(252,156,cs),
(235,130,o),
(209,124,o),
(186,124,cs),
(133,124,o),
(85,135,o),
(44,151,c),
(15,27,l),
(63,0,o),
(104,-20,o),
(200,-20,cs)
);
},
{
closed = 1;
nodes = (
(191,331,o),
(191,353,o),
(218,353,cs),
(238,353,o),
(267,337,o),
(269,285,c),
(191,285,l)
);
}
);
userData = {
com.hugojourdan.ColorFlow = {
"0" = 0;
"1" = 0;
"10" = 0;
"11" = 0;
"2" = 0;
"3" = 0;
"4" = 0;
"5" = 0;
"6" = 0;
"7" = 0;
"8" = 0;
"9" = 0;
};
};
width = 473;
}
);
metricRight = o;
unicode = 600;
},
{
color = 11;
glyphname = eshcurl;
lastChange = "2024-05-16 06:47:58 +0000";
layers = (
{
layerId = "44B34E6E-EF7D-473C-A718-23DCC9FE612C";
shapes = (
{
closed = 1;
nodes = (
(172,-225,o),
(266,-174,o),
(260,-9,cs),
(242,489,ls),
(237,623,o),
(286,645,o),
(369,664,c),
(358,698,l),
(265,698,o),
(190,602,o),
(194,482,cs),
(212,-16,ls),
(217,-165,o),
(154,-183,o),
(122,-184,cs),
(95,-185,o),
(79,-168,o),
(79,-148,cs),
(79,-116,o),
(104,-91,o),
(174,-91,cs),
(223,-91,o),
(279,-98,o),
(333,-106,c),
(333,-64,l),
(271,-55,o),
(224,-51,o),
(179,-51,cs),
(95,-51,o),
(33,-87,o),
(33,-150,cs),
(33,-194,o),
(67,-225,o),
(113,-225,cs)
);
}
);
userData = {
com.hugojourdan.ColorFlow = {
"0" = 0;
"1" = 0;
"10" = 0;
"11" = 0;
"2" = 0;
"3" = 0;
"4" = 0;
"5" = 0;
"6" = 0;
"7" = 0;
"8" = 0;
"9" = 0;
};
};
width = 369;
},
{
layerId = m001;
shapes = (
{
closed = 1;
nodes = (
(317,-243,o),
(432,-163,o),
(426,-15,cs),
(406,510,ls),
(405,541,o),
(436,570,o),
(480,567,c),
(448,717,l),
(272,717,o),
(208,611,o),
(212,491,cs),
(230,-7,ls),
(234,-118,o),
(217,-135,o),
(197,-135,cs),
(187,-135,o),
(182,-130,o),
(182,-121,cs),
(182,-111,o),
(192,-101,o),
(218,-101,cs),
(271,-101,o),
(405,-102,o),
(491,-113,c),
(491,-19,l),
(411,-8,o),
(313,-4,o),
(225,-4,cs),
(128,-4,o),
(88,-72,o),
(88,-130,cs),
(88,-201,o),
(142,-243,o),
(216,-243,cs)
);
}
);
userData = {
com.hugojourdan.ColorFlow = {
"0" = 0;
"1" = 0;
"10" = 0;
"11" = 0;
"2" = 0;
"3" = 0;
"4" = 0;
"5" = 0;
"6" = 0;
"7" = 0;
"8" = 0;
"9" = 0;
};
};
width = 480;
}
);
unicode = 646;
},
{
color = 11;
glyphname = eshsquatreversed;
lastChange = "2024-05-16 06:48:03 +0000";
layers = (
{
layerId = "44B34E6E-EF7D-473C-A718-23DCC9FE612C";
shapes = (
{
closed = 1;
nodes = (
(292,-191,l),
(185,-179,o),
(160,-139,o),
(165,-16,cs),
(175,244,ls),
(181,401,o),
(127,460,o),
(11,460,c),
(0,426,l),
(99,426,o),
(132,385,o),
(127,251,cs),
(117,-9,ls),
(111,-169,o),
(154,-225,o),
(281,-225,c)
);
}
);
userData = {
com.hugojourdan.ColorFlow = {
"0" = 0;
"1" = 0;
"10" = 0;
"11" = 0;
"2" = 0;
"3" = 0;
"4" = 0;
"5" = 0;
"6" = 0;
"7" = 0;
"8" = 0;
"9" = 0;
};
};
width = 292;
},
{
layerId = m001;
shapes = (
{
closed = 1;
nodes = (
(331,-94,l),
(287,-97,o),
(256,-68,o),
(257,-37,cs),
(268,243,ls),
(273,363,o),
(208,469,o),
(32,469,c),
(0,319,l),
(44,322,o),
(75,293,o),
(74,262,cs),
(63,-15,l),
(63,-135,o),
(123,-244,o),
(299,-244,c)
);
}
);
userData = {
com.hugojourdan.ColorFlow = {
"0" = 0;
"1" = 0;
"10" = 0;
"11" = 0;
"2" = 0;
"3" = 0;
"4" = 0;
"5" = 0;
"6" = 0;
"7" = 0;
"8" = 0;
"9" = 0;
};
};
width = 331;
}
);
unicode = 645;
},
{
color = 3;
glyphname = schwahook;
lastChange = "2024-02-13 15:30:44 +0000";
layers = (
{
layerId = "44B34E6E-EF7D-473C-A718-23DCC9FE612C";
shapes = (
{
closed = 1;
nodes = (
(354,286,l),
(44,196,l),
(35,100,o),
(61,-11,o),
(197,-11,cs),
(304,-11,o),
(390,73,o),
(390,233,cs),
(390,384,o),
(304,459,o),
(186,459,cs),
(141,459,o),
(89,446,o),
(41,427,c),
(51,393,l),
(95,412,o),
(134,418,o),
(176,418,cs),
(261,418,o),
(343,366,o),
(343,225,cs),
(343,135,o),
(333,26,o),
(209,26,cs),
(131,26,o),
(88,75,o),
(88,174,c),
(361,249,l)
);
},
{
closed = 1;
nodes = (
(506,291,l),
(492,325,l),
(366,288,l),
(377,255,l)
);
},
{
closed = 1;
nodes = (
(426,138,o),
(453,107,o),
(496,107,cs),
(526,107,o),
(543,117,o),
(561,127,c),
(550,154,l),
(544,151,o),
(530,140,o),
(508,140,cs),
(490,140,o),
(467,154,o),
(467,190,cs),
(467,220,o),
(477,246,o),
(506,291,c),
(467,291,l),
(442,254,o),
(426,220,o),
(426,180,cs)
);
}
);
userData = {
com.hugojourdan.ColorFlow = {
"0" = 0;
"1" = 0;
"10" = 0;
"11" = 0;
"2" = 0;
"3" = 0;
"4" = 0;
"5" = 0;
"6" = 0;
"7" = 0;
"8" = 0;
"9" = 0;
};
};
width = 561;
},
{
layerId = m001;
shapes = (
{
closed = 1;
nodes = (
(355,301,l),
(24,216,l),
(11,140,o),
(17,-20,o),
(216,-20,cs),
(374,-20,o),
(463,82,o),
(463,239,cs),
(463,412,o),
(349,470,o),
(235,470,cs),
(139,470,o),
(68,450,o),
(20,423,c),
(49,299,l),
(90,315,o),
(138,326,o),
(191,326,cs),
(214,326,o),
(240,320,o),
(257,294,cs),
(276,268,o),
(302,106,o),
(243,97,cs),
(206,91,o),
(191,125,o),
(191,152,c),
(375,198,l)
);
},
{
closed = 1;
nodes = (
(634,263,l),
(607,369,l),
(371,307,l),
(395,202,l)
);
},
{
closed = 1;
nodes = (
(486,83,o),
(540,40,o),
(610,40,cs),
(649,40,o),
(680,51,o),
(698,61,c),
(686,145,l),
(668,138,o),
(653,135,o),
(639,135,cs),
(615,135,o),
(600,152,o),
(600,171,cs),
(600,191,o),
(605,204,o),
(634,263,c),
(544,263,l),
(509,224,o),
(486,187,o),
(486,145,cs)
);
}
);
userData = {
com.hugojourdan.ColorFlow = {
"0" = 0;
"1" = 0;
"10" = 0;
"11" = 0;
"2" = 0;
"3" = 0;
"4" = 0;
"5" = 0;
"6" = 0;
"7" = 0;
"8" = 0;
"9" = 0;
};
};
width = 698;
}
);
unicode = 602;
},
{
color = 3;
glyphname = ezh;
lastChange = "2024-02-13 15:30:44 +0000";
layers = (
{
layerId = "44B34E6E-EF7D-473C-A718-23DCC9FE612C";
shapes = (
{
closed = 1;
nodes = (
(269,-196,o),
(383,-127,o),
(383,-3,cs),
(383,100,o),
(279,173,o),
(168,174,c),
(365,416,l),
(365,450,l),
(44,450,l),
(39,400,l),
(298,404,l),
(110,174,l),
(122,133,l),
(133,134,o),
(142,134,o),
(155,134,cs),
(244,134,o),
(334,70,o),
(334,-14,cs),
(334,-96,o),
(268,-150,o),
(181,-150,cs),
(136,-150,o),
(98,-143,o),
(41,-119,c),
(24,-165,l),
(61,-182,o),
(115,-191,o),
(149,-192,cs)
);
}
);
userData = {
com.hugojourdan.ColorFlow = {
"0" = 0;
"1" = 0;
"10" = 0;
"11" = 0;
"2" = 0;
"3" = 0;
"4" = 0;
"5" = 0;
"6" = 0;
"7" = 0;
"8" = 0;
"9" = 0;
};
};
width = 421;
},
{
layerId = m001;
shapes = (
{
closed = 1;
nodes = (
(322,-224,o),
(453,-121,o),
(453,5,cs),
(453,92,o),
(401,158,o),
(287,176,c),
(433,313,l),
(433,450,l),
(27,450,l),
(14,302,l),
(218,302,l),
(73,164,l),
(86,63,l),
(108,65,o),
(141,68,o),
(168,68,cs),
(224,68,o),
(255,31,o),
(255,-6,cs),
(255,-46,o),
(217,-84,o),
(165,-84,cs),
(117,-84,o),
(74,-66,o),
(33,-50,c),
(0,-192,l),
(27,-201,o),
(67,-224,o),
(165,-224,cs)
);
}
);
userData = {
com.hugojourdan.ColorFlow = {
"0" = 0;
"1" = 0;
"10" = 0;
"11" = 0;
"2" = 0;
"3" = 0;
"4" = 0;
"5" = 0;
"6" = 0;
"7" = 0;
"8" = 0;
"9" = 0;
};
};
width = 461;
}
);
metricRight = z;
unicode = 658;
},
{
color = 11;
glyphname = ezhcurl;
lastChange = "2024-05-16 06:48:11 +0000";
layers = (
{
layerId = "44B34E6E-EF7D-473C-A718-23DCC9FE612C";
shapes = (
{
closed = 1;
nodes = (
(82,-190,o),
(140,-192,cs),
(260,-196,o),
(374,-127,o),
(374,-3,cs),
(374,100,o),
(270,173,o),
(159,174,c),
(356,416,l),
(356,450,l),
(35,450,l),
(30,400,l),
(289,404,l),
(101,174,l),
(113,133,l),
(124,134,o),
(133,134,o),
(146,134,cs),
(235,134,o),
(325,70,o),
(325,-14,cs),
(325,-96,o),
(234,-153,o),
(139,-150,cs),
(107,-149,o),
(44,-137,o),
(44,-88,cs),
(44,-65,o),
(64,-41,o),
(100,-41,cs),
(141,-41,o),
(186,-45,o),
(363,-181,c),
(390,-148,l),
(203,-9,o),
(144,0,o),
(96,-1,cs),
(38,-2,o),
(0,-36,o),
(0,-89,cs),
(0,-169,o)
);
}
);
userData = {
com.hugojourdan.ColorFlow = {
"0" = 0;
"1" = 0;
"10" = 0;
"11" = 0;
"2" = 0;
"3" = 0;
"4" = 0;
"5" = 0;
"6" = 0;
"7" = 0;
"8" = 0;
"9" = 0;
};
};
width = 390;
},
{
layerId = m001;
shapes = (
{
closed = 1;
nodes = (
(81,-234,o),
(184,-234,cs),
(341,-234,o),
(507,-121,o),
(507,5,cs),
(507,92,o),
(455,158,o),
(341,176,c),
(487,313,l),
(487,450,l),
(81,450,l),
(68,302,l),
(272,302,l),
(127,164,l),
(140,63,l),
(162,65,o),
(195,68,o),
(222,68,cs),
(278,68,o),
(309,31,o),
(309,-6,cs),
(309,-78,o),
(186,-100,o),
(129,-100,cs),
(108,-100,o),
(93,-92,o),
(93,-80,cs),
(93,-68,o),
(110,-63,o),
(118,-63,cs),
(141,-63,o),
(190,-87,o),
(338,-277,c),
(420,-221,l),
(255,-3,o),
(194,31,o),
(119,31,cs),
(55,31,o),
(0,-16,o),
(0,-79,cs),
(0,-170,o)
);
}
);
userData = {
com.hugojourdan.ColorFlow = {
"0" = 0;
"1" = 0;
"10" = 0;
"11" = 0;
"2" = 0;
"3" = 0;
"4" = 0;
"5" = 0;
"6" = 0;
"7" = 0;
"8" = 0;
"9" = 0;
};
};
width = 507;
}
);
unicode = 659;
},
{
color = 4;
glyphname = f;
kernLeft = KO_f;
kernRight = KO_f;
lastChange = "2023-12-16 20:48:22 +0000";
layers = (
{
layerId = m001;
shapes = (
{
closed = 1;
nodes = (
(268,0,l),
(268,321,l),
(353,321,l),
(365,451,l),
(268,451,l),
(268,497,ls),
(268,549,o),
(290,571,o),
(330,571,cs),
(348,571,o),
(380,565,o),
(382,564,c),
(420,705,l),
(401,711,o),
(356,717,o),
(323,717,cs),
(204,717,o),
(74,649,o),
(74,491,cs),
(74,451,l),
(13,440,l),
(13,321,l),
(74,321,l),
(74,0,l)
);
}
);
userData = {
com.hugojourdan.ColorFlow = {
"0" = 0;
"1" = 0;
"10" = 0;
"11" = 0;
"2" = 0;
"3" = 0;
"4" = 0;
"5" = 0;
"6" = 0;
"7" = 0;
"8" = 0;
"9" = 0;
};
};
width = 347;
},
{
layerId = "44B34E6E-EF7D-473C-A718-23DCC9FE612C";
shapes = (
{
closed = 1;
nodes = (
(154,0,l),
(154,413,l),
(276,413,l),
(281,450,l),
(154,450,l),
(154,548,ls),
(154,626,o),
(195,659,o),
(238,659,cs),
(266,659,o),
(287,657,o),
(313,652,c),
(317,694,l),
(306,696,o),
(294,698,o),
(282,698,cs),
(174,698,o),
(106,638,o),
(106,491,cs),
(106,450,l),
(45,440,l),
(45,413,l),
(106,413,l),
(106,0,l)
);
}
);
userData = {
com.hugojourdan.ColorFlow = {
"0" = 0;
"1" = 0;
"10" = 0;
"11" = 0;
"2" = 0;
"3" = 0;
"4" = 0;
"5" = 0;
"6" = 0;
"7" = 0;
"8" = 0;
"9" = 0;
};
};
width = 302;
}
);
unicode = 102;
userData = {
KernOnName = f;
};
},
{
color = 3;
glyphname = fengdigraph;
lastChange = "2024-02-13 15:31:13 +0000";
layers = (
{
anchors = (
{
name = bottom;
pos = (555,0);
},
{
name = top;
pos = (555,500);
}
);
layerId = "44B34E6E-EF7D-473C-A718-23DCC9FE612C";
shapes = (
{
closed = 1;
nodes = (
(578,-217,o),
(641,-186,o),
(673,-129,cs),
(692,-94,o),
(696,-87,o),
(696,0,cs),
(696,329,ls),
(696,403,o),
(648,459,o),
(563,459,cs),
(523,459,o),
(454,428,o),
(416,406,c),
(405,459,l),
(369,450,l),
(369,0,l),
(417,0,l),
(417,375,l),
(460,394,o),
(507,413,o),
(550,413,cs),
(612,413,o),
(648,369,o),
(648,305,cs),
(648,0,ls),
(648,-57,o),
(647,-101,o),
(621,-133,cs),
(593,-169,o),
(540,-181,o),
(506,-184,c),
(520,-221,l)
);
},
{
closed = 1;
nodes = (
(154,0,l),
(154,413,l),
(376,413,l),
(381,450,l),
(154,450,l),
(154,548,ls),
(154,626,o),
(195,659,o),
(238,659,cs),
(266,659,o),
(287,657,o),
(313,652,c),
(317,694,l),
(306,696,o),
(294,698,o),
(282,698,cs),
(174,698,o),
(106,638,o),
(106,491,cs),
(106,450,l),
(45,440,l),
(45,413,l),
(106,413,l),
(106,0,l)
);
}
);
userData = {
com.hugojourdan.ColorFlow = {
"0" = 0;
"1" = 0;
"10" = 0;
"11" = 0;
"2" = 0;
"3" = 0;
"4" = 0;
"5" = 0;
"6" = 0;
"7" = 0;
"8" = 0;
"9" = 0;
};
};
width = 773;
},
{
anchors = (
{
name = bottom;
pos = (604,0);
},
{
name = top;
pos = (604,500);
}
);
layerId = m001;
shapes = (
{
closed = 1;
nodes = (
(637,-232,o),
(685,-211,o),
(725,-177,cs),
(782,-128,o),
(820,-54,o),
(820,35,cs),
(820,329,ls),
(820,435,o),
(750,470,o),
(668,470,cs),
(608,470,o),
(557,451,o),
(514,430,c),
(484,470,l),
(347,447,l),
(347,0,l),
(541,0,l),
(541,323,l),
(548,328,o),
(562,333,o),
(578,333,cs),
(608,333,o),
(626,313,o),
(626,273,cs),
(626,19,ls),
(626,-20,o),
(619,-46,o),
(602,-64,cs),
(589,-79,o),
(570,-88,o),
(541,-93,c),
(586,-237,l)
);
},
{
closed = 1;
nodes = (
(268,0,l),
(268,321,l),
(353,321,l),
(365,450,l),
(268,450,l),
(268,497,ls),
(268,549,o),
(290,571,o),
(330,571,cs),
(348,571,o),
(380,565,o),
(382,564,c),
(420,705,l),
(401,711,o),
(356,717,o),
(323,717,cs),
(204,717,o),
(74,649,o),
(74,491,cs),
(74,450,l),
(13,440,l),
(13,321,l),
(74,321,l),
(74,0,l)
);
}
);
userData = {
com.hugojourdan.ColorFlow = {
"0" = 0;
"1" = 0;
"10" = 0;
"11" = 0;
"2" = 0;
"3" = 0;
"4" = 0;
"5" = 0;
"6" = 0;
"7" = 0;
"8" = 0;
"9" = 0;
};
};
width = 852;
}
);
metricLeft = f;
metricRight = eng;
unicode = 681;
},
{
color = 4;
glyphname = g;
kernLeft = KO_g;
kernRight = KO_g;
lastChange = "2023-12-16 20:48:22 +0000";
layers = (
{
anchors = (
{
name = top;
pos = (213,500);
}
);
layerId = m001;
shapes = (
{
closed = 1;
nodes = (
(361,-240,o),
(477,-133,o),
(477,-12,cs),
(477,83,o),
(426,115,o),
(327,115,cs),
(215,115,ls),
(192,115,o),
(182,123,o),
(182,134,cs),
(182,136,o),
(182,139,o),
(183,141,c),
(279,141,o),
(339,161,o),
(388,211,cs),
(438,262,o),
(430,327,o),
(429,332,c),
(458,325,l),
(477,325,l),
(477,470,l),
(475,471,o),
(400,450,o),
(362,439,c),
(327,460,o),
(282,470,o),
(229,470,cs),
(72,470,o),
(-4,397,o),
(-4,298,cs),
(-4,238,o),
(24,194,o),
(72,168,c),
(43,142,o),
(15,106,o),
(15,70,cs),
(15,42,o),
(24,12,o),
(52,-9,c),
(40,-18,ls),
(21,-32,o),
(5,-48,o),
(-5,-64,cs),
(-15,-81,o),
(-21,-98,o),
(-21,-116,cs),
(-21,-171,o),
(27,-240,o),
(181,-240,cs)
);
},
{
closed = 1;
nodes = (
(171,-109,o),
(154,-85,o),
(154,-65,cs),
(154,-57,o),
(157,-50,o),
(164,-40,c),
(263,-40,ls),
(292,-40,o),
(303,-51,o),
(303,-60,cs),
(303,-86,o),
(271,-109,o),
(222,-109,cs)
);
},
{
closed = 1;
nodes = (
(203,246,o),
(180,257,o),
(180,312,cs),
(180,354,o),
(182,368,o),
(202,368,cs),
(227,368,o),
(245,351,o),
(245,303,cs),
(245,263,o),
(243,246,o),
(225,246,cs)
);
}
);
userData = {
com.hugojourdan.ColorFlow = {
"0" = 0;
"1" = 0;
"10" = 0;
"11" = 0;
"2" = 0;
"3" = 0;
"4" = 0;
"5" = 0;
"6" = 0;
"7" = 0;
"8" = 0;
"9" = 0;
};
};
width = 474;
},
{
anchors = (
{
name = top;
pos = (209,500);
}
);
layerId = "44B34E6E-EF7D-473C-A718-23DCC9FE612C";
shapes = (
{
closed = 1;
nodes = (
(299,-197,o),
(408,-126,o),
(408,-38,cs),
(408,21,o),
(369,40,o),
(323,51,cs),
(241,71,ls),
(182,85,o),
(160,93,o),
(160,117,cs),
(160,135,o),
(182,155,o),
(200,171,c),
(292,172,o),
(364,224,o),
(364,323,cs),
(364,361,o),
(350,393,o),
(327,417,c),
(418,409,l),
(437,409,l),
(437,459,l),
(438,460,o),
(326,439,o),
(303,436,c),
(281,451,o),
(254,459,o),
(225,459,cs),
(130,459,o),
(54,404,o),
(54,305,cs),
(54,233,o),
(102,185,o),
(165,174,c),
(126,143,o),
(113,118,o),
(113,100,cs),
(113,73,o),
(139,50,o),
(167,44,cs),
(176,42,l),
(159,34,o),
(141,25,o),
(111,5,cs),
(56,-31,o),
(37,-69,o),
(37,-97,cs),
(37,-167,o),
(107,-197,o),
(188,-197,cs)
);
},
{
closed = 1;
nodes = (
(131,-156,o),
(85,-132,o),
(85,-91,cs),
(85,-39,o),
(177,15,o),
(217,33,c),
(263,23,ls),
(335,7,o),
(361,-13,o),
(361,-53,cs),
(361,-108,o),
(301,-156,o),
(215,-156,cs)
);
},
{
closed = 1;
nodes = (
(156,210,o),
(100,246,o),
(100,319,cs),
(100,397,o),
(135,419,o),
(198,419,cs),
(259,419,o),
(318,391,o),
(318,310,cs),
(318,233,o),
(275,210,o),
(218,210,cs)
);
}
);
userData = {
com.hugojourdan.ColorFlow = {
"0" = 0;
"1" = 0;
"10" = 0;
"11" = 0;
"2" = 0;
"3" = 0;
"4" = 0;
"5" = 0;
"6" = 0;
"7" = 0;
"8" = 0;
"9" = 0;
};
};
width = 455;
}
);
unicode = 103;
userData = {
KernOnName = g;
};
},
{
color = 3;
glyphname = "gamma-latin";
lastChange = "2024-02-13 15:31:16 +0000";
layers = (
{
layerId = "44B34E6E-EF7D-473C-A718-23DCC9FE612C";
shapes = (
{
closed = 1;
nodes = (
(261,-230,o),
(308,-180,o),
(308,-120,cs),
(308,-68,o),
(259,2,o),
(228,74,c),
(410,450,l),
(363,450,l),
(205,120,l),
(63,454,l),
(12,448,l),
(176,75,l),
(153,31,o),
(91,-65,o),
(89,-119,cs),
(87,-176,o),
(123,-230,o),
(190,-230,cs)
);
},
{
closed = 1;
nodes = (
(162,-196,o),
(128,-171,o),
(131,-117,cs),
(133,-82,o),
(166,-17,o),
(198,34,c),
(240,-36,o),
(265,-101,o),
(265,-132,cs),
(265,-172,o),
(237,-196,o),
(204,-196,cs)
);
}
);
userData = {
com.hugojourdan.ColorFlow = {
"0" = 0;
"1" = 0;
"10" = 0;
"11" = 0;
"2" = 0;
"3" = 0;
"4" = 0;
"5" = 0;
"6" = 0;
"7" = 0;
"8" = 0;
"9" = 0;
};
};
width = 422;
},
{
layerId = m001;
shapes = (
{
closed = 1;
nodes = (
(363,-241,o),
(471,-181,o),
(471,-91,cs),
(471,-33,o),
(432,15,o),
(387,88,c),
(587,450,l),
(407,450,l),
(298,253,l),
(192,454,l),
(-6,440,l),
(186,104,l),
(151,46,o),
(97,-28,o),
(97,-98,cs),
(97,-185,o),
(162,-241,o),
(270,-241,cs)
);
},
{
closed = 1;
nodes = (
(270,-115,o),
(255,-102,o),
(255,-83,cs),
(255,-61,o),
(268,-47,o),
(280,-26,c),
(296,-57,o),
(310,-72,o),
(310,-87,cs),
(310,-106,o),
(300,-115,o),
(286,-115,cs)
);
}
);
userData = {
com.hugojourdan.ColorFlow = {
"0" = 0;
"1" = 0;
"10" = 0;
"11" = 0;
"2" = 0;
"3" = 0;
"4" = 0;
"5" = 0;
"6" = 0;
"7" = 0;
"8" = 0;
"9" = 0;
};
};
width = 581;
}
);
metricLeft = v;
metricRight = v;
unicode = 611;
},
{
color = 3;
glyphname = ghook;
lastChange = "2024-02-13 15:31:19 +0000";
layers = (
{
layerId = "44B34E6E-EF7D-473C-A718-23DCC9FE612C";
shapes = (
{
closed = 1;
nodes = (
(403,417,l),
(403,486,ls),
(403,613,o),
(438,644,o),
(546,650,c),
(533,698,l),
(422,698,o),
(355,598,o),
(357,483,cs),
(358,416,l)
);
},
{
ref = gsingle;
}
);
userData = {
com.hugojourdan.ColorFlow = {
"0" = 0;
"1" = 0;
"10" = 0;
"11" = 0;
"2" = 0;
"3" = 0;
"4" = 0;
"5" = 0;
"6" = 0;
"7" = 0;
"8" = 0;
"9" = 0;
};
};
width = 474;
},
{
layerId = m001;
shapes = (
{
closed = 1;
nodes = (
(525,398,l),
(525,479,ls),
(525,528,o),
(545,561,o),
(609,573,c),
(563,717,l),
(425,704,o),
(331,620,o),
(331,505,cs),
(331,423,l)
);
},
{
ref = gsingle;
}
);
userData = {
com.hugojourdan.ColorFlow = {
"0" = 0;
"1" = 0;
"10" = 0;
"11" = 0;
"2" = 0;
"3" = 0;
"4" = 0;
"5" = 0;
"6" = 0;
"7" = 0;
"8" = 0;
"9" = 0;
};
};
width = 554;
}
);
metricLeft = d;
unicode = 608;
},
{
color = 3;
glyphname = glottalstop;
lastChange = "2024-02-13 15:31:19 +0000";
layers = (
{
layerId = "44B34E6E-EF7D-473C-A718-23DCC9FE612C";
shapes = (
{
closed = 1;
nodes = (
(171,0,l),
(171,226,ls),
(171,291,o),
(181,308,o),
(221,340,cs),
(279,389,o),
(320,427,o),
(320,490,cs),
(320,573,o),
(254,630,o),
(171,630,cs),
(103,630,o),
(57,609,o),
(18,588,c),
(36,547,l),
(77,575,o),
(116,593,o),
(141,593,cs),
(211,593,o),
(264,548,o),
(264,478,cs),
(264,427,o),
(246,401,o),
(191,355,cs),
(141,313,o),
(117,294,o),
(117,226,cs),
(117,0,l)
);
}
);
userData = {
com.hugojourdan.ColorFlow = {
"0" = 0;
"1" = 0;
"10" = 0;
"11" = 0;
"2" = 0;
"3" = 0;
"4" = 0;
"5" = 0;
"6" = 0;
"7" = 0;
"8" = 0;
"9" = 0;
};
};
width = 338;
},
{
layerId = m001;
shapes = (
{
closed = 1;
nodes = (
(315,0,l),
(315,170,ls),
(315,225,o),
(313,254,o),
(356,288,cs),
(414,335,o),
(471,379,o),
(471,452,cs),
(471,557,o),
(368,628,o),
(230,628,cs),
(145,628,o),
(80,611,o),
(10,575,c),
(64,436,l),
(129,473,o),
(162,482,o),
(197,482,cs),
(231,482,o),
(252,462,o),
(252,440,cs),
(252,399,o),
(223,367,o),
(165,314,cs),
(118,271,o),
(115,247,o),
(115,215,cs),
(115,0,l)
);
}
);
userData = {
com.hugojourdan.ColorFlow = {
"0" = 0;
"1" = 0;
"10" = 0;
"11" = 0;
"2" = 0;
"3" = 0;
"4" = 0;
"5" = 0;
"6" = 0;
"7" = 0;
"8" = 0;
"9" = 0;
};
};
width = 481;
}
);
unicode = 660;
},
{
color = 3;
glyphname = glottalstopreversed;
lastChange = "2024-02-13 15:31:22 +0000";
layers = (
{
layerId = "44B34E6E-EF7D-473C-A718-23DCC9FE612C";
shapes = (
{
closed = 1;
nodes = (
(221,226,ls),
(221,294,o),
(211,320,o),
(161,362,cs),
(106,408,o),
(66,437,o),
(66,513,cs),
(66,579,o),
(105,593,o),
(157,593,cs),
(222,593,o),
(261,575,o),
(302,547,c),
(320,588,l),
(281,609,o),
(235,630,o),
(167,630,cs),
(84,630,o),
(18,573,o),
(18,490,cs),
(18,427,o),
(59,381,o),
(117,332,cs),
(157,300,o),
(167,291,o),
(167,226,cs),
(167,0,l),
(221,0,l)
);
}
);
userData = {
com.hugojourdan.ColorFlow = {
"0" = 0;
"1" = 0;
"10" = 0;
"11" = 0;
"2" = 0;
"3" = 0;
"4" = 0;
"5" = 0;
"6" = 0;
"7" = 0;
"8" = 0;
"9" = 0;
};
};
width = 338;
},
{
layerId = m001;
shapes = (
{
closed = 1;
nodes = (
(364,215,ls),
(364,247,o),
(358,271,o),
(312,314,cs),
(256,367,o),
(224,399,o),
(224,440,cs),
(224,462,o),
(245,482,o),
(278,482,cs),
(312,482,o),
(344,473,o),
(408,436,c),
(461,575,l),
(392,611,o),
(330,628,o),
(246,628,cs),
(111,628,o),
(10,557,o),
(10,452,cs),
(10,367,o),
(66,316,o),
(123,278,cs),
(164,250,o),
(164,225,o),
(164,180,cs),
(164,0,l),
(364,0,l)
);
}
);
userData = {
com.hugojourdan.ColorFlow = {
"0" = 0;
"1" = 0;
"10" = 0;
"11" = 0;
"2" = 0;
"3" = 0;
"4" = 0;
"5" = 0;
"6" = 0;
"7" = 0;
"8" = 0;
"9" = 0;
};
};
width = 471;
}
);
unicode = 661;
},
{
color = 3;
glyphname = glottalstopstroke;
lastChange = "2024-02-13 15:31:36 +0000";
layers = (
{
layerId = "44B34E6E-EF7D-473C-A718-23DCC9FE612C";
shapes = (
{
closed = 1;
nodes = (
(241,172,l),
(241,209,l),
(47,209,l),
(47,172,l)
);
},
{
ref = glottalstop;
}
);
userData = {
com.hugojourdan.ColorFlow = {
"0" = 0;
"1" = 0;
"10" = 0;
"11" = 0;
"2" = 0;
"3" = 0;
"4" = 0;
"5" = 0;
"6" = 0;
"7" = 0;
"8" = 0;
"9" = 0;
};
};
width = 338;
},
{
layerId = m001;
shapes = (
{
closed = 1;
nodes = (
(403,81,l),
(403,210,l),
(56,210,l),
(56,81,l)
);
},
{
ref = glottalstop;
}
);
userData = {
com.hugojourdan.ColorFlow = {
"0" = 0;
"1" = 0;
"10" = 0;
"11" = 0;
"2" = 0;
"3" = 0;
"4" = 0;
"5" = 0;
"6" = 0;
"7" = 0;
"8" = 0;
"9" = 0;
};
};
width = 481;
},
{
associatedMasterId = m001;
layerId = "8757C173-65A0-419F-BCFE-4EAD15040A1A";
name = "11 de sep. de 23, 12:12";
shapes = (
{
closed = 1;
nodes = (
(288,255,l),
(288,276,o),
(302,293,o),
(342,325,cs),
(382,355,o),
(448,412,o),
(448,475,cs),
(448,580,o),
(353,651,o),
(226,651,cs),
(173,651,o),
(80,624,o),
(15,588,c),
(74,459,l),
(134,496,o),
(150,505,o),
(196,505,cs),
(223,505,o),
(247,475,o),
(247,463,cs),
(247,412,o),
(222,386,o),
(167,340,cs),
(117,298,o),
(102,279,o),
(102,238,c),
(106,0,l),
(288,0,l)
);
}
);
userData = {
com.hugojourdan.ColorFlow = {
"0" = 0;
"1" = 0;
"10" = 0;
"11" = 0;
"2" = 0;
"3" = 0;
"4" = 0;
"5" = 0;
"6" = 0;
"7" = 0;
"8" = 0;
"9" = 0;
};
};
width = 600;
}
);
unicode = 673;
},
{
color = 3;
glyphname = glottalstopstrokereversed;
lastChange = "2024-02-13 15:31:36 +0000";
layers = (
{
layerId = "44B34E6E-EF7D-473C-A718-23DCC9FE612C";
shapes = (
{
closed = 1;
nodes = (
(291,172,l),
(291,209,l),
(97,209,l),
(97,172,l)
);
},
{
ref = glottalstopreversed;
}
);
userData = {
com.hugojourdan.ColorFlow = {
"0" = 0;
"1" = 0;
"10" = 0;
"11" = 0;
"2" = 0;
"3" = 0;
"4" = 0;
"5" = 0;
"6" = 0;
"7" = 0;
"8" = 0;
"9" = 0;
};
};
width = 338;
},
{
layerId = m001;
shapes = (
{
closed = 1;
nodes = (
(441,81,l),
(441,210,l),
(94,210,l),
(94,81,l)
);
},
{
ref = glottalstopreversed;
}
);
userData = {
com.hugojourdan.ColorFlow = {
"0" = 0;
"1" = 0;
"10" = 0;
"11" = 0;
"2" = 0;
"3" = 0;
"4" = 0;
"5" = 0;
"6" = 0;
"7" = 0;
"8" = 0;
"9" = 0;
};
};
width = 471;
}
);
unicode = 674;
},
{
color = 3;
glyphname = gsingle;
lastChange = "2024-02-13 15:31:36 +0000";
layers = (
{
layerId = "44B34E6E-EF7D-473C-A718-23DCC9FE612C";
shapes = (
{
closed = 1;
nodes = (
(248,-11,o),
(299,7,o),
(358,40,c),
(405,64,l),
(403,451,l),
(376,461,l),
(361,431,l),
(337,443,o),
(285,459,o),
(251,459,cs),
(152,459,o),
(44,386,o),
(44,214,cs),
(44,53,o),
(137,-11,o),
(218,-11,cs)
);
},
{
closed = 1;
nodes = (
(311,-222,o),
(405,-145,o),
(405,-5,cs),
(405,140,l),
(357,128,l),
(357,-12,ls),
(357,-132,o),
(312,-183,o),
(186,-187,cs),
(168,-187,o),
(149,-186,o),
(129,-184,c),
(141,-220,l),
(153,-221,o),
(168,-222,o),
(186,-222,cs)
);
},
{
closed = 1;
nodes = (
(171,30,o),
(92,80,o),
(92,223,cs),
(92,357,o),
(154,419,o),
(226,419,cs),
(275,419,o),
(318,409,o),
(357,393,c),
(357,73,l),
(317,48,o),
(272,30,o),
(231,30,cs)
);
}
);
userData = {
com.hugojourdan.ColorFlow = {
"0" = 0;
"1" = 0;
"10" = 0;
"11" = 0;
"2" = 0;
"3" = 0;
"4" = 0;
"5" = 0;
"6" = 0;
"7" = 0;
"8" = 0;
"9" = 0;
};
};
width = 492;
},
{
layerId = m001;
shapes = (
{
closed = 1;
nodes = (
(274,-20,o),
(324,3,o),
(361,26,c),
(526,177,l),
(525,464,l),
(418,476,l),
(378,442,l),
(344,459,o),
(309,470,o),
(251,470,cs),
(148,470,o),
(14,386,o),
(14,214,cs),
(14,53,o),
(111,-20,o),
(217,-20,cs)
);
},
{
closed = 1;
nodes = (
(391,-239,o),
(526,-129,o),
(526,5,cs),
(526,208,l),
(331,62,l),
(331,-11,ls),
(331,-57,o),
(294,-84,o),
(201,-86,cs),
(175,-86,o),
(145,-84,o),
(111,-79,c),
(136,-234,l),
(172,-238,o),
(204,-239,o),
(234,-239,cs)
);
},
{
closed = 1;
nodes = (
(255,120,o),
(212,138,o),
(212,223,cs),
(212,306,o),
(234,331,o),
(281,331,cs),
(298,331,o),
(315,328,o),
(331,325,c),
(331,123,l),
(320,121,o),
(309,120,o),
(297,120,cs)
);
}
);
userData = {
com.hugojourdan.ColorFlow = {
"0" = 0;
"1" = 0;
"10" = 0;
"11" = 0;
"2" = 0;
"3" = 0;
"4" = 0;
"5" = 0;
"6" = 0;
"7" = 0;
"8" = 0;
"9" = 0;
};
};
width = 555;
},
{
anchors = (
{
name = top;
pos = (385,500);
}
);
associatedMasterId = "44B34E6E-EF7D-473C-A718-23DCC9FE612C";
layerId = "DFE523C2-7B0E-4A60-880C-0BDAAC67B2FA";
name = "15 de dic. de 23, 8:49";
shapes = (
{
closed = 1;
nodes = (
(357,128,l),
(357,-12,ls),
(357,-146,o),
(313,-168,o),
(230,-187,c),
(241,-221,l),
(334,-221,o),
(405,-125,o),
(405,-5,cs),
(405,140,l)
);
},
{
closed = 1;
nodes = (
(248,-11,o),
(299,7,o),
(358,40,c),
(405,64,l),
(403,451,l),
(376,461,l),
(361,431,l),
(337,443,o),
(285,459,o),
(251,459,cs),
(152,459,o),
(44,386,o),
(44,214,cs),
(44,53,o),
(137,-11,o),
(218,-11,cs)
);
},
{
closed = 1;
nodes = (
(92,357,o),
(154,419,o),
(226,419,cs),
(275,419,o),
(318,409,o),
(357,393,c),
(357,73,l),
(317,48,o),
(272,30,o),
(231,30,cs),
(171,30,o),
(92,80,o),
(92,223,cs)
);
}
);
userData = {
com.hugojourdan.ColorFlow = {
"0" = 0;
"1" = 0;
"10" = 0;
"11" = 0;
"2" = 0;
"3" = 0;
"4" = 0;
"5" = 0;
"6" = 0;
"7" = 0;
"8" = 0;
"9" = 0;
};
};
visible = 1;
width = 434;
}
);
metricLeft = d;
metricRight = d;
unicode = 609;
},
{
color = 4;
glyphname = h;
kernLeft = KO_h;
kernRight = KO_h;
lastChange = "2023-12-16 20:48:22 +0000";
layers = (
{
anchors = (
{
name = center;
pos = (273,225);
},
{
name = top;
pos = (273,450);
}
);
layerId = m001;
shapes = (
{
closed = 1;
nodes = (
(223,0,l),
(223,322,l),
(233,329,o),
(247,333,o),
(261,333,cs),
(289,333,o),
(308,314,o),
(308,273,cs),
(308,0,l),
(502,0,l),
(502,326,ls),
(502,418,o),
(457,470,o),
(350,470,cs),
(304,470,o),
(259,458,o),
(223,443,c),
(223,695,l),
(29,670,l),
(29,0,l)
);
}
);
userData = {
com.hugojourdan.ColorFlow = {
"0" = 0;
"1" = 0;
"10" = 0;
"11" = 0;
"2" = 0;
"3" = 0;
"4" = 0;
"5" = 0;
"6" = 0;
"7" = 0;
"8" = 0;
"9" = 0;
};
};
width = 543;
},
{
anchors = (
{
name = center;
pos = (243,225);
},
{
name = top;
pos = (243,450);
}
);
layerId = "44B34E6E-EF7D-473C-A718-23DCC9FE612C";
shapes = (
{
closed = 1;
nodes = (
(135,0,l),
(135,376,l),
(181,395,o),
(227,413,o),
(266,413,cs),
(334,413,o),
(366,362,o),
(366,305,cs),
(366,0,l),
(414,0,l),
(414,333,ls),
(414,422,o),
(337,459,o),
(281,459,cs),
(244,459,o),
(178,433,o),
(135,408,c),
(135,687,l),
(87,677,l),
(87,0,l)
);
}
);
userData = {
com.hugojourdan.ColorFlow = {
"0" = 0;
"1" = 0;
"10" = 0;
"11" = 0;
"2" = 0;
"3" = 0;
"4" = 0;
"5" = 0;
"6" = 0;
"7" = 0;
"8" = 0;
"9" = 0;
};
};
width = 488;
}
);
unicode = 104;
userData = {
KernOnName = h;
};
},
{
color = 4;
glyphname = hbar;
lastChange = "2023-10-12 14:28:59 +0000";
layers = (
{
annotations = (
{
pos = (-74,608);
text = "Corregir ngulo?";
type = Text;
},
{
angle = 159.83528;
pos = (-31,575);
type = Arrow;
}
);
layerId = m001;
shapes = (
{
closed = 1;
nodes = (
(-4,620,l),
(-37,537,l),
(-37,522,l),
(336,522,l),
(370,605,l),
(370,620,l)
);
},
{
ref = h;
}
);
userData = {
com.hugojourdan.ColorFlow = {
"0" = 0;
"1" = 0;
"10" = 0;
"11" = 0;
"2" = 0;
"3" = 0;
"4" = 0;
"5" = 0;
"6" = 0;
"7" = 0;
"8" = 0;
"9" = 0;
};
};
width = 534;
},
{
annotations = (
{
pos = (-27,628);
text = "Corregir ngulo?";
type = Text;
},
{
angle = 159.83528;
pos = (16,595);
type = Arrow;
}
);
layerId = "44B34E6E-EF7D-473C-A718-23DCC9FE612C";
shapes = (
{
closed = 1;
nodes = (
(32,598,l),
(21,577,l),
(21,562,l),
(267,562,l),
(278,583,l),
(278,598,l)
);
},
{
ref = h;
}
);
userData = {
com.hugojourdan.ColorFlow = {
"0" = 0;
"1" = 0;
"10" = 0;
"11" = 0;
"2" = 0;
"3" = 0;
"4" = 0;
"5" = 0;
"6" = 0;
"7" = 0;
"8" = 0;
"9" = 0;
};
};
width = 491;
}
);
unicode = 295;
},
{
color = 3;
glyphname = henghook;
lastChange = "2024-02-13 15:31:36 +0000";
layers = (
{
anchors = (
{
name = center;
pos = (243,225);
},
{
name = top;
pos = (243,450);
}
);
layerId = "44B34E6E-EF7D-473C-A718-23DCC9FE612C";
shapes = (
{
closed = 1;
nodes = (
(297,-217,o),
(360,-186,o),
(392,-129,cs),
(411,-94,o),
(414,-76,o),
(414,11,cs),
(414,333,ls),
(414,422,o),
(337,459,o),
(281,459,cs),
(244,459,o),
(178,433,o),
(135,408,c),
(135,461,ls),
(135,518,o),
(135,577,o),
(161,609,cs),
(189,645,o),
(242,657,o),
(276,660,c),
(262,697,l),
(204,693,o),
(141,662,o),
(109,605,cs),
(90,570,o),
(87,539,o),
(87,452,cs),
(87,0,l),
(135,0,l),
(135,376,l),
(181,395,o),
(227,413,o),
(266,413,cs),
(334,413,o),
(366,362,o),
(366,305,cs),
(366,1,ls),
(366,-56,o),
(366,-101,o),
(340,-133,cs),
(312,-169,o),
(259,-181,o),
(225,-184,c),
(239,-221,l)
);
}
);
userData = {
com.hugojourdan.ColorFlow = {
"0" = 0;
"1" = 0;
"10" = 0;
"11" = 0;
"2" = 0;
"3" = 0;
"4" = 0;
"5" = 0;
"6" = 0;
"7" = 0;
"8" = 0;
"9" = 0;
};
};
width = 491;
},
{
anchors = (
{
name = center;
pos = (273,225);
},
{
name = top;
pos = (273,450);
}
);
layerId = m001;
shapes = (
{
closed = 1;
nodes = (
(319,-232,o),
(367,-211,o),
(407,-177,cs),
(464,-128,o),
(502,-54,o),
(502,35,cs),
(502,326,ls),
(502,418,o),
(457,470,o),
(350,470,cs),
(304,470,o),
(259,458,o),
(223,443,c),
(223,461,ls),
(223,473,o),
(223,486,o),
(226,501,cs),
(235,545,o),
(259,564,o),
(307,573,c),
(259,717,l),
(158,707,o),
(70,640,o),
(40,567,cs),
(33,549,o),
(29,531,o),
(29,514,cs),
(29,0,l),
(223,0,l),
(223,322,l),
(233,329,o),
(247,333,o),
(261,333,cs),
(289,333,o),
(308,314,o),
(308,273,cs),
(307,20,ls),
(307,-19,o),
(301,-46,o),
(284,-64,cs),
(271,-79,o),
(252,-88,o),
(223,-93,c),
(268,-237,l)
);
}
);
userData = {
com.hugojourdan.ColorFlow = {
"0" = 0;
"1" = 0;
"10" = 0;
"11" = 0;
"2" = 0;
"3" = 0;
"4" = 0;
"5" = 0;
"6" = 0;
"7" = 0;
"8" = 0;
"9" = 0;
};
};
width = 534;
}
);
metricLeft = h;
metricRight = eng;
unicode = 615;
},
{
color = 3;
glyphname = hhook;
lastChange = "2024-02-13 15:31:36 +0000";
layers = (
{
layerId = "44B34E6E-EF7D-473C-A718-23DCC9FE612C";
shapes = (
{
closed = 1;
nodes = (
(135,0,l),
(135,376,l),
(181,395,o),
(227,413,o),
(266,413,cs),
(334,413,o),
(366,362,o),
(366,305,cs),
(366,0,l),
(414,0,l),
(414,333,ls),
(414,422,o),
(337,459,o),
(281,459,cs),
(244,459,o),
(178,433,o),
(135,408,c),
(135,462,ls),
(135,519,o),
(135,578,o),
(161,610,cs),
(189,646,o),
(242,658,o),
(276,661,c),
(262,698,l),
(204,694,o),
(141,663,o),
(109,606,cs),
(90,571,o),
(87,540,o),
(87,453,cs),
(87,0,l)
);
}
);
userData = {
com.hugojourdan.ColorFlow = {
"0" = 0;
"1" = 0;
"10" = 0;
"11" = 0;
"2" = 0;
"3" = 0;
"4" = 0;
"5" = 0;
"6" = 0;
"7" = 0;
"8" = 0;
"9" = 0;
};
};
width = 488;
},
{
layerId = m001;
shapes = (
{
closed = 1;
nodes = (
(223,0,l),
(223,322,l),
(233,329,o),
(247,333,o),
(261,333,cs),
(289,333,o),
(308,314,o),
(308,273,cs),
(307,0,l),
(502,0,l),
(502,326,ls),
(502,418,o),
(457,470,o),
(350,470,cs),
(304,470,o),
(259,458,o),
(223,443,c),
(223,456,ls),
(223,475,o),
(224,482,o),
(226,496,cs),
(234,543,o),
(258,564,o),
(307,573,c),
(259,717,l),
(167,708,o),
(86,652,o),
(50,587,cs),
(36,563,o),
(29,538,o),
(29,514,cs),
(29,0,l)
);
}
);
userData = {
com.hugojourdan.ColorFlow = {
"0" = 0;
"1" = 0;
"10" = 0;
"11" = 0;
"2" = 0;
"3" = 0;
"4" = 0;
"5" = 0;
"6" = 0;
"7" = 0;
"8" = 0;
"9" = 0;
};
};
width = 543;
}
);
metricLeft = h;
metricRight = h;
unicode = 614;
},
{
color = 11;
glyphname = hturnedfishhook;
lastChange = "2024-05-16 06:48:30 +0000";
layers = (
{
anchors = (
{
name = bottom;
pos = (291,0);
},
{
name = center;
pos = (291,225);
}
);
layerId = "44B34E6E-EF7D-473C-A718-23DCC9FE612C";
shapes = (
{
closed = 1;
nodes = (
(447,-227,l),
(447,450,l),
(399,450,l),
(399,74,l),
(353,55,o),
(307,37,o),
(268,37,cs),
(200,37,o),
(168,88,o),
(168,145,cs),
(168,242,ls),
(168,385,o),
(161,446,o),
(42,459,cs),
(30,461,o),
(17,462,o),
(3,462,c),
(0,416,l),
(89,416,o),
(122,401,o),
(122,253,cs),
(120,117,ls),
(119,28,o),
(197,-9,o),
(253,-9,cs),
(290,-9,o),
(356,17,o),
(399,42,c),
(399,-237,l)
);
}
);
userData = {
com.hugojourdan.ColorFlow = {
"0" = 0;
"1" = 0;
"10" = 0;
"11" = 0;
"2" = 0;
"3" = 0;
"4" = 0;
"5" = 0;
"6" = 0;
"7" = 0;
"8" = 0;
"9" = 0;
};
};
width = 534;
},
{
anchors = (
{
name = bottom;
pos = (342,0);
},
{
name = center;
pos = (342,225);
}
);
layerId = m001;
shapes = (
{
closed = 1;
nodes = (
(586,-220,l),
(586,450,l),
(392,450,l),
(392,128,l),
(382,121,o),
(368,117,o),
(354,117,cs),
(326,117,o),
(307,136,o),
(307,177,cs),
(307,228,ls),
(307,386,o),
(289,465,o),
(99,468,cs),
(64,469,o),
(44,468,o),
(26,466,c),
(0,311,l),
(100,333,o),
(113,270,o),
(113,156,cs),
(113,124,ls),
(113,32,o),
(158,-20,o),
(265,-20,cs),
(311,-20,o),
(356,-8,o),
(392,7,c),
(392,-245,l)
);
}
);
userData = {
com.hugojourdan.ColorFlow = {
"0" = 0;
"1" = 0;
"10" = 0;
"11" = 0;
"2" = 0;
"3" = 0;
"4" = 0;
"5" = 0;
"6" = 0;
"7" = 0;
"8" = 0;
"9" = 0;
};
};
width = 615;
}
);
unicode = 686;
},
{
color = 11;
glyphname = hturnedfishhookandtail;
lastChange = "2024-05-16 06:48:30 +0000";
layers = (
{
anchors = (
{
name = bottom;
pos = (291,0);
},
{
name = center;
pos = (291,225);
}
);
layerId = "44B34E6E-EF7D-473C-A718-23DCC9FE612C";
shapes = (
{
closed = 1;
nodes = (
(583,-184,l),
(549,-181,o),
(500,-169,o),
(472,-133,cs),
(446,-101,o),
(447,-57,o),
(447,0,cs),
(447,450,l),
(399,450,l),
(399,74,l),
(353,55,o),
(307,37,o),
(268,37,cs),
(200,37,o),
(168,88,o),
(168,145,cs),
(168,242,ls),
(168,385,o),
(161,446,o),
(42,459,cs),
(30,461,o),
(17,462,o),
(3,462,c),
(0,416,l),
(89,416,o),
(124,401,o),
(122,253,cs),
(120,117,ls),
(119,28,o),
(197,-9,o),
(253,-9,cs),
(290,-9,o),
(356,17,o),
(399,42,c),
(399,31,o),
(399,21,o),
(399,10,cs),
(399,-77,o),
(402,-94,o),
(421,-129,cs),
(453,-186,o),
(511,-217,o),
(569,-221,c)
);
}
);
userData = {
com.hugojourdan.ColorFlow = {
"0" = 0;
"1" = 0;
"10" = 0;
"11" = 0;
"2" = 0;
"3" = 0;
"4" = 0;
"5" = 0;
"6" = 0;
"7" = 0;
"8" = 0;
"9" = 0;
};
};
width = 518;
},
{
anchors = (
{
name = bottom;
pos = (342,0);
},
{
name = center;
pos = (342,225);
}
);
layerId = m001;
shapes = (
{
closed = 1;
nodes = (
(668,-93,l),
(639,-88,o),
(620,-79,o),
(607,-64,cs),
(590,-46,o),
(586,-20,o),
(586,19,cs),
(586,450,l),
(392,450,l),
(392,128,l),
(382,121,o),
(368,117,o),
(354,117,cs),
(326,117,o),
(307,136,o),
(307,177,cs),
(307,228,ls),
(307,386,o),
(289,465,o),
(99,468,cs),
(64,469,o),
(44,468,o),
(26,466,c),
(0,311,l),
(100,333,o),
(113,270,o),
(113,156,cs),
(113,124,ls),
(113,32,o),
(158,-20,o),
(265,-20,cs),
(311,-20,o),
(356,-8,o),
(390,6,c),
(389,-11,o),
(390,-26,o),
(391,-40,cs),
(398,-105,o),
(425,-143,o),
(457,-171,cs),
(498,-206,o),
(572,-232,o),
(623,-237,c)
);
}
);
userData = {
com.hugojourdan.ColorFlow = {
"0" = 0;
"1" = 0;
"10" = 0;
"11" = 0;
"2" = 0;
"3" = 0;
"4" = 0;
"5" = 0;
"6" = 0;
"7" = 0;
"8" = 0;
"9" = 0;
};
};
width = 615;
}
);
unicode = 687;
},
{
color = 4;
glyphname = i;
kernLeft = KO_i;
kernRight = KO_i;
lastChange = "2023-12-16 20:48:22 +0000";
layers = (
{
anchors = (
{
name = ogonek;
pos = (223,0);
},
{
name = top;
pos = (126,500);
}
);
layerId = m001;
shapes = (
{
closed = 1;
nodes = (
(223,0,l),
(223,470,l),
(29,445,l),
(29,0,l)
);
},
{
closed = 1;
nodes = (
(168,499,o),
(235,571,o),
(235,610,cs),
(235,649,o),
(156,707,o),
(119,707,cs),
(79,707,o),
(15,634,o),
(15,595,cs),
(15,557,o),
(93,499,o),
(131,499,cs)
);
}
);
userData = {
com.hugojourdan.ColorFlow = {
"0" = 0;
"1" = 0;
"10" = 0;
"11" = 0;
"2" = 0;
"3" = 0;
"4" = 0;
"5" = 0;
"6" = 0;
"7" = 0;
"8" = 0;
"9" = 0;
};
};
width = 252;
},
{
anchors = (
{
name = ogonek;
pos = (135,0);
},
{
name = top;
pos = (111,500);
}
);
layerId = "44B34E6E-EF7D-473C-A718-23DCC9FE612C";
shapes = (
{
closed = 1;
nodes = (
(135,0,l),
(135,459,l),
(87,450,l),
(87,0,l)
);
},
{
closed = 1;
nodes = (
(128,565,o),
(155,590,o),
(155,606,cs),
(155,623,o),
(124,641,o),
(112,641,cs),
(101,641,o),
(73,615,o),
(73,599,cs),
(73,583,o),
(104,565,o),
(116,565,cs)
);
}
);
userData = {
com.hugojourdan.ColorFlow = {
"0" = 0;
"1" = 0;
"10" = 0;
"11" = 0;
"2" = 0;
"3" = 0;
"4" = 0;
"5" = 0;
"6" = 0;
"7" = 0;
"8" = 0;
"9" = 0;
};
};
width = 222;
}
);
unicode = 105;
userData = {
KernOnName = i;
};
},
{
color = 4;
glyphname = dotlessi;
kernLeft = KO_r;
lastChange = "2023-09-08 16:00:25 +0000";
layers = (
{
anchors = (
{
name = ogonek;
pos = (328,27);
},
{
name = top;
pos = (126,500);
}
);
layerId = m001;
shapes = (
{
closed = 1;
nodes = (
(29,448,l),
(29,0,l),
(223,0,l),
(223,473,l)
);
}
);
userData = {
com.hugojourdan.ColorFlow = {
"0" = 0;
"1" = 0;
"10" = 0;
"11" = 0;
"2" = 0;
"3" = 0;
"4" = 0;
"5" = 0;
"6" = 0;
"7" = 0;
"8" = 0;
"9" = 0;
};
};
width = 252;
},
{
anchors = (
{
name = ogonek;
pos = (99,-9);
},
{
name = top;
pos = (111,500);
}
);
layerId = "44B34E6E-EF7D-473C-A718-23DCC9FE612C";
shapes = (
{
closed = 1;
nodes = (
(87,448,l),
(87,0,l),
(135,0,l),
(135,458,l)
);
}
);
userData = {
com.hugojourdan.ColorFlow = {
"0" = 0;
"1" = 0;
"10" = 0;
"11" = 0;
"2" = 0;
"3" = 0;
"4" = 0;
"5" = 0;
"6" = 0;
"7" = 0;
"8" = 0;
"9" = 0;
};
};
width = 222;
}
);
unicode = 305;
},
{
color = 4;
glyphname = ibreve;
lastChange = "2023-10-09 15:58:45 +0000";
layers = (
{
layerId = m001;
shapes = (
{
closed = 1;
nodes = (
(-39,553,o),
(19,501,o),
(126,501,cs),
(219,501,o),
(307,555,o),
(307,672,c),
(195,672,l),
(191,627,o),
(173,612,o),
(134,612,cs),
(95,612,o),
(72,630,o),
(73,672,c),
(-39,672,l)
);
},
{
pos = (-3,0);
ref = dotlessi;
}
);
userData = {
com.hugojourdan.ColorFlow = {
"0" = 0;
"1" = 0;
"10" = 0;
"11" = 0;
"2" = 0;
"3" = 0;
"4" = 0;
"5" = 0;
"6" = 0;
"7" = 0;
"8" = 0;
"9" = 0;
};
};
width = 252;
},
{
layerId = "44B34E6E-EF7D-473C-A718-23DCC9FE612C";
shapes = (
{
closed = 1;
nodes = (
(-17,611,o),
(23,523,o),
(107,523,cs),
(183,523,o),
(234,610,o),
(234,683,c),
(210,683,l),
(198,631,o),
(169,572,o),
(108,572,cs),
(48,572,o),
(21,630,o),
(7,683,c),
(-17,683,l)
);
},
{
pos = (1,0);
ref = dotlessi;
}
);
userData = {
com.hugojourdan.ColorFlow = {
"0" = 0;
"1" = 0;
"10" = 0;
"11" = 0;
"2" = 0;
"3" = 0;
"4" = 0;
"5" = 0;
"6" = 0;
"7" = 0;
"8" = 0;
"9" = 0;
};
};
width = 222;
}
);
unicode = 301;
},
{
color = 4;
glyphname = idieresis;
lastChange = "2023-10-09 15:58:45 +0000";
layers = (
{
layerId = m001;
shapes = (
{
closed = 1;
nodes = (
(-80,554,o),
(-11,504,o),
(25,504,cs),
(57,504,o),
(118,568,o),
(118,601,cs),
(118,640,o),
(49,692,o),
(14,692,cs),
(-22,692,o),
(-80,626,o),
(-80,592,cs)
);
},
{
closed = 1;
nodes = (
(123,554,o),
(192,504,o),
(228,504,cs),
(260,504,o),
(321,568,o),
(321,601,cs),
(321,640,o),
(252,692,o),
(217,692,cs),
(181,692,o),
(123,626,o),
(123,592,cs)
);
},
{
pos = (-5,0);
ref = dotlessi;
}
);
userData = {
com.hugojourdan.ColorFlow = {
"0" = 0;
"1" = 0;
"10" = 0;
"11" = 0;
"2" = 0;
"3" = 0;
"4" = 0;
"5" = 0;
"6" = 0;
"7" = 0;
"8" = 0;
"9" = 0;
};
};
width = 252;
},
{
layerId = "44B34E6E-EF7D-473C-A718-23DCC9FE612C";
shapes = (
{
closed = 1;
nodes = (
(12,584,o),
(40,566,o),
(51,566,cs),
(61,566,o),
(86,590,o),
(86,605,cs),
(86,618,o),
(56,634,o),
(46,634,cs),
(36,634,o),
(12,611,o),
(12,596,cs)
);
},
{
closed = 1;
nodes = (
(142,584,o),
(170,566,o),
(181,566,cs),
(191,566,o),
(216,590,o),
(216,605,cs),
(216,618,o),
(186,634,o),
(177,634,cs),
(166,634,o),
(142,611,o),
(142,596,cs)
);
},
{
pos = (2,0);
ref = dotlessi;
}
);
userData = {
com.hugojourdan.ColorFlow = {
"0" = 0;
"1" = 0;
"10" = 0;
"11" = 0;
"2" = 0;
"3" = 0;
"4" = 0;
"5" = 0;
"6" = 0;
"7" = 0;
"8" = 0;
"9" = 0;
};
};
width = 222;
}
);
unicode = 239;
},
{
color = 4;
glyphname = imacron;
lastChange = "2023-10-09 15:58:45 +0000";
layers = (
{
layerId = m001;
shapes = (
{
closed = 1;
nodes = (
(25,653,l),
(-7,546,l),
(-7,531,l),
(232,531,l),
(264,638,l),
(264,653,l)
);
},
{
pos = (3,0);
ref = dotlessi;
}
);
userData = {
com.hugojourdan.ColorFlow = {
"0" = 0;
"1" = 0;
"10" = 0;
"11" = 0;
"2" = 0;
"3" = 0;
"4" = 0;
"5" = 0;
"6" = 0;
"7" = 0;
"8" = 0;
"9" = 0;
};
};
width = 252;
},
{
layerId = "44B34E6E-EF7D-473C-A718-23DCC9FE612C";
shapes = (
{
closed = 1;
nodes = (
(21,598,l),
(8,568,l),
(8,553,l),
(200,553,l),
(213,583,l),
(213,598,l)
);
},
{
pos = (-1,0);
ref = dotlessi;
}
);
userData = {
com.hugojourdan.ColorFlow = {
"0" = 0;
"1" = 0;
"10" = 0;
"11" = 0;
"2" = 0;
"3" = 0;
"4" = 0;
"5" = 0;
"6" = 0;
"7" = 0;
"8" = 0;
"9" = 0;
};
};
width = 222;
}
);
unicode = 299;
},
{
color = 3;
glyphname = istroke;
lastChange = "2024-02-13 15:31:43 +0000";
layers = (
{
anchors = (
{
name = ogonek;
pos = (131,0);
},
{
name = top;
pos = (107,500);
}
);
layerId = "44B34E6E-EF7D-473C-A718-23DCC9FE612C";
shapes = (
{
closed = 1;
nodes = (
(214,222,l),
(214,259,l),
(8,259,l),
(8,222,l)
);
},
{
ref = i;
}
);
userData = {
com.hugojourdan.ColorFlow = {
"0" = 0;
"1" = 0;
"10" = 0;
"11" = 0;
"2" = 0;
"3" = 0;
"4" = 0;
"5" = 0;
"6" = 0;
"7" = 0;
"8" = 0;
"9" = 0;
};
};
width = 222;
},
{
anchors = (
{
name = ogonek;
pos = (223,0);
},
{
name = top;
pos = (126,500);
}
);
layerId = m001;
shapes = (
{
closed = 1;
nodes = (
(302,177,l),
(302,306,l),
(-51,306,l),
(-51,177,l)
);
},
{
ref = i;
}
);
userData = {
com.hugojourdan.ColorFlow = {
"0" = 0;
"1" = 0;
"10" = 0;
"11" = 0;
"2" = 0;
"3" = 0;
"4" = 0;
"5" = 0;
"6" = 0;
"7" = 0;
"8" = 0;
"9" = 0;
};
};
width = 252;
}
);
unicode = 616;
},
{
color = 4;
glyphname = itilde;
lastChange = "2023-09-08 16:00:25 +0000";
layers = (
{
layerId = m001;
shapes = (
{
closed = 1;
nodes = (
(235,666,o),
(217,648,o),
(200,648,cs),
(171,648,o),
(98,686,o),
(56,686,cs),
(23,686,o),
(-63,591,o),
(-57,593,c),
(-8,514,l),
(17,534,o),
(33,552,o),
(50,552,cs),
(76,552,o),
(162,515,o),
(198,515,cs),
(231,515,o),
(282,558,o),
(301,585,c),
(256,676,l)
);
},
{
ref = dotlessi;
}
);
userData = {
com.hugojourdan.ColorFlow = {
"0" = 0;
"1" = 0;
"10" = 0;
"11" = 0;
"2" = 0;
"3" = 0;
"4" = 0;
"5" = 0;
"6" = 0;
"7" = 0;
"8" = 0;
"9" = 0;
};
};
width = 252;
},
{
layerId = "44B34E6E-EF7D-473C-A718-23DCC9FE612C";
shapes = (
{
closed = 1;
nodes = (
(199,600,o),
(187,587,o),
(160,587,cs),
(131,587,o),
(113,624,o),
(71,624,cs),
(27,624,o),
(10,602,o),
(-14,578,c),
(14,557,l),
(27,571,o),
(37,588,o),
(65,588,cs),
(91,588,o),
(122,547,o),
(158,547,cs),
(201,547,o),
(220,577,o),
(239,600,c),
(216,618,l)
);
},
{
ref = dotlessi;
}
);
userData = {
com.hugojourdan.ColorFlow = {
"0" = 0;
"1" = 0;
"10" = 0;
"11" = 0;
"2" = 0;
"3" = 0;
"4" = 0;
"5" = 0;
"6" = 0;
"7" = 0;
"8" = 0;
"9" = 0;
};
};
width = 222;
}
);
unicode = 297;
},
{
color = 3;
glyphname = j;
lastChange = "2024-02-13 15:31:50 +0000";
layers = (
{
anchors = (
{
name = top;
pos = (18,500);
}
);
layerId = m001;
shapes = (
{
closed = 1;
nodes = (
(163,-234,o),
(223,-125,o),
(223,-5,cs),
(223,470,l),
(29,445,l),
(29,-27,ls),
(29,-58,o),
(-1,-87,o),
(-45,-84,c),
(-13,-234,l)
);
},
{
closed = 1;
nodes = (
(177,499,o),
(244,571,o),
(244,610,cs),
(244,649,o),
(165,707,o),
(128,707,cs),
(88,707,o),
(24,634,o),
(24,595,cs),
(24,557,o),
(102,499,o),
(140,499,cs)
);
}
);
userData = {
com.hugojourdan.ColorFlow = {
"0" = 0;
"1" = 0;
"10" = 0;
"11" = 0;
"2" = 0;
"3" = 0;
"4" = 0;
"5" = 0;
"6" = 0;
"7" = 0;
"8" = 0;
"9" = 0;
};
};
width = 252;
},
{
anchors = (
{
name = top;
pos = (149,500);
}
);
layerId = "44B34E6E-EF7D-473C-A718-23DCC9FE612C";
shapes = (
{
closed = 1;
nodes = (
(64,-221,o),
(135,-125,o),
(135,-5,cs),
(135,459,l),
(87,450,l),
(87,-12,ls),
(87,-146,o),
(43,-168,o),
(-40,-187,c),
(-29,-221,l)
);
},
{
closed = 1;
nodes = (
(122,565,o),
(150,590,o),
(150,606,cs),
(150,623,o),
(118,641,o),
(106,641,cs),
(95,641,o),
(67,615,o),
(67,599,cs),
(67,583,o),
(98,565,o),
(110,565,cs)
);
}
);
userData = {
com.hugojourdan.ColorFlow = {
"0" = 0;
"1" = 0;
"10" = 0;
"11" = 0;
"2" = 0;
"3" = 0;
"4" = 0;
"5" = 0;
"6" = 0;
"7" = 0;
"8" = 0;
"9" = 0;
};
};
width = 222;
}
);
unicode = 106;
},
{
color = 11;
glyphname = jdotless;
lastChange = "2025-03-03 15:39:22 +0000";
layers = (
{
anchors = (
{
name = top;
pos = (109,500);
}
);
layerId = "44B34E6E-EF7D-473C-A718-23DCC9FE612C";
shapes = (
{
closed = 1;
nodes = (
(64,-221,o),
(135,-125,o),
(135,-5,cs),
(135,459,l),
(87,450,l),
(87,-12,ls),
(87,-146,o),
(43,-168,o),
(-40,-187,c),
(-29,-221,l)
);
}
);
userData = {
com.hugojourdan.ColorFlow = {
"0" = 0;
"1" = 0;
"10" = 0;
"11" = 0;
"2" = 0;
"3" = 0;
"4" = 0;
"5" = 0;
"6" = 0;
"7" = 0;
"8" = 0;
"9" = 0;
};
};
width = 207;
},
{
anchors = (
{
name = top;
pos = (118,500);
}
);
layerId = m001;
shapes = (
{
closed = 1;
nodes = (
(162,-236,o),
(223,-125,o),
(223,-5,cs),
(223,470,l),
(29,445,l),
(29,-27,ls),
(29,-58,o),
(0,-88,o),
(-44,-85,c),
(-14,-236,l)
);
}
);
userData = {
com.hugojourdan.ColorFlow = {
"0" = 0;
"1" = 0;
"10" = 0;
"11" = 0;
"2" = 0;
"3" = 0;
"4" = 0;
"5" = 0;
"6" = 0;
"7" = 0;
"8" = 0;
"9" = 0;
};
};
width = 231;
}
);
unicode = 567;
},
{
color = 4;
glyphname = jcircumflex;
lastChange = "2023-09-08 16:00:25 +0000";
layers = (
{
layerId = m001;
shapes = (
{
closed = 1;
nodes = (
(29,-58,o),
(0,-88,o),
(-44,-85,c),
(-14,-236,l),
(162,-236,o),
(223,-125,o),
(223,-5,cs),
(223,470,l),
(29,448,l),
(29,-27,ls)
);
},
{
pos = (-128,0);
ref = circumflex;
}
);
userData = {
com.hugojourdan.ColorFlow = {
"0" = 0;
"1" = 0;
"10" = 0;
"11" = 0;
"2" = 0;
"3" = 0;
"4" = 0;
"5" = 0;
"6" = 0;
"7" = 0;
"8" = 0;
"9" = 0;
};
};
width = 252;
},
{
layerId = "44B34E6E-EF7D-473C-A718-23DCC9FE612C";
shapes = (
{
closed = 1;
nodes = (
(87,-146,o),
(43,-168,o),
(-40,-187,c),
(-29,-221,l),
(64,-221,o),
(135,-125,o),
(135,-5,cs),
(135,459,l),
(87,448,l),
(87,-12,ls)
);
},
{
pos = (-92,0);
ref = circumflex;
}
);
userData = {
com.hugojourdan.ColorFlow = {
"0" = 0;
"1" = 0;
"10" = 0;
"11" = 0;
"2" = 0;
"3" = 0;
"4" = 0;
"5" = 0;
"6" = 0;
"7" = 0;
"8" = 0;
"9" = 0;
};
};
width = 222;
}
);
unicode = 309;
},
{
color = 1;
glyphname = jcrossedtail;
lastChange = "2024-04-13 16:19:04 +0000";
layers = (
{
layerId = "44B34E6E-EF7D-473C-A718-23DCC9FE612C";
shapes = (
{
closed = 1;
nodes = (
(122,565,o),
(150,590,o),
(150,606,cs),
(150,623,o),
(118,641,o),
(106,641,cs),
(95,641,o),
(67,615,o),
(67,599,cs),
(67,583,o),
(98,565,o),
(110,565,cs)
);
},
{
closed = 1;
nodes = (
(-20,-91,o),
(-45,-116,o),
(-45,-148,cs),
(-45,-168,o),
(-29,-185,o),
(-2,-184,cs),
(30,-183,o),
(87,-152,o),
(87,8,cs),
(87,450,l),
(135,459,l),
(135,15,ls),
(135,-167,o),
(48,-225,o),
(-11,-225,cs),
(-57,-225,o),
(-91,-194,o),
(-91,-150,cs),
(-91,-87,o),
(-29,-51,o),
(55,-51,cs),
(100,-51,o),
(147,-55,o),
(209,-64,c),
(209,-106,l),
(155,-98,o),
(99,-91,o),
(50,-91,cs)
);
}
);
userData = {
com.hugojourdan.ColorFlow = {
"0" = 0;
"1" = 0;
"10" = 0;
"11" = 0;
"2" = 0;
"3" = 0;
"4" = 0;
"5" = 0;
"6" = 0;
"7" = 0;
"8" = 0;
"9" = 0;
};
};
width = 222;
},
{
layerId = m001;
shapes = (
{
closed = 1;
nodes = (
(177,499,o),
(244,571,o),
(244,610,cs),
(244,649,o),
(165,707,o),
(128,707,cs),
(88,707,o),
(24,634,o),
(24,595,cs),
(24,557,o),
(102,499,o),
(140,499,cs)
);
},
{
closed = 1;
nodes = (
(-9,-101,o),
(-19,-111,o),
(-19,-121,cs),
(-19,-130,o),
(-14,-135,o),
(-4,-135,cs),
(16,-135,o),
(29,-118,o),
(29,0,cs),
(29,445,l),
(223,470,l),
(223,0,ls),
(223,-159,o),
(116,-243,o),
(15,-243,cs),
(-59,-243,o),
(-113,-201,o),
(-113,-130,cs),
(-113,-72,o),
(-73,-4,o),
(24,-4,cs),
(112,-4,o),
(210,-8,o),
(290,-19,c),
(290,-113,l),
(204,-102,o),
(70,-101,o),
(17,-101,cs)
);
}
);
userData = {
com.hugojourdan.ColorFlow = {
"0" = 0;
"1" = 0;
"10" = 0;
"11" = 0;
"2" = 0;
"3" = 0;
"4" = 0;
"5" = 0;
"6" = 0;
"7" = 0;
"8" = 0;
"9" = 0;
};
};
width = 252;
}
);
unicode = 669;
},
{
color = 3;
glyphname = jdotlessstroke;
lastChange = "2024-02-13 15:31:55 +0000";
layers = (
{
layerId = "44B34E6E-EF7D-473C-A718-23DCC9FE612C";
shapes = (
{
ref = jdotless;
},
{
closed = 1;
nodes = (
(214,222,l),
(214,259,l),
(7,259,l),
(7,222,l)
);
}
);
userData = {
com.hugojourdan.ColorFlow = {
"0" = 0;
"1" = 0;
"10" = 0;
"11" = 0;
"2" = 0;
"3" = 0;
"4" = 0;
"5" = 0;
"6" = 0;
"7" = 0;
"8" = 0;
"9" = 0;
};
};
width = 222;
},
{
layerId = m001;
shapes = (
{
ref = jdotless;
},
{
closed = 1;
nodes = (
(303,177,l),
(303,306,l),
(-50,306,l),
(-50,177,l)
);
}
);
userData = {
com.hugojourdan.ColorFlow = {
"0" = 0;
"1" = 0;
"10" = 0;
"11" = 0;
"2" = 0;
"3" = 0;
"4" = 0;
"5" = 0;
"6" = 0;
"7" = 0;
"8" = 0;
"9" = 0;
};
};
width = 252;
}
);
unicode = 607;
},
{
color = 3;
glyphname = jdotlessstrokehook;
lastChange = "2024-02-13 15:31:55 +0000";
layers = (
{
layerId = "44B34E6E-EF7D-473C-A718-23DCC9FE612C";
shapes = (
{
ref = esh;
},
{
closed = 1;
nodes = (
(214,232,l),
(214,269,l),
(7,269,l),
(7,232,l)
);
}
);
userData = {
com.hugojourdan.ColorFlow = {
"0" = 0;
"1" = 0;
"10" = 0;
"11" = 0;
"2" = 0;
"3" = 0;
"4" = 0;
"5" = 0;
"6" = 0;
"7" = 0;
"8" = 0;
"9" = 0;
};
};
width = 212;
},
{
layerId = m001;
shapes = (
{
pos = (4,0);
ref = esh;
},
{
closed = 1;
nodes = (
(297,177,l),
(297,306,l),
(-36,306,l),
(-36,177,l)
);
}
);
userData = {
com.hugojourdan.ColorFlow = {
"0" = 0;
"1" = 0;
"10" = 0;
"11" = 0;
"2" = 0;
"3" = 0;
"4" = 0;
"5" = 0;
"6" = 0;
"7" = 0;
"8" = 0;
"9" = 0;
};
};
width = 261;
}
);
metricLeft = esh;
metricRight = esh;
unicode = 644;
},
{
color = 4;
glyphname = k;
kernLeft = KO_h;
kernRight = KO_k;
lastChange = "2023-12-16 20:48:22 +0000";
layers = (
{
anchors = (
{
name = bottom;
pos = (273,0);
}
);
layerId = m001;
shapes = (
{
closed = 1;
nodes = (
(551,0,l),
(414,255,l),
(547,450,l),
(350,450,l),
(223,243,l),
(339,0,l)
);
},
{
closed = 1;
nodes = (
(223,0,l),
(223,695,l),
(29,670,l),
(29,0,l)
);
}
);
userData = {
com.hugojourdan.ColorFlow = {
"0" = 0;
"1" = 0;
"10" = 0;
"11" = 0;
"2" = 0;
"3" = 0;
"4" = 0;
"5" = 0;
"6" = 0;
"7" = 0;
"8" = 0;
"9" = 0;
};
};
width = 549;
},
{
anchors = (
{
name = bottom;
pos = (243,0);
}
);
layerId = "44B34E6E-EF7D-473C-A718-23DCC9FE612C";
shapes = (
{
closed = 1;
nodes = (
(412,0,l),
(188,249,l),
(397,450,l),
(335,450,l),
(135,247,l),
(346,0,l)
);
},
{
closed = 1;
nodes = (
(135,0,l),
(135,687,l),
(87,677,l),
(87,0,l)
);
}
);
userData = {
com.hugojourdan.ColorFlow = {
"0" = 0;
"1" = 0;
"10" = 0;
"11" = 0;
"2" = 0;
"3" = 0;
"4" = 0;
"5" = 0;
"6" = 0;
"7" = 0;
"8" = 0;
"9" = 0;
};
};
width = 414;
}
);
unicode = 107;
userData = {
KernOnName = k;
};
},
{
color = 3;
glyphname = khook;
lastChange = "2024-02-13 15:31:55 +0000";
layers = (
{
anchors = (
{
name = bottom;
pos = (243,0);
}
);
layerId = "44B34E6E-EF7D-473C-A718-23DCC9FE612C";
shapes = (
{
closed = 1;
nodes = (
(135,0,l),
(135,461,ls),
(135,518,o),
(135,577,o),
(161,609,cs),
(189,645,o),
(242,657,o),
(276,660,c),
(262,697,l),
(204,693,o),
(141,662,o),
(109,605,cs),
(90,570,o),
(87,539,o),
(87,452,cs),
(87,0,l)
);
},
{
closed = 1;
nodes = (
(412,0,l),
(188,249,l),
(397,450,l),
(335,450,l),
(135,247,l),
(346,0,l)
);
}
);
userData = {
com.hugojourdan.ColorFlow = {
"0" = 0;
"1" = 0;
"10" = 0;
"11" = 0;
"2" = 0;
"3" = 0;
"4" = 0;
"5" = 0;
"6" = 0;
"7" = 0;
"8" = 0;
"9" = 0;
};
};
width = 414;
},
{
anchors = (
{
name = bottom;
pos = (273,0);
}
);
layerId = m001;
shapes = (
{
closed = 1;
nodes = (
(223,0,l),
(223,446,ls),
(223,468,o),
(224,486,o),
(227,501,cs),
(236,545,o),
(259,564,o),
(307,573,c),
(259,717,l),
(158,707,o),
(70,640,o),
(40,567,cs),
(33,549,o),
(29,531,o),
(29,514,cs),
(29,0,l)
);
},
{
closed = 1;
nodes = (
(551,0,l),
(414,255,l),
(547,450,l),
(350,450,l),
(223,243,l),
(339,0,l)
);
}
);
userData = {
com.hugojourdan.ColorFlow = {
"0" = 0;
"1" = 0;
"10" = 0;
"11" = 0;
"2" = 0;
"3" = 0;
"4" = 0;
"5" = 0;
"6" = 0;
"7" = 0;
"8" = 0;
"9" = 0;
};
};
width = 549;
}
);
metricLeft = k;
metricRight = k;
unicode = 409;
},
{
color = 4;
glyphname = l;
kernLeft = KO_l;
kernRight = KO_l;
lastChange = "2023-12-16 20:48:22 +0000";
layers = (
{
anchors = (
{
name = bottom;
pos = (150,0);
},
{
name = top;
pos = (130,450);
},
{
name = topright;
pos = (283,450);
}
);
layerId = m001;
shapes = (
{
closed = 1;
nodes = (
(200,-20,o),
(237,-15,o),
(266,-8,c),
(266,142,l),
(258,140,o),
(253,139,o),
(245,139,cs),
(222,139,o),
(208,148,o),
(208,177,cs),
(208,695,l),
(13,670,l),
(13,131,ls),
(13,19,o),
(74,-20,o),
(164,-20,cs)
);
}
);
userData = {
com.hugojourdan.ColorFlow = {
"0" = 0;
"1" = 0;
"10" = 0;
"11" = 0;
"2" = 0;
"3" = 0;
"4" = 0;
"5" = 0;
"6" = 0;
"7" = 0;
"8" = 0;
"9" = 0;
};
};
width = 268;
},
{
anchors = (
{
name = bottom;
pos = (154,0);
},
{
name = top;
pos = (134,450);
},
{
name = topright;
pos = (232,450);
}
);
layerId = "44B34E6E-EF7D-473C-A718-23DCC9FE612C";
shapes = (
{
closed = 1;
nodes = (
(181,-9,o),
(202,-4,o),
(215,0,c),
(215,37,l),
(203,33,o),
(188,30,o),
(172,30,cs),
(151,30,o),
(141,45,o),
(141,64,cs),
(141,687,l),
(93,677,l),
(93,54,ls),
(93,15,o),
(121,-9,o),
(162,-9,cs)
);
}
);
userData = {
com.hugojourdan.ColorFlow = {
"0" = 0;
"1" = 0;
"10" = 0;
"11" = 0;
"2" = 0;
"3" = 0;
"4" = 0;
"5" = 0;
"6" = 0;
"7" = 0;
"8" = 0;
"9" = 0;
};
};
width = 264;
},
{
anchors = (
{
name = bottom;
pos = (154,0);
},
{
name = top;
pos = (134,450);
},
{
name = topright;
pos = (232,450);
}
);
associatedMasterId = "44B34E6E-EF7D-473C-A718-23DCC9FE612C";
layerId = "56C50CBE-EC72-4D32-8E24-F1C69A11A1B6";
name = "4 de oct. de 23, 23:20";
shapes = (
{
closed = 1;
nodes = (
(187,-9,o),
(215,-1,o),
(224,5,c),
(216,38,l),
(204,33,o),
(189,30,o),
(172,30,cs),
(151,30,o),
(141,45,o),
(141,64,cs),
(141,691,l),
(93,681,l),
(93,54,ls),
(93,15,o),
(121,-9,o),
(162,-9,cs)
);
}
);
userData = {
com.hugojourdan.ColorFlow = {
"0" = 0;
"1" = 0;
"10" = 0;
"11" = 0;
"2" = 0;
"3" = 0;
"4" = 0;
"5" = 0;
"6" = 0;
"7" = 0;
"8" = 0;
"9" = 0;
};
};
width = 264;
},
{
anchors = (
{
name = bottom;
pos = (150,0);
},
{
name = top;
pos = (130,450);
},
{
name = topright;
pos = (283,450);
}
);
associatedMasterId = m001;
layerId = "EC4C2461-679C-4F99-BCFC-F17632183BE6";
name = "4 de oct. de 23, 23:20";
shapes = (
{
closed = 1;
nodes = (
(210,-20,o),
(255,-11,o),
(286,-1,c),
(274,143,l),
(263,140,o),
(255,139,o),
(245,139,cs),
(222,139,o),
(208,148,o),
(208,177,cs),
(208,695,l),
(13,670,l),
(13,131,ls),
(13,19,o),
(74,-20,o),
(164,-20,cs)
);
}
);
userData = {
com.hugojourdan.ColorFlow = {
"0" = 0;
"1" = 0;
"10" = 0;
"11" = 0;
"2" = 0;
"3" = 0;
"4" = 0;
"5" = 0;
"6" = 0;
"7" = 0;
"8" = 0;
"9" = 0;
};
};
visible = 1;
width = 268;
}
);
unicode = 108;
userData = {
KernOnName = l;
};
},
{
color = 3;
glyphname = lbelt;
lastChange = "2024-02-13 15:32:25 +0000";
layers = (
{
layerId = "44B34E6E-EF7D-473C-A718-23DCC9FE612C";
shapes = (
{
closed = 1;
nodes = (
(261,378,l),
(195,363,o),
(163,359,o),
(119,359,cs),
(75,359,o),
(42,371,o),
(42,399,cs),
(42,419,o),
(58,434,o),
(82,435,cs),
(107,436,o),
(142,420,o),
(142,386,c),
(177,394,l),
(164,458,o),
(118,471,o),
(80,471,cs),
(34,471,o),
(0,435,o),
(0,397,cs),
(0,347,o),
(43,318,o),
(133,320,cs),
(173,321,o),
(197,321,o),
(261,337,c)
);
},
{
pos = (49,0);
ref = l;
}
);
userData = {
com.hugojourdan.ColorFlow = {
"0" = 0;
"1" = 0;
"10" = 0;
"11" = 0;
"2" = 0;
"3" = 0;
"4" = 0;
"5" = 0;
"6" = 0;
"7" = 0;
"8" = 0;
"9" = 0;
};
};
width = 313;
},
{
layerId = m001;
shapes = (
{
closed = 1;
nodes = (
(422,328,l),
(282,313,o),
(205,324,o),
(151,324,cs),
(124,324,o),
(114,337,o),
(114,345,cs),
(114,358,o),
(121,365,o),
(134,366,cs),
(145,367,o),
(157,360,o),
(158,346,c),
(222,377,l),
(219,422,o),
(167,470,o),
(113,470,cs),
(46,470,o),
(0,413,o),
(0,346,cs),
(0,245,o),
(92,206,o),
(151,206,cs),
(329,206,o),
(375,209,o),
(422,213,c)
);
},
{
locked = 1;
pos = (145,0);
ref = l;
}
);
userData = {
com.hugojourdan.ColorFlow = {
"0" = 0;
"1" = 0;
"10" = 0;
"11" = 0;
"2" = 0;
"3" = 0;
"4" = 0;
"5" = 0;
"6" = 0;
"7" = 0;
"8" = 0;
"9" = 0;
};
};
width = 424;
}
);
metricRight = l;
unicode = 620;
},
{
color = 3;
glyphname = lezh;
lastChange = "2024-02-13 15:32:25 +0000";
layers = (
{
layerId = "44B34E6E-EF7D-473C-A718-23DCC9FE612C";
shapes = (
{
closed = 1;
nodes = (
(141,0,l),
(141,691,l),
(93,681,l),
(93,0,l)
);
},
{
pos = (96,0);
ref = ezh;
}
);
userData = {
com.hugojourdan.ColorFlow = {
"0" = 0;
"1" = 0;
"10" = 0;
"11" = 0;
"2" = 0;
"3" = 0;
"4" = 0;
"5" = 0;
"6" = 0;
"7" = 0;
"8" = 0;
"9" = 0;
};
};
width = 517;
},
{
layerId = m001;
shapes = (
{
closed = 1;
nodes = (
(208,0,l),
(208,695,l),
(13,670,l),
(13,0,l)
);
},
{
pos = (180,0);
ref = ezh;
}
);
userData = {
com.hugojourdan.ColorFlow = {
"0" = 0;
"1" = 0;
"10" = 0;
"11" = 0;
"2" = 0;
"3" = 0;
"4" = 0;
"5" = 0;
"6" = 0;
"7" = 0;
"8" = 0;
"9" = 0;
};
};
width = 641;
}
);
metricLeft = l;
metricRight = ezh;
unicode = 622;
},
{
color = 3;
glyphname = lhookretroflex;
lastChange = "2024-02-13 15:32:25 +0000";
layers = (
{
anchors = (
{
name = bottom;
pos = (154,0);
},
{
name = top;
pos = (134,450);
},
{
name = topright;
pos = (232,450);
}
);
layerId = "44B34E6E-EF7D-473C-A718-23DCC9FE612C";
shapes = (
{
closed = 1;
nodes = (
(141,691,l),
(93,681,l),
(93,11,ls),
(93,-76,o),
(96,-94,o),
(115,-129,cs),
(147,-186,o),
(205,-217,o),
(263,-221,c),
(277,-184,l),
(243,-181,o),
(194,-169,o),
(166,-133,cs),
(140,-101,o),
(141,-57,o),
(141,0,cs)
);
}
);
userData = {
com.hugojourdan.ColorFlow = {
"0" = 0;
"1" = 0;
"10" = 0;
"11" = 0;
"2" = 0;
"3" = 0;
"4" = 0;
"5" = 0;
"6" = 0;
"7" = 0;
"8" = 0;
"9" = 0;
};
};
width = 264;
},
{
anchors = (
{
name = bottom;
pos = (150,0);
},
{
name = top;
pos = (130,450);
},
{
name = topright;
pos = (283,450);
}
);
layerId = m001;
shapes = (
{
closed = 1;
nodes = (
(208,695,l),
(13,670,l),
(13,-5,ls),
(13,-64,o),
(38,-128,o),
(88,-170,cs),
(135,-211,o),
(192,-232,o),
(243,-237,c),
(289,-93,l),
(260,-88,o),
(245,-79,o),
(232,-64,cs),
(215,-46,o),
(209,-29,o),
(208,6,c)
);
}
);
userData = {
com.hugojourdan.ColorFlow = {
"0" = 0;
"1" = 0;
"10" = 0;
"11" = 0;
"2" = 0;
"3" = 0;
"4" = 0;
"5" = 0;
"6" = 0;
"7" = 0;
"8" = 0;
"9" = 0;
};
};
width = 268;
}
);
unicode = 621;
},
{
color = 3;
glyphname = lsdigraph;
lastChange = "2024-02-13 15:32:25 +0000";
layers = (
{
layerId = "44B34E6E-EF7D-473C-A718-23DCC9FE612C";
shapes = (
{
closed = 1;
nodes = (
(268,-2,o),
(294,-10,o),
(335,-10,cs),
(430,-10,o),
(502,46,o),
(502,124,cs),
(502,198,o),
(441,220,o),
(393,242,cs),
(345,264,ls),
(291,289,o),
(265,307,o),
(265,352,cs),
(265,397,o),
(303,420,o),
(355,420,cs),
(384,420,o),
(434,410,o),
(483,397,c),
(496,438,l),
(478,448,o),
(420,459,o),
(363,459,cs),
(294,459,o),
(220,406,o),
(220,338,cs),
(220,267,o),
(275,240,o),
(313,223,cs),
(375,195,ls),
(412,178,o),
(456,156,o),
(456,111,cs),
(456,59,o),
(413,28,o),
(367,28,cs),
(317,28,o),
(283,34,o),
(240,48,c),
(228,43,o),
(205,30,o),
(172,30,cs),
(151,30,o),
(141,45,o),
(141,64,cs),
(141,691,l),
(93,681,l),
(93,54,ls),
(93,15,o),
(121,-9,o),
(162,-9,cs),
(187,-9,o),
(227,3,o),
(236,9,c)
);
}
);
userData = {
com.hugojourdan.ColorFlow = {
"0" = 0;
"1" = 0;
"10" = 0;
"11" = 0;
"2" = 0;
"3" = 0;
"4" = 0;
"5" = 0;
"6" = 0;
"7" = 0;
"8" = 0;
"9" = 0;
};
};
width = 548;
},
{
layerId = m001;
shapes = (
{
closed = 1;
nodes = (
(332,-9,o),
(368,-20,o),
(465,-20,cs),
(593,-20,o),
(676,44,o),
(676,143,cs),
(676,213,o),
(640,261,o),
(575,278,cs),
(491,300,ls),
(467,306,o),
(457,312,o),
(457,323,cs),
(457,334,o),
(464,340,o),
(485,340,cs),
(536,340,o),
(591,324,o),
(635,304,c),
(663,449,l),
(623,460,o),
(577,470,o),
(493,470,cs),
(359,470,o),
(278,398,o),
(278,307,cs),
(278,235,o),
(314,195,o),
(385,176,cs),
(462,155,ls),
(488,148,o),
(495,141,o),
(495,130,cs),
(495,120,o),
(488,115,o),
(468,115,cs),
(411,115,o),
(360,132,o),
(300,159,c),
(282,142,o),
(255,139,o),
(245,139,cs),
(222,139,o),
(208,148,o),
(208,177,cs),
(208,695,l),
(13,670,l),
(13,131,ls),
(13,19,o),
(74,-20,o),
(164,-20,cs),
(210,-20,o),
(266,-9,o),
(294,6,c)
);
}
);
userData = {
com.hugojourdan.ColorFlow = {
"0" = 0;
"1" = 0;
"10" = 0;
"11" = 0;
"2" = 0;
"3" = 0;
"4" = 0;
"5" = 0;
"6" = 0;
"7" = 0;
"8" = 0;
"9" = 0;
};
};
width = 685;
},
{
anchors = (
{
name = bottom;
pos = (150,0);
},
{
name = top;
pos = (130,450);
},
{
name = topright;
pos = (283,450);
}
);
associatedMasterId = m001;
layerId = "DF12686A-F40E-4004-BD24-BF73C5BEFD5A";
name = "8 de sep. de 23, 16:11";
shapes = (
{
closed = 1;
nodes = (
(210,-20,o),
(255,-11,o),
(286,-1,c),
(274,143,l),
(263,140,o),
(255,139,o),
(245,139,cs),
(222,139,o),
(208,148,o),
(208,177,cs),
(208,695,l),
(13,670,l),
(13,131,ls),
(13,19,o),
(74,-20,o),
(164,-20,cs)
);
},
{
closed = 1;
nodes = (
(603,-20,o),
(686,44,o),
(686,143,cs),
(686,213,o),
(650,261,o),
(585,278,cs),
(501,300,ls),
(477,306,o),
(467,312,o),
(467,323,cs),
(467,334,o),
(474,340,o),
(495,340,cs),
(546,340,o),
(601,324,o),
(645,304,c),
(673,449,l),
(633,460,o),
(587,470,o),
(503,470,cs),
(369,470,o),
(288,398,o),
(288,307,cs),
(288,235,o),
(324,195,o),
(395,176,cs),
(472,155,ls),
(498,148,o),
(505,141,o),
(505,130,cs),
(505,120,o),
(498,115,o),
(478,115,cs),
(421,115,o),
(361,136,o),
(314,157,c),
(278,15,l),
(316,0,o),
(378,-20,o),
(475,-20,cs)
);
}
);
userData = {
com.hugojourdan.ColorFlow = {
"0" = 0;
"1" = 0;
"10" = 0;
"11" = 0;
"2" = 0;
"3" = 0;
"4" = 0;
"5" = 0;
"6" = 0;
"7" = 0;
"8" = 0;
"9" = 0;
};
};
width = 695;
},
{
anchors = (
{
name = bottom;
pos = (154,0);
},
{
name = top;
pos = (134,450);
},
{
name = topright;
pos = (232,450);
}
);
associatedMasterId = "44B34E6E-EF7D-473C-A718-23DCC9FE612C";
layerId = "20AF4664-9EC4-4E53-BEB9-C82A13AF6793";
name = "8 de sep. de 23, 16:15";
shapes = (
{
closed = 1;
nodes = (
(187,-9,o),
(215,0,o),
(224,6,c),
(216,38,l),
(204,33,o),
(189,30,o),
(172,30,cs),
(151,30,o),
(141,45,o),
(141,64,cs),
(141,691,l),
(93,681,l),
(93,54,ls),
(93,15,o),
(121,-9,o),
(162,-9,cs)
);
},
{
closed = 1;
nodes = (
(430,-10,o),
(502,46,o),
(502,124,cs),
(502,198,o),
(441,220,o),
(393,242,cs),
(345,264,ls),
(291,289,o),
(265,307,o),
(265,352,cs),
(265,397,o),
(303,420,o),
(355,420,cs),
(384,420,o),
(434,410,o),
(483,397,c),
(496,438,l),
(478,448,o),
(420,459,o),
(363,459,cs),
(294,459,o),
(220,406,o),
(220,338,cs),
(220,267,o),
(275,241,o),
(313,223,cs),
(375,195,ls),
(412,178,o),
(456,156,o),
(456,111,cs),
(456,59,o),
(413,28,o),
(367,28,cs),
(310,28,o),
(270,37,o),
(217,55,c),
(209,12,l),
(241,1,o),
(294,-10,o),
(335,-10,cs)
);
}
);
userData = {
com.hugojourdan.ColorFlow = {
"0" = 0;
"1" = 0;
"10" = 0;
"11" = 0;
"2" = 0;
"3" = 0;
"4" = 0;
"5" = 0;
"6" = 0;
"7" = 0;
"8" = 0;
"9" = 0;
};
};
visible = 1;
width = 548;
}
);
metricLeft = l;
metricRight = s;
unicode = 682;
},
{
color = 4;
glyphname = lslash;
lastChange = "2023-09-08 16:00:25 +0000";
layers = (
{
layerId = m001;
shapes = (
{
closed = 1;
nodes = (
(-12,351,l),
(-12,219,l),
(306,345,l),
(306,477,l)
);
},
{
pos = (19,0);
ref = l;
}
);
userData = {
com.hugojourdan.ColorFlow = {
"0" = 0;
"1" = 0;
"10" = 0;
"11" = 0;
"2" = 0;
"3" = 0;
"4" = 0;
"5" = 0;
"6" = 0;
"7" = 0;
"8" = 0;
"9" = 0;
};
};
width = 324;
},
{
layerId = "44B34E6E-EF7D-473C-A718-23DCC9FE612C";
shapes = (
{
closed = 1;
nodes = (
(20,315,l),
(20,274,l),
(214,360,l),
(214,400,l)
);
},
{
pos = (-7,0);
ref = l;
}
);
userData = {
com.hugojourdan.ColorFlow = {
"0" = 0;
"1" = 0;
"10" = 0;
"11" = 0;
"2" = 0;
"3" = 0;
"4" = 0;
"5" = 0;
"6" = 0;
"7" = 0;
"8" = 0;
"9" = 0;
};
};
width = 244;
}
);
unicode = 322;
},
{
color = 3;
glyphname = lzdigraph;
lastChange = "2024-02-13 15:32:25 +0000";
layers = (
{
layerId = "44B34E6E-EF7D-473C-A718-23DCC9FE612C";
shapes = (
{
closed = 1;
nodes = (
(528,0,l),
(533,44,l),
(264,40,l),
(519,418,l),
(519,450,l),
(129,450,l),
(124,406,l),
(457,410,l),
(208,36,l),
(208,0,l)
);
},
{
closed = 1;
nodes = (
(141,0,l),
(141,691,l),
(93,681,l),
(93,0,l)
);
}
);
userData = {
com.hugojourdan.ColorFlow = {
"0" = 0;
"1" = 0;
"10" = 0;
"11" = 0;
"2" = 0;
"3" = 0;
"4" = 0;
"5" = 0;
"6" = 0;
"7" = 0;
"8" = 0;
"9" = 0;
};
};
width = 571;
},
{
layerId = m001;
shapes = (
{
closed = 1;
nodes = (
(655,0,l),
(668,132,l),
(486,132,l),
(650,313,l),
(650,450,l),
(186,450,l),
(173,312,l),
(417,312,l),
(251,124,l),
(251,0,l)
);
},
{
closed = 1;
nodes = (
(208,0,l),
(208,695,l),
(13,670,l),
(13,0,l)
);
}
);
userData = {
com.hugojourdan.ColorFlow = {
"0" = 0;
"1" = 0;
"10" = 0;
"11" = 0;
"2" = 0;
"3" = 0;
"4" = 0;
"5" = 0;
"6" = 0;
"7" = 0;
"8" = 0;
"9" = 0;
};
};
width = 676;
}
);
metricLeft = l;
metricRight = z;
unicode = 683;
},
{
color = 4;
glyphname = m;
kernLeft = KO_r;
kernRight = KO_n;
lastChange = "2023-12-16 20:48:22 +0000";
layers = (
{
anchors = (
{
name = top;
pos = (416,500);
}
);
layerId = m001;
shapes = (
{
closed = 1;
nodes = (
(223,0,l),
(223,324,l),
(235,328,o),
(247,331,o),
(262,331,cs),
(291,331,o),
(308,316,o),
(308,273,cs),
(308,0,l),
(502,0,l),
(502,306,l),
(502,312,o),
(502,318,o),
(502,324,c),
(513,328,o),
(526,331,o),
(540,331,cs),
(570,331,o),
(587,316,o),
(587,273,cs),
(587,0,l),
(781,0,l),
(781,329,ls),
(781,435,o),
(714,470,o),
(633,470,cs),
(567,470,o),
(515,453,o),
(469,429,c),
(442,459,o),
(400,470,o),
(354,470,cs),
(295,470,o),
(239,452,o),
(196,431,c),
(166,470,l),
(29,445,l),
(29,0,l)
);
}
);
userData = {
com.hugojourdan.ColorFlow = {
"0" = 0;
"1" = 0;
"10" = 0;
"11" = 0;
"2" = 0;
"3" = 0;
"4" = 0;
"5" = 0;
"6" = 0;
"7" = 0;
"8" = 0;
"9" = 0;
};
};
width = 813;
},
{
anchors = (
{
name = top;
pos = (373,500);
}
);
layerId = "44B34E6E-EF7D-473C-A718-23DCC9FE612C";
shapes = (
{
closed = 1;
nodes = (
(135,0,l),
(135,375,l),
(177,395,o),
(220,415,o),
(262,415,cs),
(324,415,o),
(351,369,o),
(351,305,cs),
(351,0,l),
(400,0,l),
(400,329,ls),
(400,344,o),
(398,358,o),
(395,371,c),
(440,392,o),
(486,415,o),
(531,415,cs),
(593,415,o),
(620,369,o),
(620,305,cs),
(620,0,l),
(669,0,l),
(669,329,ls),
(669,403,o),
(627,459,o),
(542,459,cs),
(502,459,o),
(423,421,o),
(385,398,c),
(366,435,o),
(328,459,o),
(273,459,cs),
(237,459,o),
(174,430,o),
(134,408,c),
(123,459,l),
(87,450,l),
(87,0,l)
);
}
);
userData = {
com.hugojourdan.ColorFlow = {
"0" = 0;
"1" = 0;
"10" = 0;
"11" = 0;
"2" = 0;
"3" = 0;
"4" = 0;
"5" = 0;
"6" = 0;
"7" = 0;
"8" = 0;
"9" = 0;
};
};
width = 743;
}
);
unicode = 109;
userData = {
KernOnName = m;
};
},
{
color = 3;
glyphname = mhook;
lastChange = "2024-02-13 15:32:25 +0000";
layers = (
{
layerId = "44B34E6E-EF7D-473C-A718-23DCC9FE612C";
shapes = (
{
closed = 1;
nodes = (
(551,-217,o),
(614,-186,o),
(646,-129,cs),
(665,-94,o),
(669,-87,o),
(669,0,cs),
(669,329,ls),
(669,403,o),
(627,459,o),
(542,459,cs),
(502,459,o),
(423,421,o),
(385,398,c),
(366,435,o),
(328,459,o),
(273,459,cs),
(237,459,o),
(174,430,o),
(134,408,c),
(123,459,l),
(87,450,l),
(87,0,l),
(135,0,l),
(135,375,l),
(177,395,o),
(220,415,o),
(262,415,cs),
(324,415,o),
(351,369,o),
(351,305,cs),
(351,0,l),
(400,0,l),
(400,329,ls),
(400,344,o),
(398,358,o),
(395,371,c),
(440,392,o),
(486,415,o),
(531,415,cs),
(593,415,o),
(620,369,o),
(620,305,cs),
(620,0,ls),
(620,-57,o),
(620,-101,o),
(594,-133,cs),
(566,-169,o),
(513,-181,o),
(479,-184,c),
(493,-221,l)
);
}
);
userData = {
com.hugojourdan.ColorFlow = {
"0" = 0;
"1" = 0;
"10" = 0;
"11" = 0;
"2" = 0;
"3" = 0;
"4" = 0;
"5" = 0;
"6" = 0;
"7" = 0;
"8" = 0;
"9" = 0;
};
};
width = 746;
},
{
layerId = m001;
shapes = (
{
closed = 1;
nodes = (
(598,-232,o),
(646,-211,o),
(686,-177,cs),
(743,-128,o),
(781,-54,o),
(781,35,cs),
(781,329,ls),
(781,435,o),
(714,470,o),
(633,470,cs),
(567,470,o),
(515,453,o),
(469,429,c),
(442,459,o),
(400,470,o),
(354,470,cs),
(295,470,o),
(239,452,o),
(196,431,c),
(166,470,l),
(29,445,l),
(29,0,l),
(223,0,l),
(223,324,l),
(235,328,o),
(247,331,o),
(262,331,cs),
(291,331,o),
(308,316,o),
(308,273,cs),
(308,0,l),
(502,0,l),
(502,306,l),
(502,312,o),
(502,318,o),
(502,324,c),
(513,328,o),
(526,331,o),
(540,331,cs),
(570,331,o),
(587,316,o),
(587,273,cs),
(587,19,ls),
(587,-20,o),
(580,-46,o),
(563,-64,cs),
(550,-79,o),
(531,-88,o),
(502,-93,c),
(547,-237,l)
);
}
);
userData = {
com.hugojourdan.ColorFlow = {
"0" = 0;
"1" = 0;
"10" = 0;
"11" = 0;
"2" = 0;
"3" = 0;
"4" = 0;
"5" = 0;
"6" = 0;
"7" = 0;
"8" = 0;
"9" = 0;
};
};
width = 813;
}
);
metricLeft = m;
metricRight = eng;
unicode = 625;
},
{
color = 3;
glyphname = mlonglegturned;
lastChange = "2024-02-13 15:32:25 +0000";
layers = (
{
anchors = (
{
name = bottom;
pos = (372,-50);
}
);
layerId = "44B34E6E-EF7D-473C-A718-23DCC9FE612C";
shapes = (
{
closed = 1;
nodes = (
(658,-215,l),
(658,450,l),
(610,450,l),
(610,75,l),
(568,55,o),
(525,35,o),
(483,35,cs),
(421,35,o),
(394,81,o),
(394,145,cs),
(394,450,l),
(345,450,l),
(345,121,ls),
(345,106,o),
(347,92,o),
(350,79,c),
(305,58,o),
(259,35,o),
(214,35,cs),
(152,35,o),
(125,81,o),
(125,145,cs),
(125,450,l),
(76,450,l),
(76,121,ls),
(76,47,o),
(118,-9,o),
(203,-9,cs),
(243,-9,o),
(322,29,o),
(360,52,c),
(379,15,o),
(417,-9,o),
(472,-9,cs),
(508,-9,o),
(571,20,o),
(611,42,c),
(611,-224,l)
);
}
);
userData = {
com.hugojourdan.ColorFlow = {
"0" = 0;
"1" = 0;
"10" = 0;
"11" = 0;
"2" = 0;
"3" = 0;
"4" = 0;
"5" = 0;
"6" = 0;
"7" = 0;
"8" = 0;
"9" = 0;
};
};
width = 745;
},
{
anchors = (
{
name = bottom;
pos = (398,-50);
}
);
layerId = m001;
shapes = (
{
closed = 1;
nodes = (
(785,-209,l),
(785,450,l),
(591,450,l),
(591,126,l),
(579,122,o),
(567,119,o),
(552,119,cs),
(523,119,o),
(506,134,o),
(506,177,cs),
(506,450,l),
(312,450,l),
(312,144,l),
(312,138,o),
(312,132,o),
(312,126,c),
(301,122,o),
(288,119,o),
(274,119,cs),
(244,119,o),
(227,134,o),
(227,177,cs),
(227,450,l),
(33,450,l),
(33,121,ls),
(33,15,o),
(100,-20,o),
(181,-20,cs),
(247,-20,o),
(299,-3,o),
(345,21,c),
(372,-9,o),
(414,-20,o),
(460,-20,cs),
(508,-20,o),
(551,-9,o),
(590,6,c),
(590,-234,l)
);
}
);
userData = {
com.hugojourdan.ColorFlow = {
"0" = 0;
"1" = 0;
"10" = 0;
"11" = 0;
"2" = 0;
"3" = 0;
"4" = 0;
"5" = 0;
"6" = 0;
"7" = 0;
"8" = 0;
"9" = 0;
};
};
width = 813;
}
);
metricLeft = u;
metricRight = u;
unicode = 624;
},
{
color = 3;
glyphname = mmiddletilde;
lastChange = "2024-02-13 15:32:25 +0000";
layers = (
{
layerId = "44B34E6E-EF7D-473C-A718-23DCC9FE612C";
shapes = (
{
ref = m;
},
{
closed = 1;
nodes = (
(712,231,o),
(692,206,o),
(666,206,cs),
(471,206,o),
(284,256,o),
(104,256,cs),
(62,256,o),
(35,220,o),
(8,192,c),
(29,172,l),
(34,176,o),
(68,223,o),
(94,223,cs),
(248,223,o),
(491,170,o),
(663,170,cs),
(705,170,o),
(725,198,o),
(750,220,c),
(727,245,l)
);
}
);
userData = {
com.hugojourdan.ColorFlow = {
"0" = 0;
"1" = 0;
"10" = 0;
"11" = 0;
"2" = 0;
"3" = 0;
"4" = 0;
"5" = 0;
"6" = 0;
"7" = 0;
"8" = 0;
"9" = 0;
};
};
width = 743;
},
{
layerId = m001;
shapes = (
{
locked = 1;
ref = m;
},
{
closed = 1;
nodes = (
(817,233,o),
(788,222,o),
(762,222,cs),
(434,223,o),
(403,260,o),
(60,262,cs),
(18,262,o),
(-74,158,o),
(-68,162,c),
(-19,91,l),
(-14,99,o),
(22,135,o),
(48,135,cs),
(374,134,o),
(417,99,o),
(753,97,cs),
(795,97,o),
(873,152,o),
(884,166,c),
(839,243,l)
);
}
);
userData = {
com.hugojourdan.ColorFlow = {
"0" = 0;
"1" = 0;
"10" = 0;
"11" = 0;
"2" = 0;
"3" = 0;
"4" = 0;
"5" = 0;
"6" = 0;
"7" = 0;
"8" = 0;
"9" = 0;
};
};
width = 813;
}
);
unicode = 7535;
},
{
color = 4;
glyphname = n;
kernLeft = KO_r;
kernRight = KO_n;
lastChange = "2023-12-16 20:48:52 +0000";
layers = (
{
anchors = (
{
name = bottom;
pos = (257,0);
},
{
name = top;
pos = (257,500);
}
);
layerId = m001;
shapes = (
{
closed = 1;
nodes = (
(223,0,l),
(223,323,l),
(230,328,o),
(244,333,o),
(260,333,cs),
(290,333,o),
(308,313,o),
(308,273,cs),
(308,0,l),
(502,0,l),
(502,329,ls),
(502,435,o),
(432,470,o),
(350,470,cs),
(290,470,o),
(239,451,o),
(196,430,c),
(166,470,l),
(29,445,l),
(29,0,l)
);
}
);
userData = {
com.hugojourdan.ColorFlow = {
"0" = 0;
"1" = 0;
"10" = 0;
"11" = 0;
"2" = 0;
"3" = 0;
"4" = 0;
"5" = 0;
"6" = 0;
"7" = 0;
"8" = 0;
"9" = 0;
};
};
width = 534;
},
{
anchors = (
{
name = bottom;
pos = (253,0);
},
{
name = top;
pos = (253,500);
}
);
layerId = "44B34E6E-EF7D-473C-A718-23DCC9FE612C";
shapes = (
{
closed = 1;
nodes = (
(135,0,l),
(135,375,l),
(178,394,o),
(225,413,o),
(268,413,cs),
(330,413,o),
(366,369,o),
(366,305,cs),
(366,0,l),
(414,0,l),
(414,329,ls),
(414,403,o),
(366,459,o),
(281,459,cs),
(241,459,o),
(172,428,o),
(134,406,c),
(123,459,l),
(87,450,l),
(87,0,l)
);
}
);
userData = {
com.hugojourdan.ColorFlow = {
"0" = 0;
"1" = 0;
"10" = 0;
"11" = 0;
"2" = 0;
"3" = 0;
"4" = 0;
"5" = 0;
"6" = 0;
"7" = 0;
"8" = 0;
"9" = 0;
};
};
width = 491;
}
);
unicode = 110;
userData = {
KernOnName = n;
};
},
{
color = 3;
glyphname = nhookleft;
lastChange = "2024-02-13 15:32:25 +0000";
layers = (
{
anchors = (
{
name = bottom;
pos = (253,0);
},
{
name = top;
pos = (253,500);
}
);
layerId = "44B34E6E-EF7D-473C-A718-23DCC9FE612C";
shapes = (
{
closed = 1;
nodes = (
(135,375,l),
(178,394,o),
(225,413,o),
(268,413,cs),
(330,413,o),
(366,369,o),
(366,305,cs),
(366,0,l),
(414,0,l),
(414,329,ls),
(414,403,o),
(366,459,o),
(281,459,cs),
(241,459,o),
(172,428,o),
(134,406,c),
(123,459,l),
(87,450,l),
(87,-12,ls),
(87,-146,o),
(43,-168,o),
(-40,-187,c),
(-29,-221,l),
(64,-221,o),
(135,-125,o),
(135,-5,cs)
);
}
);
userData = {
com.hugojourdan.ColorFlow = {
"0" = 0;
"1" = 0;
"10" = 0;
"11" = 0;
"2" = 0;
"3" = 0;
"4" = 0;
"5" = 0;
"6" = 0;
"7" = 0;
"8" = 0;
"9" = 0;
};
};
width = 491;
},
{
anchors = (
{
name = bottom;
pos = (257,0);
},
{
name = top;
pos = (257,500);
}
);
layerId = m001;
shapes = (
{
closed = 1;
nodes = (
(223,323,l),
(230,328,o),
(244,333,o),
(260,333,cs),
(290,333,o),
(308,313,o),
(308,273,cs),
(308,0,l),
(502,0,l),
(502,329,ls),
(502,435,o),
(432,470,o),
(350,470,cs),
(290,470,o),
(239,451,o),
(196,430,c),
(166,470,l),
(29,445,l),
(29,-27,ls),
(29,-58,o),
(-1,-87,o),
(-45,-84,c),
(-13,-234,l),
(163,-234,o),
(223,-125,o),
(223,-5,cs)
);
}
);
userData = {
com.hugojourdan.ColorFlow = {
"0" = 0;
"1" = 0;
"10" = 0;
"11" = 0;
"2" = 0;
"3" = 0;
"4" = 0;
"5" = 0;
"6" = 0;
"7" = 0;
"8" = 0;
"9" = 0;
};
};
width = 534;
}
);
metricLeft = j;
metricRight = n;
unicode = 626;
},
{
color = 3;
glyphname = nhookretroflex;
lastChange = "2024-02-13 15:32:25 +0000";
layers = (
{
anchors = (
{
name = bottom;
pos = (253,0);
},
{
name = top;
pos = (253,500);
}
);
layerId = "44B34E6E-EF7D-473C-A718-23DCC9FE612C";
shapes = (
{
closed = 1;
nodes = (
(556,-184,l),
(522,-181,o),
(469,-169,o),
(441,-133,cs),
(415,-101,o),
(414,-57,o),
(414,0,cs),
(414,329,ls),
(414,403,o),
(366,459,o),
(281,459,cs),
(241,459,o),
(172,428,o),
(134,406,c),
(123,459,l),
(87,450,l),
(87,0,l),
(135,0,l),
(135,375,l),
(178,394,o),
(225,413,o),
(268,413,cs),
(330,413,o),
(366,369,o),
(366,305,cs),
(366,0,ls),
(366,-87,o),
(370,-94,o),
(389,-129,cs),
(421,-186,o),
(484,-217,o),
(542,-221,c)
);
}
);
userData = {
com.hugojourdan.ColorFlow = {
"0" = 0;
"1" = 0;
"10" = 0;
"11" = 0;
"2" = 0;
"3" = 0;
"4" = 0;
"5" = 0;
"6" = 0;
"7" = 0;
"8" = 0;
"9" = 0;
};
};
width = 491;
},
{
anchors = (
{
name = bottom;
pos = (257,0);
},
{
name = top;
pos = (257,500);
}
);
layerId = m001;
shapes = (
{
closed = 1;
nodes = (
(587,-93,l),
(558,-88,o),
(539,-79,o),
(526,-64,cs),
(509,-46,o),
(502,-20,o),
(502,19,cs),
(502,329,ls),
(502,435,o),
(432,470,o),
(350,470,cs),
(290,470,o),
(239,451,o),
(196,430,c),
(166,470,l),
(29,445,l),
(29,0,l),
(223,0,l),
(223,323,l),
(230,328,o),
(244,333,o),
(260,333,cs),
(290,333,o),
(308,313,o),
(308,273,cs),
(308,35,ls),
(308,-54,o),
(346,-128,o),
(403,-177,cs),
(443,-211,o),
(491,-232,o),
(542,-237,c)
);
}
);
userData = {
com.hugojourdan.ColorFlow = {
"0" = 0;
"1" = 0;
"10" = 0;
"11" = 0;
"2" = 0;
"3" = 0;
"4" = 0;
"5" = 0;
"6" = 0;
"7" = 0;
"8" = 0;
"9" = 0;
};
};
width = 534;
}
);
metricLeft = n;
unicode = 627;
},
{
color = 3;
glyphname = nmiddletilde;
lastChange = "2024-02-13 15:32:25 +0000";
layers = (
{
layerId = "44B34E6E-EF7D-473C-A718-23DCC9FE612C";
shapes = (
{
locked = 1;
ref = n;
},
{
closed = 1;
nodes = (
(451,235,o),
(431,220,o),
(405,220,cs),
(296,220,o),
(236,250,o),
(114,250,cs),
(72,250,o),
(45,224,o),
(18,196,c),
(39,176,l),
(44,180,o),
(78,217,o),
(104,217,cs),
(210,217,o),
(286,184,o),
(402,184,cs),
(444,184,o),
(464,202,o),
(489,224,c),
(466,249,l)
);
}
);
userData = {
com.hugojourdan.ColorFlow = {
"0" = 0;
"1" = 0;
"10" = 0;
"11" = 0;
"2" = 0;
"3" = 0;
"4" = 0;
"5" = 0;
"6" = 0;
"7" = 0;
"8" = 0;
"9" = 0;
};
};
width = 491;
},
{
layerId = m001;
shapes = (
{
locked = 1;
ref = n;
},
{
closed = 1;
nodes = (
(534,232,o),
(505,221,o),
(479,221,cs),
(341,222,o),
(220,259,o),
(67,261,cs),
(25,262,o),
(-67,157,o),
(-61,161,c),
(-12,90,l),
(-7,98,o),
(29,134,o),
(55,134,cs),
(191,133,o),
(324,98,o),
(470,96,cs),
(512,95,o),
(590,151,o),
(601,165,c),
(556,242,l)
);
}
);
userData = {
com.hugojourdan.ColorFlow = {
"0" = 0;
"1" = 0;
"10" = 0;
"11" = 0;
"2" = 0;
"3" = 0;
"4" = 0;
"5" = 0;
"6" = 0;
"7" = 0;
"8" = 0;
"9" = 0;
};
};
width = 534;
}
);
unicode = 7536;
},
{
color = 4;
glyphname = eng;
lastChange = "2023-09-08 16:00:25 +0000";
layers = (
{
layerId = m001;
shapes = (
{
closed = 1;
nodes = (
(308,-65,o),
(279,-88,o),
(235,-85,c),
(265,-236,l),
(441,-236,o),
(502,-125,o),
(502,-5,cs),
(502,233,l),
(308,211,l),
(308,-34,ls)
);
},
{
ref = n;
}
);
userData = {
com.hugojourdan.ColorFlow = {
"0" = 0;
"1" = 0;
"10" = 0;
"11" = 0;
"2" = 0;
"3" = 0;
"4" = 0;
"5" = 0;
"6" = 0;
"7" = 0;
"8" = 0;
"9" = 0;
};
};
width = 534;
},
{
layerId = "44B34E6E-EF7D-473C-A718-23DCC9FE612C";
shapes = (
{
closed = 1;
nodes = (
(366,-138,o),
(322,-168,o),
(239,-187,c),
(250,-221,l),
(343,-221,o),
(414,-125,o),
(414,-5,cs),
(414,109,l),
(366,98,l),
(366,-4,ls)
);
},
{
ref = n;
}
);
userData = {
com.hugojourdan.ColorFlow = {
"0" = 0;
"1" = 0;
"10" = 0;
"11" = 0;
"2" = 0;
"3" = 0;
"4" = 0;
"5" = 0;
"6" = 0;
"7" = 0;
"8" = 0;
"9" = 0;
};
};
width = 491;
}
);
unicode = 331;
},
{
color = 4;
glyphname = o;
kernLeft = KO_o;
kernRight = KO_o;
lastChange = "2023-12-16 20:48:22 +0000";
layers = (
{
anchors = (
{
name = top;
pos = (268,500);
}
);
layerId = m001;
shapes = (
{
closed = 1;
nodes = (
(414,-20,o),
(522,78,o),
(522,233,cs),
(522,406,o),
(429,470,o),
(279,470,cs),
(123,470,o),
(14,371,o),
(14,215,cs),
(14,43,o),
(114,-20,o),
(253,-20,cs)
);
},
{
closed = 1;
nodes = (
(247,109,o),
(212,127,o),
(212,236,cs),
(212,322,o),
(227,340,o),
(258,340,cs),
(290,340,o),
(325,322,o),
(325,212,cs),
(325,125,o),
(310,109,o),
(279,109,cs)
);
}
);
userData = {
com.hugojourdan.ColorFlow = {
"0" = 0;
"1" = 0;
"10" = 0;
"11" = 0;
"2" = 0;
"3" = 0;
"4" = 0;
"5" = 0;
"6" = 0;
"7" = 0;
"8" = 0;
"9" = 0;
};
};
width = 537;
},
{
anchors = (
{
name = top;
pos = (242,500);
}
);
layerId = "44B34E6E-EF7D-473C-A718-23DCC9FE612C";
shapes = (
{
closed = 1;
nodes = (
(361,-11,o),
(442,79,o),
(442,234,cs),
(442,370,o),
(369,459,o),
(259,459,cs),
(125,459,o),
(44,371,o),
(44,216,cs),
(44,80,o),
(123,-11,o),
(232,-11,cs)
);
},
{
closed = 1;
nodes = (
(155,33,o),
(92,96,o),
(92,237,cs),
(92,346,o),
(139,417,o),
(232,417,cs),
(330,417,o),
(394,354,o),
(394,213,cs),
(394,106,o),
(347,33,o),
(253,33,cs)
);
}
);
userData = {
com.hugojourdan.ColorFlow = {
"0" = 0;
"1" = 0;
"10" = 0;
"11" = 0;
"2" = 0;
"3" = 0;
"4" = 0;
"5" = 0;
"6" = 0;
"7" = 0;
"8" = 0;
"9" = 0;
};
};
width = 486;
}
);
unicode = 111;
userData = {
KernOnName = o;
};
},
{
color = 3;
glyphname = obarred;
kernLeft = KO_o;
kernRight = KO_o;
lastChange = "2024-02-13 15:32:55 +0000";
layers = (
{
layerId = "44B34E6E-EF7D-473C-A718-23DCC9FE612C";
shapes = (
{
closed = 1;
nodes = (
(420,213,l),
(430,250,l),
(164,250,l),
(83,240,l),
(83,213,l)
);
},
{
ref = o;
}
);
userData = {
com.hugojourdan.ColorFlow = {
"0" = 0;
"1" = 0;
"10" = 0;
"11" = 0;
"2" = 0;
"3" = 0;
"4" = 0;
"5" = 0;
"6" = 0;
"7" = 0;
"8" = 0;
"9" = 0;
};
};
width = 486;
},
{
layerId = m001;
shapes = (
{
closed = 1;
nodes = (
(341,197,l),
(339,264,l),
(253,264,l),
(172,252,l),
(172,197,l)
);
},
{
locked = 1;
ref = o;
}
);
userData = {
com.hugojourdan.ColorFlow = {
"0" = 0;
"1" = 0;
"10" = 0;
"11" = 0;
"2" = 0;
"3" = 0;
"4" = 0;
"5" = 0;
"6" = 0;
"7" = 0;
"8" = 0;
"9" = 0;
};
};
width = 537;
}
);
metricLeft = o;
metricRight = o;
unicode = 629;
},
{
color = 1;
glyphname = "omegaclosed-latin";
lastChange = "2024-04-13 17:09:17 +0000";
layers = (
{
layerId = "44B34E6E-EF7D-473C-A718-23DCC9FE612C";
shapes = (
{
closed = 1;
nodes = (
(270,-7,o),
(328,40,o),
(348,110,c),
(364,40,o),
(424,-7,o),
(495,-7,cs),
(596,-7,o),
(658,85,o),
(648,196,cs),
(634,346,o),
(537,459,o),
(363,459,cs),
(158,459,o),
(50,337,o),
(44,198,cs),
(39,73,o),
(89,-7,o),
(195,-7,cs)
);
},
{
closed = 1;
nodes = (
(108,36,o),
(82,119,o),
(87,214,cs),
(93,330,o),
(172,417,o),
(334,417,cs),
(511,417,o),
(595,321,o),
(606,188,cs),
(616,66,o),
(559,37,o),
(495,37,cs),
(415,37,o),
(375,96,o),
(375,262,c),
(327,256,l),
(324,96,o),
(268,36,o),
(195,36,cs)
);
}
);
userData = {
com.hugojourdan.ColorFlow = {
"0" = 0;
"1" = 0;
"10" = 0;
"11" = 0;
"2" = 0;
"3" = 0;
"4" = 0;
"5" = 0;
"6" = 0;
"7" = 0;
"8" = 0;
"9" = 0;
};
};
width = 693;
},
{
layerId = m001;
shapes = (
{
closed = 1;
nodes = (
(272,-18,o),
(321,20,o),
(342,67,c),
(356,18,o),
(404,-19,o),
(487,-19,cs),
(604,-19,o),
(674,87,o),
(674,211,cs),
(674,361,o),
(591,462,o),
(359,462,cs),
(147,462,o),
(14,350,o),
(14,197,cs),
(14,65,o),
(93,-18,o),
(202,-18,cs)
);
},
{
closed = 1;
nodes = (
(226,165,o),
(211,182,o),
(211,213,cs),
(211,263,o),
(238,276,o),
(354,276,cs),
(461,276,o),
(496,243,o),
(496,203,cs),
(496,180,o),
(487,159,o),
(461,160,cs),
(425,160,o),
(423,226,o),
(427,251,c),
(282,245,l),
(282,200,o),
(265,165,o),
(244,165,cs)
);
}
);
userData = {
com.hugojourdan.ColorFlow = {
"0" = 0;
"1" = 0;
"10" = 0;
"11" = 0;
"2" = 0;
"3" = 0;
"4" = 0;
"5" = 0;
"6" = 0;
"7" = 0;
"8" = 0;
"9" = 0;
};
};
width = 689;
}
);
metricLeft = o;
metricRight = o;
unicode = 631;
},
{
color = 4;
glyphname = oslash;
lastChange = "2023-09-08 16:00:25 +0000";
layers = (
{
anchors = (
{
name = top;
pos = (253,500);
}
);
layerId = m001;
shapes = (
{
closed = 1;
nodes = (
(155,-71,l),
(476,523,l),
(380,523,l),
(58,-71,l)
);
},
{
ref = o;
}
);
userData = {
com.hugojourdan.ColorFlow = {
"0" = 0;
"1" = 0;
"10" = 0;
"11" = 0;
"2" = 0;
"3" = 0;
"4" = 0;
"5" = 0;
"6" = 0;
"7" = 0;
"8" = 0;
"9" = 0;
};
};
width = 537;
},
{
anchors = (
{
name = top;
pos = (253,500);
}
);
layerId = "44B34E6E-EF7D-473C-A718-23DCC9FE612C";
shapes = (
{
closed = 1;
nodes = (
(130,-71,l),
(397,523,l),
(355,523,l),
(88,-71,l)
);
},
{
ref = o;
}
);
userData = {
com.hugojourdan.ColorFlow = {
"0" = 0;
"1" = 0;
"10" = 0;
"11" = 0;
"2" = 0;
"3" = 0;
"4" = 0;
"5" = 0;
"6" = 0;
"7" = 0;
"8" = 0;
"9" = 0;
};
};
width = 486;
}
);
unicode = 248;
},
{
color = 4;
glyphname = p;
kernLeft = KO_r;
kernRight = KO_o;
lastChange = "2023-10-23 05:29:06 +0000";
layers = (
{
layerId = m001;
shapes = (
{
closed = 1;
nodes = (
(223,-209,l),
(223,-10,l),
(248,-15,o),
(275,-18,o),
(303,-18,cs),
(406,-18,o),
(540,64,o),
(540,236,cs),
(540,397,o),
(453,470,o),
(347,470,cs),
(291,470,o),
(240,453,o),
(195,422,c),
(164,470,l),
(29,445,l),
(29,-234,l)
);
},
{
closed = 1;
nodes = (
(254,119,o),
(238,121,o),
(223,125,c),
(223,329,l),
(234,332,o),
(245,334,o),
(257,334,cs),
(299,334,o),
(342,312,o),
(342,227,cs),
(342,144,o),
(319,119,o),
(273,119,cs)
);
}
);
userData = {
com.hugojourdan.ColorFlow = {
"0" = 0;
"1" = 0;
"10" = 0;
"11" = 0;
"2" = 0;
"3" = 0;
"4" = 0;
"5" = 0;
"6" = 0;
"7" = 0;
"8" = 0;
"9" = 0;
};
};
width = 554;
},
{
layerId = "44B34E6E-EF7D-473C-A718-23DCC9FE612C";
shapes = (
{
closed = 1;
nodes = (
(135,-205,l),
(135,18,l),
(165,4,o),
(204,-10,o),
(241,-10,cs),
(340,-10,o),
(448,64,o),
(448,236,cs),
(448,397,o),
(359,459,o),
(274,459,cs),
(250,459,o),
(193,441,o),
(135,409,c),
(123,459,l),
(87,450,l),
(87,-215,l)
);
},
{
closed = 1;
nodes = (
(217,30,o),
(174,41,o),
(135,57,c),
(135,375,l),
(175,399,o),
(220,414,o),
(261,414,cs),
(321,414,o),
(400,370,o),
(400,227,cs),
(400,93,o),
(338,30,o),
(266,30,cs)
);
}
);
userData = {
com.hugojourdan.ColorFlow = {
"0" = 0;
"1" = 0;
"10" = 0;
"11" = 0;
"2" = 0;
"3" = 0;
"4" = 0;
"5" = 0;
"6" = 0;
"7" = 0;
"8" = 0;
"9" = 0;
};
};
width = 492;
}
);
unicode = 112;
},
{
color = 3;
glyphname = "phi-latin";
lastChange = "2024-02-13 15:32:55 +0000";
layers = (
{
layerId = "44B34E6E-EF7D-473C-A718-23DCC9FE612C";
shapes = (
{
closed = 1;
nodes = (
(421,-10,o),
(501,80,o),
(501,234,cs),
(501,370,o),
(418,446,o),
(304,458,cs),
(295,459,o),
(287,459,o),
(278,458,c),
(278,417,l),
(380,416,o),
(453,353,o),
(453,213,cs),
(453,106,o),
(406,33,o),
(298,33,cs),
(291,33,o),
(285,33,o),
(278,34,c),
(278,-11,l)
);
},
{
closed = 1;
nodes = (
(255,-11,o),
(256,-11,o),
(256,-11,c),
(256,34,l),
(154,42,o),
(92,106,o),
(92,237,cs),
(92,346,o),
(139,417,o),
(255,417,cs),
(255,417,o),
(256,417,o),
(256,417,c),
(256,458,l),
(115,447,o),
(44,361,o),
(44,216,cs),
(44,80,o),
(130,-11,o),
(255,-11,cs)
);
},
{
closed = 1;
nodes = (
(287,-214,l),
(287,599,l),
(251,591,l),
(251,-222,l)
);
}
);
userData = {
com.hugojourdan.ColorFlow = {
"0" = 0;
"1" = 0;
"10" = 0;
"11" = 0;
"2" = 0;
"3" = 0;
"4" = 0;
"5" = 0;
"6" = 0;
"7" = 0;
"8" = 0;
"9" = 0;
};
};
width = 545;
},
{
layerId = m001;
shapes = (
{
closed = 1;
nodes = (
(548,-16,o),
(652,81,o),
(652,233,cs),
(652,406,o),
(559,470,o),
(409,473,cs),
(403,473,o),
(377,473,o),
(372,473,c),
(372,348,l),
(424,339,o),
(465,318,o),
(465,212,cs),
(465,125,o),
(440,109,o),
(409,109,cs),
(403,109,o),
(377,110,o),
(372,111,c),
(372,-20,l)
);
},
{
closed = 1;
nodes = (
(276,-20,o),
(279,-20,o),
(282,-20,c),
(282,111,l),
(235,118,o),
(202,147,o),
(202,236,cs),
(202,322,o),
(227,340,o),
(278,348,cs),
(279,348,o),
(280,348,o),
(282,348,c),
(282,473,l),
(115,462,o),
(14,365,o),
(14,215,cs),
(14,43,o),
(114,-20,o),
(273,-20,cs)
);
},
{
closed = 1;
nodes = (
(404,-228,l),
(404,629,l),
(263,613,l),
(263,-244,l)
);
}
);
userData = {
com.hugojourdan.ColorFlow = {
"0" = 0;
"1" = 0;
"10" = 0;
"11" = 0;
"2" = 0;
"3" = 0;
"4" = 0;
"5" = 0;
"6" = 0;
"7" = 0;
"8" = 0;
"9" = 0;
};
};
width = 667;
}
);
metricLeft = o;
metricRight = o;
unicode = 632;
},
{
color = 3;
glyphname = phook;
lastChange = "2024-02-13 15:32:55 +0000";
layers = (
{
layerId = "44B34E6E-EF7D-473C-A718-23DCC9FE612C";
shapes = (
{
closed = 1;
nodes = (
(135,-205,l),
(135,18,l),
(165,4,o),
(204,-9,o),
(241,-9,cs),
(340,-9,o),
(448,64,o),
(448,236,cs),
(448,397,o),
(359,459,o),
(274,459,cs),
(250,459,o),
(193,441,o),
(135,409,c),
(135,477,ls),
(135,534,o),
(135,578,o),
(161,610,cs),
(189,646,o),
(238,658,o),
(272,661,c),
(258,698,l),
(200,694,o),
(142,663,o),
(110,606,cs),
(91,571,o),
(87,553,o),
(87,466,cs),
(87,-215,l)
);
},
{
closed = 1;
nodes = (
(217,31,o),
(174,41,o),
(135,57,c),
(135,375,l),
(175,399,o),
(220,414,o),
(261,414,cs),
(321,414,o),
(400,370,o),
(400,227,cs),
(400,93,o),
(338,31,o),
(266,31,cs)
);
}
);
userData = {
com.hugojourdan.ColorFlow = {
"0" = 0;
"1" = 0;
"10" = 0;
"11" = 0;
"2" = 0;
"3" = 0;
"4" = 0;
"5" = 0;
"6" = 0;
"7" = 0;
"8" = 0;
"9" = 0;
};
};
width = 492;
},
{
layerId = m001;
shapes = (
{
closed = 1;
nodes = (
(223,-209,l),
(223,-10,l),
(248,-15,o),
(275,-18,o),
(303,-18,cs),
(406,-18,o),
(540,64,o),
(540,236,cs),
(540,397,o),
(453,470,o),
(347,470,cs),
(291,470,o),
(246,457,o),
(222,439,c),
(222,462,ls),
(222,471,o),
(222,482,o),
(224,496,cs),
(232,543,o),
(257,564,o),
(306,573,c),
(258,717,l),
(166,708,o),
(85,652,o),
(49,587,cs),
(35,563,o),
(29,523,o),
(29,469,cs),
(29,-234,l)
);
},
{
closed = 1;
nodes = (
(254,119,o),
(238,121,o),
(223,125,c),
(223,329,l),
(234,332,o),
(245,334,o),
(257,334,cs),
(299,334,o),
(342,312,o),
(342,227,cs),
(342,144,o),
(319,119,o),
(273,119,cs)
);
}
);
userData = {
com.hugojourdan.ColorFlow = {
"0" = 0;
"1" = 0;
"10" = 0;
"11" = 0;
"2" = 0;
"3" = 0;
"4" = 0;
"5" = 0;
"6" = 0;
"7" = 0;
"8" = 0;
"9" = 0;
};
};
width = 554;
}
);
metricLeft = p;
metricRight = p;
unicode = 421;
},
{
color = 4;
glyphname = thorn;
lastChange = "2023-10-09 15:58:23 +0000";
layers = (
{
layerId = m001;
shapes = (
{
closed = 1;
nodes = (
(255,119,o),
(238,121,o),
(223,124,c),
(223,329,l),
(234,332,o),
(245,334,o),
(257,334,cs),
(299,334,o),
(342,312,o),
(342,227,cs),
(342,144,o),
(319,119,o),
(273,119,cs)
);
},
{
closed = 1;
nodes = (
(223,-220,l),
(223,-14,l),
(247,-17,o),
(273,-18,o),
(303,-18,cs),
(406,-18,o),
(540,64,o),
(540,236,cs),
(540,397,o),
(453,470,o),
(347,470,cs),
(296,470,o),
(257,459,o),
(223,441,c),
(223,697,l),
(29,673,l),
(29,-244,l)
);
}
);
userData = {
com.hugojourdan.ColorFlow = {
"0" = 0;
"1" = 0;
"10" = 0;
"11" = 0;
"2" = 0;
"3" = 0;
"4" = 0;
"5" = 0;
"6" = 0;
"7" = 0;
"8" = 0;
"9" = 0;
};
};
width = 544;
},
{
layerId = "44B34E6E-EF7D-473C-A718-23DCC9FE612C";
shapes = (
{
closed = 1;
nodes = (
(217,31,o),
(174,41,o),
(135,57,c),
(135,375,l),
(175,399,o),
(220,414,o),
(261,414,cs),
(321,414,o),
(400,370,o),
(400,227,cs),
(400,93,o),
(338,31,o),
(266,31,cs)
);
},
{
closed = 1;
nodes = (
(135,-201,l),
(135,18,l),
(165,4,o),
(204,-9,o),
(241,-9,cs),
(340,-9,o),
(448,64,o),
(448,236,cs),
(448,397,o),
(355,460,o),
(274,459,cs),
(252,458,o),
(196,442,o),
(135,408,c),
(135,690,l),
(87,680,l),
(87,-212,l)
);
}
);
userData = {
com.hugojourdan.ColorFlow = {
"0" = 0;
"1" = 0;
"10" = 0;
"11" = 0;
"2" = 0;
"3" = 0;
"4" = 0;
"5" = 0;
"6" = 0;
"7" = 0;
"8" = 0;
"9" = 0;
};
};
width = 501;
}
);
unicode = 254;
},
